<svg width="24" height="24" viewBox="0 0 24 24" fill="none" xmlns="http://www.w3.org/2000/svg">
<g clip-path="url(#clip0_463_1809)">
<path d="M11.625 21H12.375V21.75H11.625V21Z" fill="#7C8DB5"/>
<path d="M18.0952 18.6294L18.6255 18.0991L19.1559 18.6294L18.6255 19.1597L18.0952 18.6294Z" fill="#7C8DB5"/>
<path d="M21 11.625H21.75V12.375H21V11.625Z" fill="#7C8DB5"/>
<path d="M22.875 9.37515H20.2162C20.0711 8.91761 19.8873 8.47326 19.6669 8.0469L21.546 6.1674C21.6163 6.09708 21.6558 6.00172 21.6558 5.90228C21.6558 5.80284 21.6163 5.70748 21.546 5.63715L19.9549 4.0464C18.9139 2.98544 17.673 2.14128 16.3039 1.56268C14.9348 0.98408 13.4646 0.68252 11.9783 0.675421C10.492 0.668323 9.01896 0.955827 7.64439 1.52132C6.26982 2.08682 5.02093 2.91909 3.96989 3.97006C2.91885 5.02103 2.08648 6.26986 1.52089 7.64438C0.9553 9.01891 0.667692 10.4919 0.674685 11.9782C0.681679 13.4646 0.983135 14.9348 1.56164 16.3039C2.14014 17.6731 2.98422 18.914 4.0451 19.955L5.63585 21.5462C5.70618 21.6165 5.80154 21.6559 5.90098 21.6559C6.00041 21.6559 6.09578 21.6165 6.1661 21.5462L8.0456 19.667C8.47234 19.8874 8.91707 20.0711 9.37498 20.216V22.8752C9.37498 22.9746 9.41449 23.07 9.48481 23.1403C9.55514 23.2106 9.65052 23.2502 9.74998 23.2502H14.25C14.3494 23.2502 14.4448 23.2106 14.5151 23.1403C14.5855 23.07 14.625 22.9746 14.625 22.8752V20.2164C15.0825 20.0714 15.5269 19.8878 15.9532 19.6674L17.8327 21.5465C17.9031 21.6168 17.9984 21.6563 18.0979 21.6563C18.1973 21.6563 18.2927 21.6168 18.363 21.5465L21.5449 18.3647C21.6152 18.2943 21.6546 18.199 21.6546 18.0995C21.6546 18.0001 21.6152 17.9047 21.5449 17.8344L19.6657 15.9549C19.8865 15.5281 20.0706 15.0832 20.2159 14.6252H22.875C22.9744 14.6252 23.0698 14.5856 23.1401 14.5153C23.2105 14.445 23.25 14.3496 23.25 14.2502V9.75015C23.25 9.6507 23.2105 9.55531 23.1401 9.48499C23.0698 9.41466 22.9744 9.37515 22.875 9.37515ZM4.57498 4.57515C6.49784 2.65169 9.09226 1.54972 11.8116 1.50146C14.5309 1.45319 17.1628 2.46239 19.1527 4.3164L18.6232 4.8459C16.7726 3.13808 14.3331 2.21249 11.8154 2.26297C9.29769 2.31345 6.89718 3.33609 5.11654 5.11672C3.33591 6.89735 2.31328 9.29787 2.26279 11.8156C2.21231 14.3332 3.1379 16.7728 4.84573 18.6234L4.31623 19.1529C2.46221 17.163 1.45301 14.5311 1.50128 11.8118C1.54955 9.09243 2.65151 6.49801 4.57498 4.57515ZM15.1819 8.81828C16.0144 9.66451 16.4789 10.8054 16.474 11.9926C16.4692 13.1797 15.9955 14.3168 15.156 15.1562C14.3166 15.9956 13.1795 16.4694 11.9924 16.4742C10.8053 16.479 9.66434 16.0146 8.8181 15.182C8.74778 15.1117 8.65241 15.0722 8.55298 15.0722C8.45354 15.0722 8.35818 15.1117 8.28785 15.182L5.37635 18.0935C3.80359 16.3847 2.95226 14.1341 3.00037 11.8122C3.04848 9.49028 3.99229 7.27685 5.63448 5.63465C7.27667 3.99246 9.4901 3.04865 11.812 3.00055C14.1339 2.95244 16.3846 3.80376 18.0934 5.37653L15.1819 8.28765C15.147 8.32248 15.1193 8.36384 15.1005 8.40936C15.0816 8.45489 15.0719 8.50368 15.0719 8.55297C15.0719 8.60225 15.0816 8.65104 15.1005 8.69657C15.1193 8.74209 15.147 8.78345 15.1819 8.81828ZM22.5 13.8752H19.9365C19.8545 13.8751 19.7748 13.9019 19.7095 13.9515C19.6442 14.0011 19.5969 14.0707 19.575 14.1497C19.4103 14.7379 19.176 15.3044 18.8771 15.8372C18.8368 15.9086 18.8211 15.9914 18.8323 16.0727C18.8436 16.1539 18.8812 16.2293 18.9394 16.2872L20.7502 18.0984L18.099 20.7497L16.2877 18.9388C16.2299 18.8806 16.1545 18.843 16.0732 18.8318C15.9919 18.8205 15.9092 18.8362 15.8377 18.8765C15.305 19.1754 14.7385 19.4097 14.1502 19.5744C14.0713 19.5964 14.0016 19.6436 13.9521 19.7089C13.9025 19.7742 13.8757 19.8539 13.8757 19.9359V22.5002H10.125V19.9367C10.125 19.8547 10.0982 19.7749 10.0486 19.7097C9.99906 19.6444 9.92946 19.5971 9.85048 19.5752C9.26224 19.4104 8.69574 19.1762 8.16298 18.8773C8.09149 18.837 8.00876 18.8213 7.92748 18.8325C7.8462 18.8438 7.77084 18.8813 7.71298 18.9395L5.90173 20.7504L4.84123 19.6899L8.5631 15.9684C9.56651 16.8371 10.8617 17.2935 12.1881 17.2458C13.5144 17.1981 14.7735 16.6499 15.7119 15.7113C16.6503 14.7728 17.1985 13.5137 17.246 12.1873C17.2936 10.861 16.837 9.56585 15.9682 8.56253L19.6897 4.84065L20.7502 5.90115L18.9394 7.7124C18.8812 7.77027 18.8436 7.84562 18.8323 7.9269C18.8211 8.00819 18.8368 8.09092 18.8771 8.1624C19.176 8.69514 19.4103 9.26164 19.575 9.8499C19.5969 9.92888 19.6442 9.99848 19.7095 10.0481C19.7748 10.0976 19.8545 10.1245 19.9365 10.1244H22.5V13.8752Z" fill="#7C8DB5"/>
<path d="M12.375 10.5533V6.375C12.375 6.27554 12.3355 6.18016 12.2652 6.10983C12.1948 6.03951 12.0995 6 12 6C11.9005 6 11.8052 6.03951 11.7348 6.10983C11.6645 6.18016 11.625 6.27554 11.625 6.375V10.5533C11.3673 10.6206 11.1322 10.7554 10.9438 10.9438C10.7554 11.1322 10.6206 11.3673 10.5533 11.625H7.875C7.77554 11.625 7.68016 11.6645 7.60983 11.7348C7.53951 11.8052 7.5 11.9005 7.5 12C7.5 12.0995 7.53951 12.1948 7.60983 12.2652C7.68016 12.3355 7.77554 12.375 7.875 12.375H10.5533C10.6188 12.6309 10.7509 12.8649 10.9362 13.0532C11.1215 13.2415 11.3532 13.3775 11.608 13.4472C11.8628 13.517 12.1315 13.5181 12.3869 13.4504C12.6422 13.3828 12.8751 13.2487 13.0619 13.0619C13.2487 12.8751 13.3828 12.6422 13.4504 12.3869C13.5181 12.1315 13.517 11.8628 13.4472 11.608C13.3775 11.3532 13.2415 11.1215 13.0532 10.9362C12.8649 10.7509 12.6309 10.6188 12.375 10.5533ZM12 12.75C11.8517 12.75 11.7067 12.706 11.5833 12.6236C11.46 12.5412 11.3639 12.4241 11.3071 12.287C11.2503 12.15 11.2355 11.9992 11.2644 11.8537C11.2933 11.7082 11.3648 11.5746 11.4697 11.4697C11.5746 11.3648 11.7082 11.2933 11.8537 11.2644C11.9992 11.2355 12.15 11.2503 12.287 11.3071C12.4241 11.3639 12.5412 11.46 12.6236 11.5833C12.706 11.7067 12.75 11.8517 12.75 12C12.75 12.1989 12.671 12.3897 12.5303 12.5303C12.3897 12.671 12.1989 12.75 12 12.75Z" fill="#7C8DB5"/>
<path d="M12 4.875C11.9005 4.875 11.8052 4.83549 11.7348 4.76516C11.6645 4.69484 11.625 4.59946 11.625 4.5V3.75C11.625 3.65054 11.6645 3.55516 11.7348 3.48484C11.8052 3.41451 11.9005 3.375 12 3.375C12.0995 3.375 12.1948 3.41451 12.2652 3.48484C12.3355 3.55516 12.375 3.65054 12.375 3.75V4.5C12.375 4.59946 12.3355 4.69484 12.2652 4.76516C12.1948 4.83549 12.0995 4.875 12 4.875Z" fill="#7C8DB5"/>
<path d="M15.7501 5.88014C15.6843 5.88008 15.6197 5.8627 15.5627 5.82976C15.5058 5.79682 15.4585 5.74947 15.4256 5.69248C15.3928 5.63548 15.3755 5.57084 15.3755 5.50505C15.3755 5.43925 15.3928 5.37462 15.4257 5.31764L15.8007 4.66777C15.8508 4.58234 15.9326 4.52019 16.0284 4.49488C16.1241 4.46957 16.226 4.48315 16.3117 4.53267C16.3975 4.58218 16.4602 4.6636 16.4861 4.75917C16.5121 4.85474 16.4992 4.95668 16.4502 5.04277L16.0752 5.69264C16.0423 5.7497 15.9949 5.79708 15.9378 5.82999C15.8807 5.86291 15.816 5.88021 15.7501 5.88014Z" fill="#7C8DB5"/>
<path d="M8.25011 5.88014C8.18422 5.88021 8.11948 5.86291 8.0624 5.82999C8.00532 5.79708 7.95793 5.7497 7.92498 5.69264L7.54998 5.04277C7.50104 4.95668 7.48813 4.85474 7.51408 4.75917C7.54002 4.6636 7.60272 4.58218 7.68847 4.53267C7.77423 4.48315 7.87609 4.46957 7.97183 4.49488C8.06756 4.52019 8.1494 4.58234 8.19948 4.66777L8.57448 5.31764C8.60738 5.37462 8.62471 5.43925 8.62472 5.50505C8.62474 5.57084 8.60745 5.63548 8.57458 5.69248C8.54171 5.74947 8.49443 5.79682 8.43747 5.82976C8.38052 5.8627 8.3159 5.88008 8.25011 5.88014Z" fill="#7C8DB5"/>
<path d="M5.50466 8.62522C5.43881 8.62536 5.37411 8.60802 5.31716 8.57497L4.66728 8.19997C4.58185 8.14989 4.5197 8.06805 4.49439 7.97232C4.46908 7.87658 4.48266 7.77472 4.53218 7.68896C4.58169 7.6032 4.66312 7.54051 4.75868 7.51457C4.85425 7.48862 4.9562 7.50153 5.04228 7.55047L5.69216 7.92547C5.76364 7.96675 5.81951 8.03046 5.8511 8.10672C5.88268 8.18299 5.88823 8.26755 5.86686 8.34728C5.8455 8.42701 5.79842 8.49747 5.73293 8.54772C5.66744 8.59798 5.5872 8.62522 5.50466 8.62522Z" fill="#7C8DB5"/>
<path d="M4.5 12.375H3.75C3.65054 12.375 3.55516 12.3355 3.48484 12.2652C3.41451 12.1948 3.375 12.0995 3.375 12C3.375 11.9005 3.41451 11.8052 3.48484 11.7348C3.55516 11.6645 3.65054 11.625 3.75 11.625H4.5C4.59946 11.625 4.69484 11.6645 4.76516 11.7348C4.83549 11.8052 4.875 11.9005 4.875 12C4.875 12.0995 4.83549 12.1948 4.76516 12.2652C4.69484 12.3355 4.59946 12.375 4.5 12.375Z" fill="#7C8DB5"/>
<path d="M4.85545 16.4998C4.77291 16.4998 4.69267 16.4725 4.62718 16.4223C4.56169 16.372 4.51461 16.3016 4.49325 16.2218C4.47188 16.1421 4.47742 16.0575 4.50901 15.9813C4.5406 15.905 4.59647 15.8413 4.66795 15.8L5.31783 15.425C5.36049 15.4 5.40768 15.3837 5.45668 15.377C5.50568 15.3703 5.55552 15.3734 5.60333 15.386C5.65114 15.3986 5.69598 15.4206 5.73527 15.4506C5.77456 15.4807 5.80751 15.5182 5.83224 15.561C5.85697 15.6039 5.87298 15.6512 5.87935 15.7002C5.88573 15.7492 5.88234 15.7991 5.86938 15.8468C5.85642 15.8945 5.83415 15.9392 5.80385 15.9783C5.77355 16.0174 5.73582 16.0501 5.69283 16.0745L5.04295 16.4495C4.986 16.4826 4.9213 16.4999 4.85545 16.4998Z" fill="#7C8DB5"/>
<path d="M11.9999 15.7499C11.5073 15.7513 11.0193 15.6547 10.5642 15.4659C10.1092 15.277 9.6963 14.9996 9.34944 14.6497C9.31367 14.615 9.28517 14.5736 9.26558 14.5278C9.246 14.4821 9.23572 14.4328 9.23536 14.3831C9.235 14.3333 9.24456 14.2839 9.26348 14.2378C9.2824 14.1918 9.3103 14.15 9.34556 14.1148C9.38082 14.0796 9.42273 14.0519 9.46884 14.0331C9.51495 14.0143 9.56434 14.0049 9.61413 14.0054C9.66392 14.0059 9.71311 14.0163 9.75883 14.036C9.80456 14.0557 9.84589 14.0843 9.88044 14.1202C10.1577 14.4034 10.4885 14.6289 10.8535 14.7835C11.2185 14.9381 11.6105 15.0188 12.0069 15.0209C12.4033 15.023 12.7962 14.9465 13.1628 14.7958C13.5294 14.645 13.8625 14.4231 14.1428 14.1428C14.4231 13.8625 14.645 13.5294 14.7958 13.1628C14.9465 12.7962 15.023 12.4033 15.0209 12.0069C15.0188 11.6105 14.9381 11.2185 14.7835 10.8535C14.6289 10.4885 14.4034 10.1577 14.1202 9.88044C14.0843 9.84589 14.0557 9.80456 14.036 9.75883C14.0163 9.71311 14.0059 9.66392 14.0054 9.61413C14.0049 9.56434 14.0143 9.51495 14.0331 9.46884C14.0519 9.42273 14.0796 9.38082 14.1148 9.34556C14.15 9.3103 14.1918 9.2824 14.2378 9.26348C14.2839 9.24456 14.3333 9.235 14.3831 9.23536C14.4328 9.23572 14.4821 9.246 14.5278 9.26558C14.5736 9.28517 14.615 9.31367 14.6497 9.34944C15.1736 9.87383 15.5304 10.5417 15.6749 11.2688C15.8195 11.9959 15.7453 12.7494 15.4617 13.4343C15.1782 14.1193 14.698 14.7048 14.0818 15.1169C13.4657 15.529 12.7412 15.7493 11.9999 15.7499Z" fill="#7C8DB5"/>
</g>
<defs>
<clipPath id="clip0_463_1809">
<rect width="24" height="24" fill="white"/>
</clipPath>
</defs>
</svg>
