<svg width="24" height="24" viewBox="0 0 24 24" fill="none" xmlns="http://www.w3.org/2000/svg">
<g clip-path="url(#clip0_463_1997)">
<path d="M4.81273 6.03027C4.64164 6.03027 4.50293 6.16898 4.50293 6.34008C4.50293 6.51117 4.64164 6.64988 4.81273 6.64988C4.98383 6.64988 5.12254 6.51117 5.12254 6.34008C5.12254 6.16898 4.98383 6.03027 4.81273 6.03027Z" fill="#7C8DB5"/>
<path d="M6.05517 6.64988C6.22626 6.64988 6.36497 6.51117 6.36497 6.34008C6.36497 6.16898 6.22626 6.03027 6.05517 6.03027C5.88407 6.03027 5.74536 6.16898 5.74536 6.34008C5.74536 6.51117 5.88407 6.64988 6.05517 6.64988Z" fill="#7C8DB5"/>
<path d="M7.21508 6.64988C7.38617 6.64988 7.52488 6.51117 7.52488 6.34008C7.52488 6.16898 7.38617 6.03027 7.21508 6.03027C7.04398 6.03027 6.90527 6.16898 6.90527 6.34008C6.90523 6.51117 7.04394 6.64988 7.21508 6.64988Z" fill="#7C8DB5"/>
<path d="M4.81273 4.24754C4.98384 4.24754 5.12254 4.10884 5.12254 3.93773C5.12254 3.76663 4.98384 3.62793 4.81273 3.62793C4.64163 3.62793 4.50293 3.76663 4.50293 3.93773C4.50293 4.10884 4.64163 4.24754 4.81273 4.24754Z" fill="#7C8DB5"/>
<path d="M6.05517 4.24754C6.22626 4.24754 6.36497 4.10883 6.36497 3.93773C6.36497 3.76664 6.22626 3.62793 6.05517 3.62793C5.88407 3.62793 5.74536 3.76664 5.74536 3.93773C5.74536 4.10883 5.88407 4.24754 6.05517 4.24754Z" fill="#7C8DB5"/>
<path d="M7.21508 4.24754C7.38618 4.24754 7.52488 4.10884 7.52488 3.93773C7.52488 3.76663 7.38618 3.62793 7.21508 3.62793C7.04398 3.62793 6.90527 3.76663 6.90527 3.93773C6.90527 4.10884 7.04398 4.24754 7.21508 4.24754Z" fill="#7C8DB5"/>
<path d="M4.81273 1.84568C4.98383 1.84568 5.12254 1.70697 5.12254 1.53588C5.12254 1.36478 4.98383 1.22607 4.81273 1.22607C4.64164 1.22607 4.50293 1.36478 4.50293 1.53588C4.50288 1.70697 4.64159 1.84568 4.81273 1.84568Z" fill="#7C8DB5"/>
<path d="M6.05517 1.84568C6.22626 1.84568 6.36497 1.70697 6.36497 1.53588C6.36497 1.36478 6.22626 1.22607 6.05517 1.22607C5.88407 1.22607 5.74536 1.36478 5.74536 1.53588C5.74536 1.70697 5.88407 1.84568 6.05517 1.84568Z" fill="#7C8DB5"/>
<path d="M7.21508 1.84568C7.38617 1.84568 7.52488 1.70697 7.52488 1.53588C7.52488 1.36478 7.38617 1.22607 7.21508 1.22607C7.04398 1.22607 6.90527 1.36478 6.90527 1.53588C6.90523 1.70697 7.04394 1.84568 7.21508 1.84568Z" fill="#7C8DB5"/>
<path d="M15.3992 6.64988C15.5703 6.64988 15.709 6.51117 15.709 6.34008C15.709 6.16898 15.5703 6.03027 15.3992 6.03027C15.2281 6.03027 15.0894 6.16898 15.0894 6.34008C15.0893 6.51117 15.2281 6.64988 15.3992 6.64988Z" fill="#7C8DB5"/>
<path d="M16.6416 6.64988C16.8127 6.64988 16.9514 6.51117 16.9514 6.34008C16.9514 6.16898 16.8127 6.03027 16.6416 6.03027C16.4705 6.03027 16.3318 6.16898 16.3318 6.34008C16.3318 6.51117 16.4705 6.64988 16.6416 6.64988Z" fill="#7C8DB5"/>
<path d="M17.8015 6.64988C17.9726 6.64988 18.1113 6.51117 18.1113 6.34008C18.1113 6.16898 17.9726 6.03027 17.8015 6.03027C17.6304 6.03027 17.4917 6.16898 17.4917 6.34008C17.4917 6.51117 17.6304 6.64988 17.8015 6.64988Z" fill="#7C8DB5"/>
<path d="M15.3992 4.24754C15.5703 4.24754 15.709 4.10883 15.709 3.93773C15.709 3.76664 15.5703 3.62793 15.3992 3.62793C15.2281 3.62793 15.0894 3.76664 15.0894 3.93773C15.0893 4.10883 15.2281 4.24754 15.3992 4.24754Z" fill="#7C8DB5"/>
<path d="M16.6416 4.24754C16.8127 4.24754 16.9514 4.10884 16.9514 3.93773C16.9514 3.76663 16.8127 3.62793 16.6416 3.62793C16.4705 3.62793 16.3318 3.76663 16.3318 3.93773C16.3318 4.10884 16.4705 4.24754 16.6416 4.24754Z" fill="#7C8DB5"/>
<path d="M17.8015 4.24754C17.9726 4.24754 18.1113 4.10884 18.1113 3.93773C18.1113 3.76663 17.9726 3.62793 17.8015 3.62793C17.6304 3.62793 17.4917 3.76663 17.4917 3.93773C17.4917 4.10884 17.6304 4.24754 17.8015 4.24754Z" fill="#7C8DB5"/>
<path d="M15.3992 1.84568C15.5703 1.84568 15.709 1.70697 15.709 1.53588C15.709 1.36478 15.5703 1.22607 15.3992 1.22607C15.2281 1.22607 15.0894 1.36478 15.0894 1.53588C15.0893 1.70697 15.2281 1.84568 15.3992 1.84568Z" fill="#7C8DB5"/>
<path d="M16.6416 1.84568C16.8127 1.84568 16.9514 1.70697 16.9514 1.53588C16.9514 1.36478 16.8127 1.22607 16.6416 1.22607C16.4705 1.22607 16.3318 1.36478 16.3318 1.53588C16.3318 1.70697 16.4705 1.84568 16.6416 1.84568Z" fill="#7C8DB5"/>
<path d="M17.8015 1.84568C17.9726 1.84568 18.1113 1.70697 18.1113 1.53588C18.1113 1.36478 17.9726 1.22607 17.8015 1.22607C17.6304 1.22607 17.4917 1.36478 17.4917 1.53588C17.4917 1.70697 17.6304 1.84568 17.8015 1.84568Z" fill="#7C8DB5"/>
<path d="M5.77553 12.9223H10.3945C10.7929 12.9223 11.117 12.5982 11.117 12.1998V11.4984C11.117 11.1 10.7929 10.7759 10.3945 10.7759H5.77553C5.37707 10.7759 5.05298 11.1 5.05298 11.4984V12.1998C5.05293 12.5982 5.37707 12.9223 5.77553 12.9223ZM5.758 11.4984C5.758 11.4887 5.76585 11.4809 5.77548 11.4809H10.3944C10.4041 11.4809 10.4119 11.4888 10.4119 11.4984V12.1998C10.4119 12.2095 10.4041 12.2173 10.3944 12.2173H5.77548C5.76585 12.2173 5.758 12.2094 5.758 12.1998V11.4984Z" fill="#7C8DB5"/>
<path d="M5.04321 14.5091V15.2105C5.04321 15.6089 5.36735 15.9331 5.76572 15.9331H18.6104C19.0088 15.9331 19.3329 15.6089 19.3329 15.2105V14.5091C19.3329 14.1107 19.0088 13.7866 18.6104 13.7866H5.76572C5.36731 13.7866 5.04321 14.1107 5.04321 14.5091ZM18.6279 14.5091V15.2105C18.6279 15.2202 18.6201 15.228 18.6104 15.228H5.76572C5.75608 15.228 5.74828 15.2202 5.74828 15.2105V14.5091C5.74828 14.4995 5.75608 14.4917 5.76572 14.4917H18.6104C18.6201 14.4917 18.6279 14.4995 18.6279 14.5091Z" fill="#7C8DB5"/>
<path d="M21.8275 3.72622H21.3289V3.43629C21.3289 3.16672 21.2252 2.92099 21.0556 2.73673C21.2252 2.55243 21.3289 2.30673 21.3289 2.03712V1.03419C21.3289 0.463932 20.865 0 20.2948 0H14.6963C14.1261 0 13.6621 0.463932 13.6621 1.03419V2.03712C13.6621 2.30669 13.7659 2.55243 13.9355 2.73673C13.7659 2.92099 13.6621 3.16672 13.6621 3.43629V3.72622H10.7425V3.43629C10.7425 3.16672 10.6387 2.92099 10.4691 2.73673C10.6387 2.55243 10.7425 2.30673 10.7425 2.03712V1.03419C10.7425 0.463932 10.2785 0 9.70827 0H4.10978C3.53953 0 3.0756 0.463932 3.0756 1.03419V2.03712C3.0756 2.30669 3.17938 2.55243 3.34893 2.73673C3.17933 2.92099 3.0756 3.16672 3.0756 3.43629V3.73331C3.0528 3.72871 2.17255 3.72622 2.17255 3.72622C1.40915 3.72622 0.788086 4.34728 0.788086 5.11068V14.2523C0.788086 15.0157 1.40915 15.6368 2.17255 15.6368H3.34629V20.0715C3.34629 20.5876 3.76613 21.0074 4.28215 21.0074H9.68223V22.0465H9.18436C8.60024 22.0465 8.12507 22.7568 8.12507 23.3409V23.6474C8.12507 23.8421 8.28287 24 8.47761 24H15.9269C16.1217 24 16.2795 23.8421 16.2795 23.6474V23.3409C16.2795 22.7568 15.8043 22.0465 15.2202 22.0465H14.7223V21.0074H20.1224C20.6385 21.0074 21.0583 20.5876 21.0583 20.0715V15.6368H21.8275C22.5908 15.6368 23.2119 15.0157 23.2119 14.2523V5.11068C23.2119 4.34728 22.5909 3.72622 21.8275 3.72622ZM14.3672 1.03419C14.3672 0.852704 14.5148 0.705064 14.6963 0.705064H20.2948C20.4762 0.705064 20.6239 0.852704 20.6239 1.03419V2.03712C20.6239 2.2186 20.4762 2.36624 20.2948 2.36624H14.6963C14.5148 2.36624 14.3672 2.2186 14.3672 2.03712V1.03419ZM14.3672 3.43629C14.3672 3.25481 14.5148 3.10717 14.6963 3.10717H20.2948C20.4762 3.10717 20.6239 3.25481 20.6239 3.43629V4.43922C20.6239 4.62071 20.4762 4.76835 20.2948 4.76835H14.6963C14.5148 4.76835 14.3672 4.62071 14.3672 4.43922V3.43629ZM14.3672 5.8384C14.3672 5.65692 14.5148 5.50928 14.6963 5.50928H20.2948C20.4762 5.50928 20.6239 5.65692 20.6239 5.8384V6.84133C20.6239 7.02281 20.4762 7.17045 20.2948 7.17045H14.6963C14.5148 7.17045 14.3672 7.02281 14.3672 6.84133V5.8384ZM3.78066 1.03419C3.78066 0.852704 3.9283 0.705064 4.10978 0.705064H9.70827C9.88976 0.705064 10.0374 0.852704 10.0374 1.03419V2.03712C10.0374 2.2186 9.88976 2.36624 9.70827 2.36624H4.10978C3.9283 2.36624 3.78066 2.2186 3.78066 2.03712V1.03419ZM3.78066 3.43629C3.78066 3.25481 3.9283 3.10717 4.10978 3.10717H9.70827C9.88976 3.10717 10.0374 3.25481 10.0374 3.43629V4.43922C10.0374 4.62071 9.88976 4.76835 9.70827 4.76835H4.10978C3.9283 4.76835 3.78066 4.62071 3.78066 4.43922V3.43629ZM15.2202 22.7516C15.3999 22.7516 15.5488 23.1212 15.5714 23.2949H8.8331C8.85566 23.1213 9.00457 22.7516 9.18436 22.7516H15.2202ZM10.3873 22.0465V21.0074H14.0173V22.0465H10.3873ZM20.3532 20.0715C20.3532 20.1988 20.2496 20.3024 20.1224 20.3024H4.28215C4.15491 20.3024 4.05136 20.1988 4.05136 20.0715V19.1717V19.1H20.3532V19.1717V20.0715ZM22.5069 14.2523C22.5069 14.6269 22.2021 14.9317 21.8275 14.9317H21.0583V10.2948C21.0583 9.65858 20.5407 9.14097 19.9044 9.14097H16.2835C16.0888 9.14097 15.931 9.29881 15.931 9.4935C15.931 9.68819 16.0888 9.84603 16.2835 9.84603H19.9044C20.1519 9.84603 20.3532 10.0473 20.3532 10.2948V18.3949H4.05136V10.2948C4.05136 10.0473 4.25268 9.84603 4.50015 9.84603H14.8733C15.0681 9.84603 15.2259 9.68819 15.2259 9.4935C15.2259 9.29881 15.0681 9.14097 14.8733 9.14097H4.50015C3.8639 9.14097 3.34629 9.65858 3.34629 10.2948V14.9317H2.17255C1.79793 14.9317 1.49315 14.6269 1.49315 14.2523V5.11068C1.49315 4.73605 1.79793 4.43128 2.17255 4.43128C2.17255 4.43128 3.0528 4.42884 3.0756 4.42418V4.43918C3.0756 4.70875 3.17938 4.95448 3.34893 5.13874C3.17933 5.323 3.0756 5.56874 3.0756 5.8383V6.84124C3.0756 7.41149 3.53953 7.87542 4.10978 7.87542H4.53569C4.73043 7.87542 4.88822 7.71758 4.88822 7.52289C4.88822 7.3282 4.73043 7.17036 4.53569 7.17036H4.10978C3.9283 7.17036 3.78066 7.02272 3.78066 6.84124V5.8384C3.78066 5.65692 3.9283 5.50928 4.10978 5.50928H9.70827C9.88976 5.50928 10.0374 5.65692 10.0374 5.8384V6.84133C10.0374 7.02281 9.88976 7.17045 9.70827 7.17045H5.94582C5.75108 7.17045 5.59328 7.32829 5.59328 7.52298C5.59328 7.71768 5.75108 7.87552 5.94582 7.87552H9.70827C10.2785 7.87552 10.7425 7.41158 10.7425 6.84133V5.8384C10.7425 5.56883 10.6387 5.32309 10.4691 5.13883C10.6387 4.95458 10.7425 4.70884 10.7425 4.43927V4.43133H13.6621V4.43927C13.6621 4.70884 13.7659 4.95458 13.9355 5.13883C13.7659 5.32309 13.6621 5.56883 13.6621 5.8384V6.84133C13.6621 7.41158 14.1261 7.87552 14.6963 7.87552H20.2948C20.865 7.87552 21.3289 7.41158 21.3289 6.84133V5.8384C21.3289 5.56883 21.2252 5.32309 21.0556 5.13883C21.2252 4.95458 21.3289 4.70884 21.3289 4.43927V4.43133H21.8275C22.2021 4.43133 22.5068 4.7361 22.5068 5.11073L22.5069 14.2523Z" fill="#7C8DB5"/>
<path d="M6.49156 16.8613H5.63744C5.44271 16.8613 5.28491 17.0192 5.28491 17.2139C5.28491 17.4086 5.44271 17.5664 5.63744 17.5664H6.49156C6.6863 17.5664 6.84409 17.4086 6.84409 17.2139C6.84409 17.0192 6.6863 16.8613 6.49156 16.8613Z" fill="#7C8DB5"/>
<path d="M10.2889 16.8613H7.89452C7.69979 16.8613 7.54199 17.0192 7.54199 17.2139C7.54199 17.4086 7.69979 17.5664 7.89452 17.5664H10.2889C10.4837 17.5664 10.6415 17.4086 10.6415 17.2139C10.6415 17.0192 10.4837 16.8613 10.2889 16.8613Z" fill="#7C8DB5"/>
<path d="M12.5462 16.8613H11.6921C11.4974 16.8613 11.3396 17.0192 11.3396 17.2139C11.3396 17.4086 11.4974 17.5664 11.6921 17.5664H12.5462C12.7409 17.5664 12.8987 17.4086 12.8987 17.2139C12.8987 17.0192 12.7409 16.8613 12.5462 16.8613Z" fill="#7C8DB5"/>
<path d="M15.5738 16.8613H14.7197C14.525 16.8613 14.3672 17.0192 14.3672 17.2139C14.3672 17.4086 14.525 17.5664 14.7197 17.5664H15.5738C15.7685 17.5664 15.9264 17.4086 15.9264 17.2139C15.9264 17.0192 15.7685 16.8613 15.5738 16.8613Z" fill="#7C8DB5"/>
<path d="M18.9954 16.8613H17.353C17.1583 16.8613 17.0005 17.0192 17.0005 17.2139C17.0005 17.4086 17.1583 17.5664 17.353 17.5664H18.9954C19.1901 17.5664 19.3479 17.4086 19.3479 17.2139C19.3479 17.0192 19.1901 16.8613 18.9954 16.8613Z" fill="#7C8DB5"/>
</g>
<defs>
<clipPath id="clip0_463_1997">
<rect width="24" height="24" fill="white"/>
</clipPath>
</defs>
</svg>
