<svg width="24" height="24" viewBox="0 0 24 24" fill="none" xmlns="http://www.w3.org/2000/svg">
<g clip-path="url(#clip0_463_2029)">
<path d="M21.664 7.10654L18.686 6.52295" stroke="#7C8DB5" stroke-miterlimit="10" stroke-linecap="round" stroke-linejoin="round"/>
<path d="M16.1296 6.52295L13.1521 7.10654" stroke="#7C8DB5" stroke-miterlimit="10" stroke-linecap="round" stroke-linejoin="round"/>
<path d="M16.0664 5.10205L12.4102 5.81877" stroke="#7C8DB5" stroke-miterlimit="10" stroke-linecap="round" stroke-linejoin="round"/>
<path d="M18.7495 5.10205L22.3926 5.81643C22.3973 5.81689 22.4015 5.81783 22.4058 5.81877" stroke="#7C8DB5" stroke-miterlimit="10" stroke-linecap="round" stroke-linejoin="round"/>
<path d="M19.1517 3.53662L18.4617 4.69865" stroke="#7C8DB5" stroke-miterlimit="10" stroke-linecap="round" stroke-linejoin="round"/>
<path d="M16.3541 4.69865L15.6641 3.53662" stroke="#7C8DB5" stroke-miterlimit="10" stroke-linecap="round" stroke-linejoin="round"/>
<path d="M17.4081 7.24582C18.2318 7.24582 18.8996 6.57802 18.8996 5.75426C18.8996 4.93049 18.2318 4.2627 17.4081 4.2627C16.5843 4.2627 15.9165 4.93049 15.9165 5.75426C15.9165 6.57802 16.5843 7.24582 17.4081 7.24582Z" stroke="#7C8DB5" stroke-miterlimit="10" stroke-linecap="round" stroke-linejoin="round"/>
<path d="M13.1711 11.0625C13.0462 11.0625 12.9199 11.0293 12.8055 10.9595L11.6145 10.2327C11.3666 10.0814 11.2371 9.79321 11.2888 9.50737L11.8535 6.38385C11.9226 6.00173 12.2883 5.74781 12.6705 5.81704C13.0526 5.88613 13.3064 6.2519 13.2373 6.63403L12.7584 9.28331L13.538 9.75904C13.8695 9.96131 13.9743 10.394 13.772 10.7255C13.6395 10.9426 13.4081 11.0625 13.1711 11.0625Z" stroke="#7C8DB5" stroke-miterlimit="10" stroke-linecap="round" stroke-linejoin="round"/>
<path d="M23.4581 9.12352L23.5275 9.50742C23.5791 9.79289 23.4497 10.0812 23.2017 10.2326L22.0106 10.9591C21.8963 11.029 21.7697 11.0623 21.645 11.0623C21.4078 11.0623 21.1767 10.9427 21.0441 10.7252C20.842 10.3938 20.9466 9.96117 21.278 9.75914L22.058 9.28336L21.5789 6.63399C21.5095 6.25195 21.7636 5.88586 22.1456 5.81695C22.5277 5.74805 22.8938 6.00164 22.9627 6.38367L23.168 7.51899" stroke="#7C8DB5" stroke-miterlimit="10" stroke-linecap="round" stroke-linejoin="round"/>
<path d="M17.408 5.75439V5.73096" stroke="#7C8DB5" stroke-miterlimit="10" stroke-linecap="round" stroke-linejoin="round"/>
<path d="M21.2858 18.9233H2.71416C1.4093 18.9233 0.351562 19.9811 0.351562 21.2859C0.351562 22.5908 1.40934 23.6485 2.71416 23.6485H21.2858C22.5907 23.6485 23.6484 22.5907 23.6484 21.2859C23.6484 19.9811 22.5907 18.9233 21.2858 18.9233Z" stroke="#7C8DB5" stroke-miterlimit="10" stroke-linecap="round" stroke-linejoin="round"/>
<path d="M7.24505 20.3291H21.2859C21.8133 20.3291 22.2422 20.7585 22.2422 21.2858C22.2422 21.8132 21.8133 22.2421 21.2859 22.2421H2.71406C2.18672 22.2421 1.75781 21.8132 1.75781 21.2858C1.75781 20.7585 2.18672 20.3291 2.71406 20.3291H5.62692" stroke="#7C8DB5" stroke-miterlimit="10" stroke-linecap="round" stroke-linejoin="round"/>
<path d="M21.4722 13.9901L20.3813 13.8159C20.2481 13.4266 20.0407 13.0718 19.7757 12.7683L20.1703 11.7353C20.2406 11.5509 20.1667 11.3429 19.996 11.2443L19.2227 10.7974C19.0519 10.6988 18.8347 10.739 18.71 10.8921L18.0132 11.7499C17.8173 11.7118 17.6151 11.6915 17.408 11.6915C17.201 11.6915 16.9988 11.7118 16.8033 11.7499L16.1061 10.8921C15.9818 10.7391 15.7645 10.6988 15.5934 10.7974L14.8201 11.2443C14.6493 11.3429 14.5754 11.5508 14.6458 11.7353L15.0404 12.7683C14.7754 13.0718 14.5679 13.4266 14.4348 13.8159L13.3438 13.9901C13.1492 14.0216 13.0059 14.1897 13.0059 14.387V15.2797C13.0059 15.4775 13.1492 15.6456 13.3438 15.6765L14.4348 15.8513C14.5679 16.2406 14.7754 16.5954 15.0404 16.8988L14.6458 17.9318C14.5754 18.1158 14.6493 18.3242 14.8201 18.4229L15.5934 18.8692C15.7645 18.9679 15.9818 18.9281 16.1061 18.7745L16.8033 17.9168C16.9988 17.9553 17.201 17.9752 17.408 17.9752C17.6151 17.9752 17.8173 17.9553 18.0132 17.9168L18.71 18.7745C18.8347 18.9281 19.0519 18.9678 19.2227 18.8692L19.996 18.4229C20.1668 18.3242 20.2406 18.1158 20.1703 17.9318L19.7757 16.8988C20.0407 16.5954 20.2481 16.2406 20.3813 15.8513L21.4722 15.6765C21.6673 15.6455 21.8107 15.4774 21.8107 15.2797V14.387C21.8106 14.1896 21.6673 14.0216 21.4722 13.9901ZM17.408 16.3025C16.5967 16.3025 15.9389 15.6447 15.9389 14.8333C15.9389 14.022 16.5967 13.3642 17.408 13.3642C18.2193 13.3642 18.8772 14.022 18.8772 14.8333C18.8772 15.6446 18.2193 16.3025 17.408 16.3025Z" stroke="#7C8DB5" stroke-miterlimit="10" stroke-linecap="round" stroke-linejoin="round"/>
<path d="M10.5001 13.9901L9.40914 13.8159C9.27597 13.4266 9.0685 13.0718 8.80352 12.7683L9.19811 11.7353C9.26847 11.5509 9.19455 11.3429 9.02383 11.2443L8.25054 10.7974C8.07977 10.6988 7.86255 10.739 7.73782 10.8921L7.04107 11.7499C6.84508 11.7118 6.64291 11.6915 6.43586 11.6915C6.22882 11.6915 6.02664 11.7118 5.83113 11.7499L5.13391 10.8921C5.0096 10.7391 4.79238 10.6988 4.62119 10.7974L3.84789 11.2443C3.67713 11.3429 3.60325 11.5508 3.67361 11.7353L4.06821 12.7683C3.80322 13.0718 3.59575 13.4266 3.46258 13.8159L2.37166 13.9901C2.17699 14.0216 2.03369 14.1897 2.03369 14.387V15.2797C2.03369 15.4775 2.17704 15.6456 2.37166 15.6765L3.46258 15.8513C3.59575 16.2406 3.80322 16.5954 4.06821 16.8988L3.67361 17.9318C3.60325 18.1158 3.67718 18.3242 3.84789 18.4229L4.62119 18.8692C4.79238 18.9679 5.0096 18.9281 5.13391 18.7745L5.83113 17.9168C6.02664 17.9553 6.22882 17.9752 6.43586 17.9752C6.64291 17.9752 6.84508 17.9553 7.04107 17.9168L7.73782 18.7745C7.86255 18.9281 8.07977 18.9678 8.25054 18.8692L9.02383 18.4229C9.1946 18.3242 9.26847 18.1158 9.19811 17.9318L8.80352 16.8988C9.0685 16.5954 9.27597 16.2406 9.40914 15.8513L10.5001 15.6765C10.6952 15.6455 10.8385 15.4774 10.8385 15.2797V14.387C10.8385 14.1896 10.6952 14.0216 10.5001 13.9901ZM6.43591 16.3025C5.6246 16.3025 4.96675 15.6447 4.96675 14.8333C4.96675 14.022 5.6246 13.3642 6.43591 13.3642C7.24722 13.3642 7.90507 14.022 7.90507 14.8333C7.90507 15.6446 7.24722 16.3025 6.43591 16.3025Z" stroke="#7C8DB5" stroke-miterlimit="10" stroke-linecap="round" stroke-linejoin="round"/>
<path d="M20.4258 1.22168H23.6484V2.46949H20.513" stroke="#7C8DB5" stroke-miterlimit="10" stroke-linecap="round" stroke-linejoin="round"/>
<path d="M14.3901 1.22168H10.9187" stroke="#7C8DB5" stroke-miterlimit="10" stroke-linecap="round" stroke-linejoin="round"/>
<path d="M9.27816 1.22168H0.351562V2.46949H14.303" stroke="#7C8DB5" stroke-miterlimit="10" stroke-linecap="round" stroke-linejoin="round"/>
<path d="M15.812 3.54384C16.6935 3.54384 17.4081 2.82923 17.4081 1.9477C17.4081 1.06618 16.6935 0.351562 15.812 0.351562C14.9304 0.351562 14.2158 1.06618 14.2158 1.9477C14.2158 2.82923 14.9304 3.54384 15.812 3.54384Z" stroke="#7C8DB5" stroke-miterlimit="10" stroke-linecap="round" stroke-linejoin="round"/>
<path d="M19.0043 3.54384C19.8859 3.54384 20.6005 2.82923 20.6005 1.9477C20.6005 1.06618 19.8859 0.351562 19.0043 0.351562C18.1228 0.351562 17.4082 1.06618 17.4082 1.9477C17.4082 2.82923 18.1228 3.54384 19.0043 3.54384Z" stroke="#7C8DB5" stroke-miterlimit="10" stroke-linecap="round" stroke-linejoin="round"/>
<path d="M19.0042 1.94775V1.92432" stroke="#7C8DB5" stroke-miterlimit="10" stroke-linecap="round" stroke-linejoin="round"/>
<path d="M15.812 1.94775V1.92432" stroke="#7C8DB5" stroke-miterlimit="10" stroke-linecap="round" stroke-linejoin="round"/>
</g>
<defs>
<clipPath id="clip0_463_2029">
<rect width="24" height="24" fill="white"/>
</clipPath>
</defs>
</svg>
