<svg width="24" height="24" viewBox="0 0 24 24" fill="none" xmlns="http://www.w3.org/2000/svg">
<g clip-path="url(#clip0_463_1851)">
<path d="M19.1063 10.2563V6.39375C19.1063 6.28125 19.0312 6.15 18.9375 6.1125C18.6938 5.98125 12.975 2.90625 12.975 2.90625V1.18125C12.975 0.99375 12.825 0.8625 12.6562 0.84375H7.3125C7.125 0.84375 6.975 0.99375 6.975 1.18125V2.8875C6.975 2.8875 1.3125 5.94375 1.0125 6.09375C0.9375 6.13125 0.84375 6.24375 0.84375 6.375V22.8C0.84375 22.9875 0.99375 23.1187 1.1625 23.1375H22.8C22.9875 23.1375 23.1187 22.9875 23.1375 22.8187V14.6063C23.1375 12.3188 21.3938 10.425 19.1063 10.2563ZM22.4813 14.2687H15.0938C15.2812 12.225 17.0813 10.725 19.1063 10.8937C20.8875 11.0625 22.3125 12.4875 22.4813 14.2687ZM7.3875 3.4125H12.5625L17.475 6.05625H2.475L7.3875 3.4125ZM6.99375 12.8812V14.2875H4.44375V12.8812H6.99375ZM4.44375 12.225V10.8188H6.99375V12.225H4.44375ZM6.99375 14.925V16.3312H4.44375V14.925H6.99375ZM6.99375 16.9875V18.375H4.44375V16.9688L6.99375 16.9875ZM6.99375 10.1625H4.44375V8.75625H6.99375V10.1625ZM4.44375 19.0312H6.99375V20.4375H4.44375V19.0312ZM6.99375 6.7125V8.11875H4.44375V6.7125H6.99375ZM4.44375 21.0938H6.99375V22.5H4.44375V21.0938ZM7.65 6.7125H18.4688V10.2563C16.2 10.425 14.4375 12.3188 14.4375 14.6063V22.5H7.65V6.7125ZM12.3187 1.51875V2.775H7.63125V1.51875H12.3187ZM1.51875 6.7125H3.7875V22.4813H1.51875V6.7125ZM22.4813 22.4813H15.075V14.925H22.5V22.4813H22.4813Z" fill="#7C8DB5"/>
<path d="M21.2999 21.4688C21.4874 21.4688 21.6374 21.3188 21.6374 21.1313V18.8438C21.6374 18.6563 21.4874 18.5063 21.2999 18.5063C21.1124 18.5063 20.9624 18.6563 20.9624 18.8438V21.1313C20.9624 21.3188 21.1124 21.4688 21.2999 21.4688Z" fill="#7C8DB5"/>
<path d="M21.2999 17.9437C21.4874 17.9437 21.6187 17.7937 21.6374 17.6062V16.8937C21.6374 16.7062 21.4874 16.5562 21.2999 16.5562C21.1124 16.5562 20.9624 16.7062 20.9624 16.8937V17.6062C20.9624 17.7937 21.1124 17.9437 21.2999 17.9437Z" fill="#7C8DB5"/>
</g>
<defs>
<clipPath id="clip0_463_1851">
<rect width="24" height="24" fill="white"/>
</clipPath>
</defs>
</svg>
