<svg width="24" height="24" viewBox="0 0 24 24" fill="none" xmlns="http://www.w3.org/2000/svg">
<g clip-path="url(#clip0_463_1862)">
<path d="M22.8 4.8002H17.6V3.2002C17.5986 2.09609 16.7041 1.20156 15.6 1.2002H8.4C7.2959 1.20156 6.40137 2.09609 6.4 3.2002V4.8002H1.2C0.537305 4.8002 0 5.3375 0 6.0002V14.9041C0.00253906 15.4115 0.322266 15.8629 0.8 16.0334V21.6002C0.8 22.2629 1.3373 22.8002 2 22.8002H22C22.6627 22.8002 23.2 22.2629 23.2 21.6002V16.0338C23.6777 15.8631 23.9977 15.4115 24 14.9041V6.0002C24 5.3375 23.4627 4.8002 22.8 4.8002ZM7.2 3.2002C7.2 2.5375 7.7373 2.0002 8.4 2.0002H15.6C16.2627 2.0002 16.8 2.5375 16.8 3.2002V4.8002H16V3.2002C16 2.9793 15.8209 2.8002 15.6 2.8002H8.4C8.1791 2.8002 8 2.9793 8 3.2002V4.8002H7.2V3.2002ZM15.2 4.8002H8.8V3.6002H15.2V4.8002ZM22.4 21.6002C22.4 21.8211 22.2209 22.0002 22 22.0002H2C1.7791 22.0002 1.6 21.8211 1.6 21.6002V16.1709L10.4 17.3846V18.4002C10.4 19.0629 10.9373 19.6002 11.6 19.6002H12.4C13.0627 19.6002 13.6 19.0629 13.6 18.4002V17.3846L22.4 16.1709V21.6002ZM12.8 18.4002C12.8 18.6211 12.6209 18.8002 12.4 18.8002H11.6C11.3791 18.8002 11.2 18.6211 11.2 18.4002V16.0002C11.2 15.7793 11.3791 15.6002 11.6 15.6002H12.4C12.6209 15.6002 12.8 15.7793 12.8 16.0002V18.4002ZM23.2 14.9041C23.2002 15.1035 23.0535 15.2727 22.8561 15.3006L22.7451 15.3158L13.6 16.577V16.0002C13.6 15.3375 13.0627 14.8002 12.4 14.8002H11.6C10.9373 14.8002 10.4 15.3375 10.4 16.0002V16.577L1.14434 15.3006C0.946875 15.2729 0.799805 15.1037 0.8 14.9041V6.0002C0.8 5.7793 0.979102 5.60019 1.2 5.60019H22.8C23.0209 5.60019 23.2 5.7793 23.2 6.0002V14.9041Z" fill="#7C8DB5"/>
</g>
<defs>
<clipPath id="clip0_463_1862">
<rect width="24" height="24" fill="white"/>
</clipPath>
</defs>
</svg>
