<svg width="24" height="24" viewBox="0 0 24 24" fill="none" xmlns="http://www.w3.org/2000/svg">
<g clip-path="url(#clip0_463_1930)">
<mask id="mask0_463_1930" style="mask-type:luminance" maskUnits="userSpaceOnUse" x="0" y="0" width="24" height="24">
<path d="M0 1.90735e-06H24V24H0V1.90735e-06Z" fill="white"/>
</mask>
<g mask="url(#mask0_463_1930)">
<path d="M16.6916 23.6484H7.30829C7.05507 23.6484 6.84985 23.4432 6.84985 23.19C6.84985 22.232 7.62643 21.4553 8.58442 21.4553H15.4155C16.3735 21.4553 17.1501 22.232 17.1501 23.19C17.1501 23.4432 16.9448 23.6484 16.6916 23.6484Z" stroke="#7C8DB5" stroke-miterlimit="10" stroke-linecap="round" stroke-linejoin="round"/>
<path d="M22.5121 16.4868H1.48779" stroke="#7C8DB5" stroke-miterlimit="10" stroke-linecap="round" stroke-linejoin="round"/>
<path d="M9.84939 2.58789H7.16406" stroke="#7C8DB5" stroke-miterlimit="10" stroke-linecap="round" stroke-linejoin="round"/>
<path d="M22.512 4.93945V3.9127C22.512 3.18108 21.9189 2.58806 21.1873 2.58806H11.7319" stroke="#7C8DB5" stroke-miterlimit="10" stroke-linecap="round" stroke-linejoin="round"/>
<path d="M6.37109 2.58773H2.81248C2.0809 2.58773 1.48779 3.18074 1.48779 3.91237V17.6666C1.48779 18.3981 2.0809 18.9912 2.81248 18.9912H21.1874C21.919 18.9912 22.5121 18.3981 22.5121 17.6666V6.61359" stroke="#7C8DB5" stroke-miterlimit="10" stroke-linecap="round" stroke-linejoin="round"/>
<path d="M15.8337 11.7392L16.5804 12.4859C17.1005 13.006 17.9438 13.006 18.4638 12.4859V12.4859C18.984 11.9658 18.984 11.1225 18.4638 10.6024L17.6722 9.81071" stroke="#7C8DB5" stroke-miterlimit="10" stroke-linecap="round" stroke-linejoin="round"/>
<path d="M13.411 5.54944L12.632 4.77043C12.1565 4.29493 11.8533 3.67275 11.7793 3.00436C11.776 2.97361 11.7736 2.94727 11.7724 2.92646C11.7363 2.28254 11.4723 1.64893 10.9803 1.15697C10.2985 0.475129 9.33428 0.220739 8.45777 0.414567C8.22269 0.466504 8.13948 0.759473 8.30969 0.929676L9.62617 2.24616C10.0133 2.6333 10.0133 3.26096 9.62617 3.64805C9.23908 4.03514 8.61138 4.03514 8.22428 3.64805L6.9078 2.33161C6.73759 2.16136 6.44463 2.24461 6.39264 2.47964C6.19886 3.35616 6.45325 4.32043 7.13509 5.00227C7.62705 5.49422 8.26061 5.75818 8.90453 5.79427C8.92539 5.79544 8.95169 5.79783 8.98249 5.80125C9.62477 5.87232 10.2243 6.15507 10.6921 6.59897L10.6933 6.6001" stroke="#7C8DB5" stroke-miterlimit="10" stroke-linecap="round" stroke-linejoin="round"/>
<path d="M8.1791 10.3613C7.90221 10.6381 7.90221 11.0871 8.1791 11.364L11.7071 14.8919C11.9839 15.1688 12.4329 15.1688 12.7098 14.8919C12.9867 14.615 12.9867 14.1661 12.7098 13.8892L9.18185 10.3613C8.90496 10.0844 8.45599 10.0844 8.1791 10.3613Z" stroke="#7C8DB5" stroke-miterlimit="10" stroke-linecap="round" stroke-linejoin="round"/>
<path d="M12.6509 13.8306L13.4729 13.0086C13.5928 12.8887 13.7344 12.7927 13.8902 12.7256L14.9823 12.2558C15.536 11.9836 16.0412 11.6221 16.4774 11.1858L17.4583 10.2204C17.768 9.91079 17.759 9.40313 17.4313 9.10496C17.2629 8.95168 17.0428 8.89069 16.8301 8.91544C16.7993 8.91905 16.7684 8.90949 16.7467 8.88718L16.741 8.88122C16.707 8.84625 16.7044 8.79132 16.7352 8.75344C16.772 8.70807 16.8172 8.64929 16.8365 8.61179C16.9797 8.33386 16.9421 7.98418 16.7112 7.75271C16.4577 7.49864 16.1049 7.43532 15.815 7.57027C15.8039 7.57543 15.7793 7.58293 15.7694 7.57093C15.759 7.55846 15.7703 7.53666 15.777 7.52729C15.9887 7.23085 15.9793 6.81647 15.7239 6.54343C15.4857 6.28871 15.1183 6.23194 14.8243 6.37599C14.821 6.37763 14.7972 6.38949 14.789 6.3796C14.7762 6.36389 14.7979 6.34247 14.7979 6.34247L14.8755 6.26485C15.169 5.97132 15.1962 5.49305 14.9168 5.18607C14.6187 4.85855 14.11 4.85086 13.8004 5.16043L11.926 7.03182C11.9116 7.04625 11.8967 7.05947 11.8813 7.07171L11.8718 7.08118C11.6698 7.28311 11.3719 7.2773 11.17 7.07527L10.692 6.59879C10.2552 7.06121 9.99781 7.67541 10.073 8.30808L10.1526 8.97727C10.201 9.38452 10.06 9.79149 9.77005 10.0815L9.33594 10.5155" stroke="#7C8DB5" stroke-miterlimit="10" stroke-linecap="round" stroke-linejoin="round"/>
<path d="M5.4183 14.123L3.05444 16.4868" stroke="#7C8DB5" stroke-miterlimit="10" stroke-linecap="round" stroke-linejoin="round"/>
<path d="M8.17889 11.3642C8.17856 11.3639 8.17819 11.3635 8.17786 11.3632L6.59766 12.9434" stroke="#7C8DB5" stroke-miterlimit="10" stroke-linecap="round" stroke-linejoin="round"/>
<path d="M10.3977 16.4868L11.8702 15.0143" stroke="#7C8DB5" stroke-miterlimit="10" stroke-linecap="round" stroke-linejoin="round"/>
<path d="M10.2853 18.9911L9.64575 21.4551" stroke="#7C8DB5" stroke-miterlimit="10" stroke-linecap="round" stroke-linejoin="round"/>
<path d="M14.3542 21.4556L13.7146 18.9916" stroke="#7C8DB5" stroke-miterlimit="10" stroke-linecap="round" stroke-linejoin="round"/>
</g>
</g>
<defs>
<clipPath id="clip0_463_1930">
<rect width="24" height="24" fill="white"/>
</clipPath>
</defs>
</svg>
