<svg width="24" height="24" viewBox="0 0 24 24" fill="none" xmlns="http://www.w3.org/2000/svg">
<g clip-path="url(#clip0_463_1969)">
<path d="M22.8261 10.5263L21.2736 10.2675C21.1489 9.83359 20.9766 9.41479 20.7599 9.01875L21.6749 7.73625C21.8617 7.47702 21.9497 7.1595 21.9229 6.84108C21.896 6.52265 21.7562 6.22432 21.5286 6L21.3186 5.79C21.0941 5.56396 20.7962 5.42543 20.4787 5.39931C20.1611 5.37319 19.8446 5.46119 19.5861 5.6475L18.3074 6.5625C17.911 6.3464 17.4923 6.17413 17.0586 6.04875L16.7999 4.5C16.749 4.1857 16.5879 3.89981 16.3453 3.69363C16.1027 3.48745 15.7945 3.37448 15.4761 3.375H15.1724C14.854 3.37448 14.5459 3.48745 14.3032 3.69363C14.0606 3.89981 13.8995 4.1857 13.8486 4.5L13.7811 4.905C13.5674 4.875 13.7211 4.875 10.4999 4.875C10.4004 4.875 10.305 4.91451 10.2347 4.98484C10.1644 5.05516 10.1249 5.15055 10.1249 5.25C10.1249 5.34946 10.1644 5.44484 10.2347 5.51517C10.305 5.58549 10.4004 5.625 10.4999 5.625H13.4999C13.6988 5.625 13.8896 5.70402 14.0302 5.84467C14.1709 5.98532 14.2499 6.17609 14.2499 6.375V8.625C14.2499 8.82391 14.1709 9.01468 14.0302 9.15533C13.8896 9.29598 13.6988 9.375 13.4999 9.375H1.49988C1.30097 9.375 1.1102 9.29598 0.969549 9.15533C0.828897 9.01468 0.74988 8.82391 0.74988 8.625V6.375C0.74988 6.17609 0.828897 5.98532 0.969549 5.84467C1.1102 5.70402 1.30097 5.625 1.49988 5.625H7.12488C7.22434 5.625 7.31972 5.58549 7.39005 5.51517C7.46037 5.44484 7.49988 5.34946 7.49988 5.25C7.49988 5.15055 7.46037 5.05516 7.39005 4.98484C7.31972 4.91451 7.22434 4.875 7.12488 4.875H1.49988C1.10205 4.875 0.720524 5.03304 0.439219 5.31434C0.157915 5.59565 -0.000120439 5.97718 -0.000120439 6.375C-0.000120439 8.49 -0.17262 9.14625 0.51738 9.75C-0.16137 10.3425 -0.000120439 10.9013 -0.000120439 13.125C0.00108458 13.3386 0.0478745 13.5494 0.13712 13.7434C0.226365 13.9374 0.356009 14.1101 0.51738 14.25C-0.16137 14.8425 -0.000120439 15.4013 -0.000120439 17.625C-0.000120439 18.0228 0.157915 18.4044 0.439219 18.6857C0.720524 18.967 1.10205 19.125 1.49988 19.125C14.5199 19.125 13.5561 19.125 13.7811 19.095L13.8486 19.5C13.8995 19.8143 14.0606 20.1002 14.3032 20.3064C14.5459 20.5126 14.854 20.6255 15.1724 20.625H15.4761C15.7945 20.6255 16.1027 20.5126 16.3453 20.3064C16.5879 20.1002 16.749 19.8143 16.7999 19.5L17.0586 17.9475C17.4923 17.8221 17.911 17.6499 18.3074 17.4338C19.6949 18.4275 20.3249 19.2 21.5286 17.9963C21.7552 17.7722 21.8945 17.4746 21.9213 17.157C21.9481 16.8394 21.8607 16.5227 21.6749 16.2638L20.7599 15C20.9766 14.604 21.1489 14.1852 21.2736 13.7513L22.8261 13.4925C23.1408 13.4424 23.4271 13.2814 23.6334 13.0386C23.8397 12.7959 23.9524 12.4873 23.9511 12.1688V11.8688C23.9569 11.547 23.8463 11.2339 23.6396 10.9872C23.4329 10.7405 23.144 10.5768 22.8261 10.5263ZM14.9436 9C15.3658 8.95273 15.7931 8.99508 16.1978 9.12428C16.6024 9.25349 16.9752 9.46663 17.2919 9.74979C17.6085 10.0329 17.8618 10.3797 18.0352 10.7675C18.2087 11.1552 18.2983 11.5752 18.2983 12C18.2983 12.4248 18.2087 12.8448 18.0352 13.2325C17.8618 13.6203 17.6085 13.9671 17.2919 14.2502C16.9752 14.5334 16.6024 14.7465 16.1978 14.8757C15.7931 15.0049 15.3658 15.0473 14.9436 15C14.8697 14.7089 14.7088 14.4473 14.4824 14.25C14.6437 14.1101 14.7734 13.9374 14.8626 13.7434C14.9519 13.5494 14.9987 13.3386 14.9999 13.125C14.9999 11.01 15.1724 10.3538 14.4824 9.75C14.7088 9.55269 14.8697 9.29107 14.9436 9ZM0.74988 13.125V10.875C0.74988 10.6761 0.828897 10.4853 0.969549 10.3447C1.1102 10.204 1.30097 10.125 1.49988 10.125H13.4999C13.6988 10.125 13.8896 10.204 14.0302 10.3447C14.1709 10.4853 14.2499 10.6761 14.2499 10.875V13.125C14.2499 13.3239 14.1709 13.5147 14.0302 13.6553C13.8896 13.796 13.6988 13.875 13.4999 13.875H1.49988C1.30097 13.875 1.1102 13.796 0.969549 13.6553C0.828897 13.5147 0.74988 13.3239 0.74988 13.125ZM1.49988 18.375C1.30097 18.375 1.1102 18.296 0.969549 18.1553C0.828897 18.0147 0.74988 17.8239 0.74988 17.625V15.375C0.74988 15.1761 0.828897 14.9853 0.969549 14.8447C1.1102 14.704 1.30097 14.625 1.49988 14.625H13.4999C13.6988 14.625 13.8896 14.704 14.0302 14.8447C14.1709 14.9853 14.2499 15.1761 14.2499 15.375V17.625C14.2499 17.8239 14.1709 18.0147 14.0302 18.1553C13.8896 18.296 13.6988 18.375 13.4999 18.375H1.49988ZM23.1974 12.15C23.2011 12.2929 23.1531 12.4323 23.0621 12.5426C22.9712 12.6529 22.8434 12.7265 22.7024 12.75C20.8274 13.065 20.6924 13.0163 20.6136 13.3275C20.0361 15.675 19.2749 14.2088 21.0636 16.7025C21.1415 16.8155 21.1778 16.9521 21.1661 17.0889C21.1545 17.2257 21.0958 17.3542 20.9999 17.4525L20.7899 17.6663C20.6913 17.7615 20.5628 17.8198 20.4262 17.8314C20.2896 17.843 20.1532 17.8072 20.0399 17.73C18.5136 16.635 18.4386 16.4925 18.1649 16.6613C16.0649 17.9063 16.5861 16.3238 16.0836 19.365C16.0618 19.5094 15.988 19.6408 15.8762 19.7347C15.7643 19.8286 15.6221 19.8785 15.4761 19.875H15.1724C15.0324 19.8737 14.8974 19.8235 14.7906 19.7331C14.6837 19.6427 14.6119 19.5178 14.5874 19.38L14.4899 18.7875C14.492 18.7764 14.492 18.7649 14.4899 18.7538C15.1499 18.1725 14.9999 17.625 14.9999 15.75C15.9944 15.75 16.9483 15.3549 17.6515 14.6517C18.3548 13.9484 18.7499 12.9946 18.7499 12C18.7499 11.0054 18.3548 10.0516 17.6515 9.34835C16.9483 8.64509 15.9944 8.25 14.9999 8.25C14.9999 6.4575 15.1536 5.83875 14.4786 5.25C14.4802 5.23881 14.4802 5.22745 14.4786 5.21625L14.5761 4.6275C14.5994 4.48644 14.6722 4.35832 14.7815 4.26619C14.8908 4.17406 15.0294 4.124 15.1724 4.125H15.4761C15.6161 4.12634 15.7511 4.17655 15.8579 4.26694C15.9648 4.35733 16.0366 4.48222 16.0611 4.62C16.3461 6.345 16.3124 6.63 16.6386 6.70875C18.9824 7.28625 17.4974 8.0625 20.0136 6.2625C20.1263 6.18411 20.2626 6.14723 20.3994 6.15818C20.5362 6.16912 20.6649 6.2272 20.7636 6.3225L20.9736 6.53625C21.0695 6.63452 21.1283 6.76303 21.1399 6.89983C21.1515 7.03662 21.1153 7.17321 21.0374 7.28625C19.2486 9.79125 20.0136 8.3325 20.5874 10.6613C20.6661 10.98 20.8611 10.935 22.6761 11.2388C22.8146 11.2618 22.9403 11.3333 23.0309 11.4405C23.1216 11.5476 23.1713 11.6834 23.1711 11.8238L23.1974 12.15Z" fill="#7C8DB5"/>
<path d="M8.625 5.625H9C9.09946 5.625 9.19484 5.58549 9.26517 5.51516C9.33549 5.44484 9.375 5.34946 9.375 5.25C9.375 5.15054 9.33549 5.05516 9.26517 4.98484C9.19484 4.91451 9.09946 4.875 9 4.875H8.625C8.52554 4.875 8.43016 4.91451 8.35983 4.98484C8.28951 5.05516 8.25 5.15054 8.25 5.25C8.25 5.34946 8.28951 5.44484 8.35983 5.51516C8.43016 5.58549 8.52554 5.625 8.625 5.625Z" fill="#7C8DB5"/>
<path d="M2.625 17.25C3.03921 17.25 3.375 16.9142 3.375 16.5C3.375 16.0858 3.03921 15.75 2.625 15.75C2.21079 15.75 1.875 16.0858 1.875 16.5C1.875 16.9142 2.21079 17.25 2.625 17.25Z" fill="#7C8DB5"/>
<path d="M4.875 17.25C5.28921 17.25 5.625 16.9142 5.625 16.5C5.625 16.0858 5.28921 15.75 4.875 15.75C4.46079 15.75 4.125 16.0858 4.125 16.5C4.125 16.9142 4.46079 17.25 4.875 17.25Z" fill="#7C8DB5"/>
<path d="M2.625 8.25C3.03921 8.25 3.375 7.91421 3.375 7.5C3.375 7.08579 3.03921 6.75 2.625 6.75C2.21079 6.75 1.875 7.08579 1.875 7.5C1.875 7.91421 2.21079 8.25 2.625 8.25Z" fill="#7C8DB5"/>
<path d="M4.875 8.25C5.28921 8.25 5.625 7.91421 5.625 7.5C5.625 7.08579 5.28921 6.75 4.875 6.75C4.46079 6.75 4.125 7.08579 4.125 7.5C4.125 7.91421 4.46079 8.25 4.875 8.25Z" fill="#7C8DB5"/>
<path d="M2.625 12.75C3.03921 12.75 3.375 12.4142 3.375 12C3.375 11.5858 3.03921 11.25 2.625 11.25C2.21079 11.25 1.875 11.5858 1.875 12C1.875 12.4142 2.21079 12.75 2.625 12.75Z" fill="#7C8DB5"/>
<path d="M4.875 12.75C5.28921 12.75 5.625 12.4142 5.625 12C5.625 11.5858 5.28921 11.25 4.875 11.25C4.46079 11.25 4.125 11.5858 4.125 12C4.125 12.4142 4.46079 12.75 4.875 12.75Z" fill="#7C8DB5"/>
</g>
<defs>
<clipPath id="clip0_463_1969">
<rect width="24" height="24" fill="white"/>
</clipPath>
</defs>
</svg>
