<svg width="24" height="24" viewBox="0 0 24 24" fill="none" xmlns="http://www.w3.org/2000/svg">
<g clip-path="url(#clip0_463_1984)">
<path d="M11.5079 16.7889C12.8373 16.7889 14.0317 15.9482 14.48 14.6969C14.5455 14.5141 14.4504 14.3129 14.2676 14.2474C14.0847 14.1819 13.8836 14.277 13.8181 14.4598C13.4696 15.4323 12.5413 16.0858 11.5079 16.0858C10.1551 16.0858 9.0544 14.9851 9.0544 13.6322C9.0544 12.2793 10.155 11.1787 11.5079 11.1787C12.631 11.1787 13.6086 11.9377 13.8855 13.0245C13.9334 13.2126 14.1248 13.3263 14.313 13.2784C14.5011 13.2304 14.6148 13.0391 14.5669 12.8509C14.2106 11.4524 12.9527 10.4756 11.508 10.4756C9.76741 10.4756 8.35132 11.8916 8.35132 13.6322C8.35132 15.3729 9.76737 16.7889 11.5079 16.7889Z" fill="#7C8DB5"/>
<path d="M11.5078 11.8564C10.5289 11.8564 9.73242 12.6529 9.73242 13.6318C9.73242 14.6108 10.5289 15.4072 11.5078 15.4072C12.4868 15.4072 13.2832 14.6108 13.2832 13.6318C13.2832 12.6529 12.4868 11.8564 11.5078 11.8564ZM11.5078 14.7041C10.9166 14.7041 10.4355 14.2231 10.4355 13.6318C10.4355 13.0406 10.9166 12.5596 11.5078 12.5596C12.099 12.5596 12.5801 13.0406 12.5801 13.6318C12.5801 14.2231 12.099 14.7041 11.5078 14.7041Z" fill="#7C8DB5"/>
<path d="M21.2809 13.3031L20.215 13.2848C20.2115 13.2848 20.2081 13.2847 20.2046 13.2847C19.8819 13.2847 19.6135 13.5443 19.6042 13.8681C19.5432 15.9892 18.6656 17.9731 17.1331 19.4543C15.612 20.9244 13.6166 21.7318 11.508 21.7318C11.487 21.7318 11.4657 21.7317 11.4446 21.7315C7.11278 21.6983 3.55 18.1995 3.41238 13.8916C3.50791 13.9169 3.60813 13.9306 3.71154 13.9306H3.71632L3.92266 14.8866C4.02616 15.366 4.45718 15.7139 4.94754 15.7139H5.8323C6.265 15.7139 6.64971 15.4447 6.80636 15.0529H6.93054C7.01725 15.3328 7.13004 15.6053 7.26635 15.8641L6.32777 16.8026C6.09996 17.0304 6.07572 17.3943 6.27143 17.6491C6.62299 18.1067 7.03324 18.5169 7.49083 18.8685C7.74555 19.0642 8.10939 19.04 8.33725 18.8122L9.27583 17.8736C9.53463 18.0098 9.80707 18.1227 10.087 18.2094V19.5373C10.087 19.8596 10.3271 20.134 10.6455 20.1756C10.9303 20.2129 11.2205 20.2318 11.5079 20.2318C11.7953 20.2318 12.0855 20.2129 12.3702 20.1756C12.6886 20.1339 12.9288 19.8595 12.9288 19.5373V18.2094C13.2087 18.1227 13.4812 18.0099 13.7399 17.8736L14.6785 18.8122C14.9063 19.04 15.2702 19.0642 15.525 18.8685C15.9826 18.5169 16.3929 18.1067 16.7443 17.6491C16.9401 17.3943 16.9158 17.0304 16.688 16.8027L15.7495 15.8641C15.8858 15.6053 15.9986 15.3328 16.0853 15.0529H17.4132C17.7354 15.0529 18.0098 14.8128 18.0515 14.4943C18.0888 14.2096 18.1076 13.9195 18.1076 13.632C18.1076 13.3444 18.0888 13.0543 18.0515 12.7696C18.0098 12.4512 17.7354 12.211 17.4132 12.211H16.0853C15.9986 11.9312 15.8858 11.6588 15.7495 11.4L16.688 10.4613C16.9158 10.2335 16.94 9.86963 16.7444 9.61491C16.3928 9.15727 15.9826 8.74697 15.525 8.39546C15.2702 8.1998 14.9063 8.22399 14.6786 8.4518L13.74 9.39038C13.4812 9.25407 13.2087 9.14128 12.9288 9.05457V7.72664C12.9288 7.40447 12.6887 7.13002 12.3702 7.08835C11.8009 7.01382 11.2149 7.01382 10.6455 7.08835C10.3271 7.13007 10.0869 7.40447 10.0869 7.72664V9.05457C9.80711 9.14124 9.53463 9.25402 9.27579 9.39038L8.55907 8.67371C9.48593 7.89 10.08 6.81357 10.2503 5.62955C10.6626 5.56538 11.0826 5.53224 11.5078 5.53224H18.3555V5.98032C18.3555 6.16796 18.4583 6.33957 18.6236 6.42816C18.789 6.51675 18.9888 6.50724 19.145 6.40332L21.5231 4.82119C21.665 4.72678 21.7497 4.56863 21.7497 4.39819C21.7497 4.22775 21.665 4.0696 21.5231 3.97519L19.145 2.39302C18.9888 2.2891 18.789 2.27958 18.6236 2.36822C18.4582 2.45682 18.3555 2.62843 18.3555 2.81602V3.2641H11.5945C11.0754 3.2641 10.5617 3.30343 10.0562 3.37866C9.81527 2.64493 9.40127 1.974 8.83446 1.41544C7.88894 0.483613 6.63635 -0.0184651 5.30805 0.00051931C4.04027 0.0190349 2.84032 0.524629 1.9293 1.42425C1.0181 2.32402 0.497598 3.51746 0.46366 4.78482C0.421941 6.3428 1.12999 7.84139 2.35858 8.79971C1.56339 10.2742 1.14077 11.9211 1.13997 13.6268C1.13861 16.393 2.21763 18.9967 4.17827 20.9582C6.13886 22.9198 8.74188 24 11.5079 24C13.8883 24 16.2154 23.1692 18.0604 21.6607C18.2108 21.5378 18.233 21.3163 18.1101 21.166C17.9872 21.0157 17.7657 20.9935 17.6154 21.1163C15.8956 22.5225 13.7266 23.2969 11.5079 23.2969C8.92975 23.2969 6.50332 22.2898 4.67557 20.4612C2.84772 18.6326 1.84179 16.2055 1.8431 13.6272C1.84385 12.1419 2.18941 10.7047 2.84027 9.40097C2.86999 9.46547 2.89666 9.53208 2.9186 9.60141L3.09011 10.1442C2.76246 10.3511 2.54421 10.7163 2.54421 11.1316C2.54421 11.4443 2.66796 11.7284 2.86877 11.9381C2.86722 11.946 2.86554 11.9539 2.86399 11.9618C2.66599 12.1711 2.54421 12.4531 2.54421 12.7633C2.54421 12.9819 2.60477 13.1867 2.70982 13.3618C2.70639 13.4745 2.70443 13.5874 2.70532 13.7007C2.72308 16.0169 3.64108 18.2006 5.29029 19.8498C6.93944 21.4989 9.12321 22.4169 11.4393 22.4348C11.4624 22.4349 11.4852 22.435 11.5082 22.435C13.8 22.4349 15.9688 21.5575 17.6218 19.9599C19.2628 18.374 20.2128 16.2572 20.3036 13.9896L21.1657 14.0044C21.0809 16.2178 20.2275 18.3496 18.7562 20.0176C18.6278 20.1632 18.6417 20.3854 18.7873 20.5139C18.933 20.6423 19.1551 20.6284 19.2835 20.4828C20.8863 18.6657 21.8055 16.3354 21.8719 13.921C21.8764 13.7593 21.8172 13.6059 21.7054 13.4889C21.5934 13.3719 21.4427 13.3059 21.2809 13.3031ZM3.24729 11.1316C3.24729 10.8757 3.45555 10.6674 3.71154 10.6674H7.05138C7.30736 10.6674 7.51563 10.8757 7.51563 11.1316C7.51563 11.3876 7.30736 11.5959 7.05138 11.5959H3.71154C3.45555 11.5959 3.24729 11.3876 3.24729 11.1316ZM5.38141 5.72222C4.93882 5.72222 4.57872 5.36213 4.57872 4.91953C4.57872 4.47694 4.93882 4.11685 5.38141 4.11685C5.824 4.11685 6.1841 4.47694 6.1841 4.91953C6.1841 5.36213 5.82405 5.72222 5.38141 5.72222ZM7.51558 12.7633C7.51558 13.0193 7.30732 13.2275 7.05133 13.2275H3.71149C3.4555 13.2275 3.24724 13.0193 3.24724 12.7633C3.24724 12.5073 3.4555 12.299 3.71149 12.299H7.05133C7.30732 12.299 7.51558 12.5073 7.51558 12.7633ZM5.8323 15.0108H4.94754C4.786 15.0108 4.64402 14.8962 4.60994 14.7383L4.43561 13.9306H6.33771L6.17046 14.7357C6.13732 14.8951 5.9951 15.0108 5.8323 15.0108ZM9.57119 10.0298C9.81218 9.90005 10.0676 9.79435 10.3301 9.7156C10.6052 9.63314 10.79 9.3855 10.79 9.09933V7.77891C11.2648 7.72121 11.751 7.72121 12.2257 7.77891V9.09933C12.2257 9.3855 12.4105 9.63314 12.6855 9.7156C12.9482 9.79435 13.2035 9.90005 13.4445 10.0298C13.6974 10.166 14.0032 10.1215 14.2055 9.91922L15.1388 8.98594C15.5169 9.28186 15.858 9.62292 16.154 10.0011L15.2207 10.9344C15.0184 11.1367 14.974 11.4425 15.1101 11.6954C15.2399 11.9364 15.3456 12.1917 15.4243 12.4544C15.5068 12.7294 15.7544 12.9143 16.0406 12.9143H17.361C17.3899 13.1516 17.4045 13.3928 17.4045 13.6321C17.4045 13.8713 17.3899 14.1125 17.361 14.3498H16.0406C15.7544 14.3498 15.5068 14.5347 15.4243 14.8097C15.3456 15.0723 15.2399 15.3277 15.1101 15.5687C14.974 15.8216 15.0184 16.1274 15.2207 16.3297L16.154 17.263C15.8581 17.6411 15.5169 17.9822 15.1389 18.2782L14.2055 17.3449C14.0033 17.1426 13.6974 17.0981 13.4445 17.2343C13.2036 17.364 12.9483 17.4697 12.6855 17.5485C12.4105 17.631 12.2257 17.8786 12.2257 18.1648V19.4852C11.7507 19.5429 11.2651 19.5429 10.79 19.4852V18.1648C10.79 17.8786 10.6053 17.631 10.3302 17.5485C10.0675 17.4697 9.81208 17.364 9.57115 17.2343C9.3183 17.0982 9.01244 17.1426 8.81013 17.3449L7.87685 18.2782C7.49875 17.9822 7.15764 17.6411 6.86172 17.263L7.795 16.3297C7.99727 16.1274 8.04175 15.8216 7.90558 15.5687C7.77588 15.3278 7.67018 15.0724 7.59138 14.8097C7.50888 14.5346 7.26124 14.3498 6.97511 14.3498H6.96869L7.05583 13.9305C7.69746 13.928 8.21871 13.4054 8.21871 12.7632C8.21871 12.446 8.09135 12.158 7.88524 11.9474C8.09135 11.7368 8.21871 11.4488 8.21871 11.1316C8.21871 10.7162 8.00046 10.3511 7.6728 10.1441L7.84779 9.59039C7.89532 9.44002 7.96633 9.29775 8.05769 9.16664L8.81018 9.91913C9.01254 10.1215 9.31835 10.166 9.57119 10.0298ZM11.5945 3.96727H18.6028C18.8542 3.96727 19.0587 3.76275 19.0587 3.51136V3.18014L20.8896 4.39824L19.0587 5.61633V5.28507C19.0587 5.03368 18.8542 4.82916 18.6028 4.82916H11.5079C11.1006 4.82916 10.6976 4.85719 10.3009 4.91152C10.3004 4.62432 10.2757 4.34105 10.2274 4.06402C10.6771 4.00041 11.1335 3.96727 11.5945 3.96727ZM1.1665 4.80361C1.19557 3.71864 1.64191 2.69616 2.42332 1.92455C3.20463 1.15303 4.23279 0.719394 5.31827 0.703551C6.45691 0.688316 7.53054 1.1176 8.34091 1.91625C9.15147 2.7151 9.59786 3.78164 9.59786 4.91958C9.59786 6.22472 9.00729 7.43541 7.97763 8.24119C7.59447 8.54105 7.31772 8.93438 7.17733 9.37861L6.99227 9.96432H5.73297V7.89914C6.89768 7.76405 7.88172 6.96464 8.2421 5.82474C8.30064 5.63963 8.19804 5.4421 8.01288 5.38355C7.82772 5.32491 7.63019 5.42766 7.57169 5.61277C7.30432 6.45839 6.58854 7.0591 5.73297 7.1896V6.38349C6.39419 6.22468 6.88722 5.6288 6.88722 4.91953C6.88722 4.08924 6.21171 3.41372 5.38141 3.41372C4.55111 3.41372 3.8756 4.08924 3.8756 4.91953C3.8756 5.62875 4.36863 6.22463 5.02985 6.38344V7.1895C3.92964 7.01977 3.08454 6.06652 3.08454 4.91953C3.08454 3.65302 4.11494 2.62261 5.38146 2.62261C6.37005 2.62261 7.24525 3.25243 7.55922 4.18974C7.62091 4.37386 7.82008 4.47305 8.00425 4.41141C8.18838 4.34972 8.28761 4.1505 8.22593 3.96638C7.81577 2.74205 6.67268 1.91949 5.38141 1.91949C3.72719 1.91949 2.38136 3.26532 2.38136 4.91953C2.38136 6.45474 3.54077 7.72355 5.0298 7.89825V9.96422H3.7706L3.589 9.38953C3.44454 8.93241 3.17496 8.54175 2.80933 8.25985C1.74466 7.43902 1.13055 6.14696 1.1665 4.80361Z" fill="#7C8DB5"/>
<path d="M23.4563 9.41797L22.332 7.47078C22.223 7.28188 22.0198 7.16455 21.8017 7.16455H19.5532C19.3352 7.16455 19.1319 7.28188 19.0229 7.47074L17.8987 9.41793C17.7896 9.60683 17.7896 9.84149 17.8987 10.0303L19.0229 11.9776C19.132 12.1664 19.3352 12.2838 19.5532 12.2838H21.8017C22.0198 12.2838 22.2231 12.1664 22.332 11.9775L23.4563 10.0303C23.5653 9.84149 23.5653 9.60683 23.4563 9.41797ZM21.7493 11.5807H19.6056L18.5338 9.72421L19.6056 7.86772H21.7493L22.8211 9.72421L21.7493 11.5807Z" fill="#7C8DB5"/>
<path d="M20.6774 8.39014C19.9418 8.39014 19.3433 8.98864 19.3433 9.72429C19.3433 10.4599 19.9418 11.0584 20.6774 11.0584C21.4131 11.0584 22.0116 10.4599 22.0116 9.72429C22.0116 8.98864 21.4131 8.39014 20.6774 8.39014ZM20.6774 10.3553C20.3295 10.3553 20.0464 10.0722 20.0464 9.72429C20.0464 9.37634 20.3295 9.09326 20.6774 9.09326C21.0254 9.09326 21.3084 9.37634 21.3084 9.72429C21.3084 10.0722 21.0254 10.3553 20.6774 10.3553Z" fill="#7C8DB5"/>
</g>
<defs>
<clipPath id="clip0_463_1984">
<rect width="24" height="24" fill="white"/>
</clipPath>
</defs>
</svg>
