<svg width="22" height="22" viewBox="0 0 22 22" fill="none" xmlns="http://www.w3.org/2000/svg">
<g clip-path="url(#clip0_463_2349)">
<path d="M12.0646 11.7095H11.3549V12.4192H10.6453V13.1288H11.3549V13.8385H12.0646V13.1288H12.7743V12.4192H12.0646V11.7095Z" fill="white"/>
<path d="M22 6.74194V3.19355H20.2258V1.85788L21.1548 0H17.1677L18.0968 1.85788V3.19355H17.1898C16.9436 2.77131 16.4908 2.48387 15.9677 2.48387H10.2903C9.50753 2.48387 8.87097 3.12043 8.87097 3.90323H7.09677V2.48387H1.77419C0.795961 2.48387 0 3.27983 0 4.25806V4.6129H3.90323V5.32258H0V5.67742C0 6.65565 0.795961 7.45161 1.77419 7.45161H7.09677V6.03226H8.87097C8.87097 6.81505 9.50753 7.45161 10.2903 7.45161H10.5175L9.34293 11.2109C9.04527 11.6593 8.87097 12.1965 8.87097 12.7742C8.87097 14.3394 10.1444 15.6129 11.7097 15.6129C11.8498 15.6129 11.9867 15.5994 12.1217 15.5795L12.6961 18.4516H12.2L11.4903 19.871H10.6452V22H22V19.871H21.1548L20.4452 18.4516H19.871V15.7669L14.6016 12.6053L15.8896 7.45161H15.9677C16.4908 7.45161 16.9436 7.16417 17.1898 6.74194H18.0968V7.72277L17.1677 9.58065H21.1548L20.2258 7.72277V6.74194H22ZM0.770319 3.90323C0.916898 3.49017 1.31141 3.19355 1.77419 3.19355H6.3871V3.90323H0.770319ZM6.3871 6.74194H1.77419C1.31141 6.74194 0.916898 6.44531 0.770319 6.03226H6.3871V6.74194ZM7.09677 5.32258H4.6129V4.6129H8.87097V5.32258H7.09677ZM9.58065 12.7742C9.58065 11.6 10.5355 10.6452 11.7097 10.6452C12.8839 10.6452 13.8387 11.6 13.8387 12.7742C13.8387 13.9484 12.8839 14.9032 11.7097 14.9032C10.5355 14.9032 9.58065 13.9484 9.58065 12.7742ZM14.486 13.3636L16.8297 14.7698L13.0339 16.5217L12.808 15.3915C13.6538 15.0353 14.2914 14.2805 14.486 13.3636ZM17.5151 15.1811L18.7479 15.921L13.3898 18.3023L13.1769 17.2374L17.5358 15.2258L17.5151 15.1811ZM21.2903 21.2903H11.3548V20.5806H21.2903V21.2903ZM20.3613 19.871H12.2839L12.6387 19.1613H20.0065L20.3613 19.871ZM14.801 18.4516L19.1613 16.5139V18.4516H14.801ZM14.1773 11.3765C13.6887 10.5175 12.7667 9.93548 11.7097 9.93548C11.2296 9.93548 10.7775 10.0561 10.3808 10.2676L11.2608 7.45161H15.1588L14.1773 11.3765ZM16.6774 6.03226C16.6774 6.42366 16.3591 6.74194 15.9677 6.74194H10.2903C9.89893 6.74194 9.58065 6.42366 9.58065 6.03226V3.90323C9.58065 3.51183 9.89893 3.19355 10.2903 3.19355H15.9677C16.3591 3.19355 16.6774 3.51183 16.6774 3.90323V6.03226ZM20.0065 0.709677L19.6516 1.41935H18.671L18.3161 0.709677H20.0065ZM18.8065 2.12903H19.5161V3.19355H18.8065V2.12903ZM21.2903 3.90323V4.6129H17.3871V3.90323H21.2903ZM17.3871 5.32258H21.2903V6.03226H17.3871V5.32258ZM18.3161 8.87097L18.671 8.16129H19.6516L20.0065 8.87097H18.3161ZM19.5161 7.45161H18.8065V6.74194H19.5161V7.45161Z" fill="white"/>
<path d="M11.7098 3.90332C11.1229 3.90332 10.6453 4.381 10.6453 4.96784C10.6453 5.55467 11.1229 6.03235 11.7098 6.03235C12.2966 6.03235 12.7743 5.55467 12.7743 4.96784C12.7743 4.381 12.2966 3.90332 11.7098 3.90332ZM11.7098 5.32268C11.514 5.32268 11.3549 5.16328 11.3549 4.96784C11.3549 4.7724 11.514 4.613 11.7098 4.613C11.9056 4.613 12.0646 4.7724 12.0646 4.96784C12.0646 5.16328 11.9056 5.32268 11.7098 5.32268Z" fill="white"/>
<path d="M14.5484 3.90332C13.9616 3.90332 13.4839 4.381 13.4839 4.96784C13.4839 5.55467 13.9616 6.03235 14.5484 6.03235C15.1352 6.03235 15.6129 5.55467 15.6129 4.96784C15.6129 4.381 15.1352 3.90332 14.5484 3.90332ZM14.5484 5.32268C14.3526 5.32268 14.1936 5.16328 14.1936 4.96784C14.1936 4.7724 14.3526 4.613 14.5484 4.613C14.7442 4.613 14.9032 4.7724 14.9032 4.96784C14.9032 5.16328 14.7442 5.32268 14.5484 5.32268Z" fill="white"/>
<path d="M7.42614 16.1499L8.00016 15.4622L6.53783 13.9995L5.85016 14.5739C5.69579 14.4963 5.53621 14.4302 5.37196 14.376L5.29209 13.4839H3.22404L3.14382 14.3764C2.97957 14.4306 2.81982 14.4966 2.66562 14.5744L1.97795 13.9999L0.515625 15.4625L1.08964 16.1502C1.01202 16.3042 0.946006 16.4638 0.891775 16.6281L0 16.7079V18.776L0.892468 18.8562C0.946352 19.0201 1.01271 19.1802 1.09051 19.334L0.516318 20.0217L1.97864 21.4844L2.66632 20.91C2.82069 20.9877 2.98026 21.0537 3.14452 21.1079L3.22404 22H5.29209L5.37231 21.1075C5.53656 21.0533 5.69631 20.9873 5.85051 20.9095L6.53818 21.484L8.0005 20.0214L7.42649 19.3337C7.50411 19.1797 7.57012 19.0201 7.62435 18.8558L8.51613 18.776V16.7079L7.62366 16.6277C7.56978 16.4635 7.50342 16.3037 7.42614 16.1499ZM7.80645 18.1273L7.06871 18.1936L7.00703 18.4378C6.93997 18.7042 6.83463 18.9588 6.6936 19.1939L6.56452 19.4101L7.0396 19.9789L6.49504 20.5238L5.92588 20.0484L5.70999 20.1775C5.47522 20.318 5.2207 20.4235 4.95353 20.4909L4.70941 20.5526L4.6434 21.2903H3.87273L3.80637 20.5526L3.56225 20.4909C3.29508 20.4235 3.04056 20.318 2.80579 20.1775L2.59025 20.0484L2.02109 20.5235L1.47653 19.9786L1.95161 19.4101L1.82253 19.1939C1.68202 18.9588 1.5765 18.7042 1.5091 18.4378L1.44742 18.1936L0.709677 18.1273V17.3566L1.44742 17.2903L1.5091 17.0461C1.57616 16.7797 1.6815 16.5251 1.82253 16.29L1.95161 16.0738L1.47653 15.505L2.02109 14.9601L2.59025 15.4355L2.80614 15.3064C3.04091 15.1659 3.29543 15.0604 3.56259 14.993L3.80672 14.9313L3.87273 14.1936H4.6434L4.70976 14.9313L4.95388 14.993C5.22105 15.0604 5.47557 15.1659 5.71034 15.3064L5.92588 15.4355L6.49504 14.9604L7.0396 15.5053L6.56452 16.0738L6.6936 16.29C6.83411 16.5251 6.93963 16.7797 7.00703 17.0461L7.06871 17.2903L7.80645 17.3566V18.1273Z" fill="white"/>
<path d="M4.25818 15.6128C3.08399 15.6128 2.12915 16.5676 2.12915 17.7418C2.12915 18.916 3.08399 19.8709 4.25818 19.8709C5.43237 19.8709 6.38722 18.916 6.38722 17.7418C6.38722 16.5676 5.43237 15.6128 4.25818 15.6128ZM4.25818 19.1612C3.47539 19.1612 2.83883 18.5246 2.83883 17.7418C2.83883 16.959 3.47539 16.3225 4.25818 16.3225C5.04098 16.3225 5.67754 16.959 5.67754 17.7418C5.67754 18.5246 5.04098 19.1612 4.25818 19.1612Z" fill="white"/>
<path d="M3.90332 8.16113H4.613V8.87081H3.90332V8.16113Z" fill="white"/>
<path d="M3.90332 9.58057H4.613V10.2902H3.90332V9.58057Z" fill="white"/>
<path d="M3.90332 11H4.613V11.7097H3.90332V11Z" fill="white"/>
</g>
<defs>
<clipPath id="clip0_463_2349">
<rect width="22" height="22" fill="white"/>
</clipPath>
</defs>
</svg>
