<svg width="22" height="22" viewBox="0 0 22 22" fill="none" xmlns="http://www.w3.org/2000/svg">
<g clip-path="url(#clip0_463_2427)">
<path d="M2.56661 14.2691V12.1902C2.56661 12.0991 2.60283 12.0116 2.66729 11.9472C2.73176 11.8827 2.81919 11.8465 2.91036 11.8465H10.6562V10.2293C10.6562 10.1381 10.6925 10.0507 10.7569 9.9862C10.8214 9.92174 10.9088 9.88552 11 9.88552C11.0912 9.88552 11.1786 9.92174 11.2431 9.9862C11.3075 10.0507 11.3438 10.1381 11.3438 10.2293V11.8465H19.0897C19.1809 11.8465 19.2683 11.8827 19.3328 11.9472C19.3972 12.0116 19.4334 12.0991 19.4334 12.1902V14.2693C19.4334 14.3604 19.3972 14.4479 19.3328 14.5123C19.2683 14.5768 19.1809 14.613 19.0897 14.613C18.9985 14.613 18.9111 14.5768 18.8466 14.5123C18.7822 14.4479 18.7459 14.3604 18.7459 14.2693V12.534H11.3438V14.2693C11.3438 14.3604 11.3075 14.4479 11.2431 14.5123C11.1786 14.5768 11.0912 14.613 11 14.613C10.9088 14.613 10.8214 14.5768 10.7569 14.5123C10.6925 14.4479 10.6562 14.3604 10.6562 14.2693V12.534H3.25411V14.2693C3.25411 14.3604 3.21789 14.4479 3.15343 14.5123C3.08896 14.5768 3.00153 14.613 2.91036 14.613C2.81919 14.613 2.73176 14.5768 2.66729 14.5123C2.60283 14.4479 2.56661 14.3604 2.56661 14.2693V14.2691ZM13.9104 17.2108V20.1744C13.9103 20.2348 13.8945 20.294 13.8643 20.3463C13.8341 20.3985 13.7907 20.4419 13.7385 20.4721L11.1719 21.9539C11.1196 21.9841 11.0603 22 11 22C10.9397 22 10.8804 21.9841 10.8281 21.9539L8.26156 20.4721C8.20931 20.4419 8.16592 20.3985 8.13575 20.3463C8.10558 20.294 8.08969 20.2348 8.08968 20.1744V17.2108C8.08969 17.1505 8.10557 17.0912 8.13574 17.039C8.16591 16.9867 8.2093 16.9433 8.26156 16.9131L10.8281 15.4314C10.8804 15.4012 10.9397 15.3853 11 15.3853C11.0603 15.3853 11.1196 15.4012 11.1719 15.4314L13.7384 16.9131C13.7907 16.9433 13.834 16.9867 13.8642 17.039C13.8944 17.0912 13.9103 17.1505 13.9103 17.2108H13.9104ZM9.12102 17.2108L11 18.2957L12.879 17.2108L11 16.1262L9.12102 17.2108ZM8.77727 19.976L10.6562 21.0609V18.891L8.77718 17.8063L8.77727 19.976ZM13.2229 19.976V17.8063L11.3438 18.8911V21.061L13.2229 19.976ZM5.82063 17.2108V20.1744C5.82062 20.2348 5.80474 20.294 5.77457 20.3463C5.7444 20.3985 5.70101 20.4419 5.64876 20.4721L3.08219 21.9539C3.02993 21.9841 2.97066 22 2.91032 22C2.84998 22 2.7907 21.9841 2.73844 21.9539L0.171875 20.4721C0.119626 20.4419 0.0762366 20.3985 0.0460667 20.3463C0.0158968 20.294 9.07455e-06 20.2348 0 20.1744L0 17.2108C1.53286e-06 17.1505 0.0158857 17.0912 0.046056 17.039C0.0762262 16.9867 0.11962 16.9433 0.171875 16.9131L2.73844 15.4314C2.7907 15.4012 2.84998 15.3853 2.91032 15.3853C2.97066 15.3853 3.02993 15.4012 3.08219 15.4314L5.64876 16.9131C5.70101 16.9433 5.74441 16.9867 5.77458 17.039C5.80475 17.0912 5.82063 17.1505 5.82063 17.2108ZM1.03125 17.2108L2.91032 18.2957L4.78938 17.2108L2.91032 16.1262L1.03125 17.2108ZM0.6875 19.9762L2.56657 21.0611V18.8912L0.6875 17.8063V19.9762ZM5.13313 19.9762V17.8063L3.25407 18.8911V21.061L5.13313 19.9762ZM22 17.2108V20.1744C22 20.2348 21.9841 20.294 21.9539 20.3463C21.9238 20.3985 21.8804 20.4419 21.8281 20.4721L19.2616 21.9539C19.2093 21.9841 19.1501 22 19.0897 22C19.0294 22 18.9701 21.9841 18.9179 21.9539L16.3512 20.4721C16.299 20.4419 16.2556 20.3985 16.2254 20.3463C16.1953 20.294 16.1794 20.2348 16.1794 20.1744V17.2108C16.1794 17.1505 16.1953 17.0912 16.2254 17.039C16.2556 16.9867 16.299 16.9433 16.3512 16.9131L18.9179 15.4314C18.9701 15.4012 19.0294 15.3853 19.0897 15.3853C19.1501 15.3853 19.2093 15.4012 19.2616 15.4314L21.8281 16.9131C21.8804 16.9433 21.9238 16.9867 21.9539 17.039C21.9841 17.0912 22 17.1505 22 17.2108ZM17.2106 17.2108L19.0897 18.2957L20.9688 17.2108L19.0897 16.1262L17.2106 17.2108ZM16.8669 19.976L18.746 21.0609V18.891L16.8669 17.8063V19.976ZM21.3125 19.9762V17.8063L19.4335 18.8911V21.061L21.3125 19.9762ZM10.6562 6.34649V6.56197C10.6562 6.65314 10.6925 6.74058 10.7569 6.80504C10.8214 6.86951 10.9088 6.90572 11 6.90572C11.0912 6.90572 11.1786 6.86951 11.2431 6.80504C11.3075 6.74058 11.3438 6.65314 11.3438 6.56197V6.35194C11.7317 6.28891 12.0707 6.11897 12.2828 5.87383C12.3817 5.75983 12.4549 5.62593 12.4976 5.48119C12.5402 5.33644 12.5513 5.18422 12.5301 5.03482C12.4527 4.39704 11.9578 3.9988 11.0591 3.85129C10.2923 3.72535 10.2777 3.42414 10.2722 3.31079C10.2562 2.98117 10.531 2.8001 10.7935 2.74055C10.8602 2.72553 10.9283 2.71736 10.9967 2.71619C10.9978 2.71619 10.9989 2.71619 11 2.71619C11.0023 2.71619 11.0045 2.71588 11.0068 2.71584C11.3137 2.71348 11.6327 2.85377 11.7802 3.20483C11.7968 3.24772 11.8218 3.28686 11.8537 3.31992C11.8857 3.35299 11.9239 3.37931 11.9662 3.39733C12.0085 3.41535 12.054 3.4247 12.1 3.42483C12.1459 3.42496 12.1915 3.41587 12.2339 3.39809C12.2763 3.38031 12.3147 3.3542 12.3468 3.32132C12.3789 3.28844 12.4041 3.24944 12.4209 3.20664C12.4377 3.16384 12.4458 3.11811 12.4446 3.07215C12.4434 3.02619 12.433 2.98093 12.414 2.93906C12.323 2.71538 12.1773 2.51809 11.9904 2.36526C11.8034 2.21243 11.5811 2.10894 11.3438 2.06426V1.84607C11.3438 1.7549 11.3075 1.66747 11.2431 1.603C11.1786 1.53853 11.0912 1.50232 11 1.50232C10.9088 1.50232 10.8214 1.53853 10.7569 1.603C10.6925 1.66747 10.6562 1.7549 10.6562 1.84607V2.06723C10.6514 2.06826 10.6464 2.06916 10.6415 2.07028C9.98018 2.22024 9.55578 2.73226 9.58551 3.34426C9.607 3.78684 9.86051 4.3514 10.9476 4.5299C11.6969 4.65287 11.8222 4.90871 11.8476 5.11784C11.8571 5.17201 11.8544 5.22762 11.8397 5.28063C11.825 5.33363 11.7987 5.3827 11.7627 5.42425C11.6286 5.57932 11.3451 5.68412 11.0403 5.69138C10.691 5.70028 10.2459 5.55595 10.138 5.12325C10.1271 5.07945 10.1076 5.03823 10.0808 5.00194C10.0539 4.96566 10.0202 4.93501 9.98149 4.91177C9.94279 4.88852 9.89989 4.87312 9.85525 4.86645C9.8106 4.85978 9.76507 4.86197 9.72127 4.87289C9.67747 4.88382 9.63625 4.90326 9.59996 4.93012C9.56367 4.95697 9.53303 4.99071 9.50978 5.02941C9.48654 5.06811 9.47114 5.111 9.46447 5.15565C9.4578 5.2003 9.45999 5.24583 9.47091 5.28963C9.60846 5.84079 10.064 6.23477 10.6562 6.34649ZM6.79589 4.20411C6.79589 3.37261 7.04246 2.55979 7.50441 1.86843C7.96637 1.17707 8.62296 0.638219 9.39116 0.32002C10.1594 0.00182158 11.0047 -0.0814337 11.8202 0.0807826C12.6357 0.242999 13.3848 0.643401 13.9728 1.23136C14.5607 1.81931 14.9611 2.56841 15.1233 3.38393C15.2855 4.19944 15.2023 5.04475 14.8841 5.81295C14.5659 6.58115 14.027 7.23774 13.3357 7.69969C12.6443 8.16165 11.8315 8.40821 11 8.40821C9.88539 8.40694 8.8168 7.9636 8.02866 7.17545C7.24051 6.38731 6.79717 5.31871 6.79589 4.20411ZM7.48339 4.20411C7.48339 4.89963 7.68964 5.57953 8.07605 6.15783C8.46246 6.73613 9.01168 7.18686 9.65425 7.45303C10.2968 7.71919 11.0039 7.78883 11.6861 7.65314C12.3682 7.51745 12.9948 7.18253 13.4866 6.69072C13.9784 6.19892 14.3133 5.57232 14.449 4.89016C14.5847 4.20801 14.5151 3.50094 14.2489 2.85836C13.9828 2.21579 13.532 1.66657 12.9537 1.28016C12.3754 0.893747 11.6955 0.687502 11 0.687502C10.0677 0.68856 9.17381 1.0594 8.51455 1.71866C7.85529 2.37792 7.48445 3.27177 7.48339 4.20411Z" fill="white"/>
</g>
<defs>
<clipPath id="clip0_463_2427">
<rect width="22" height="22" fill="white"/>
</clipPath>
</defs>
</svg>
