<svg width="45" height="45" viewBox="0 0 45 45" fill="none" xmlns="http://www.w3.org/2000/svg">
<path d="M38.7128 23.8548C39.0722 23.9153 39.4118 23.673 39.4721 23.314C39.6338 22.3523 39.7157 21.3673 39.7157 20.3866C39.7157 10.6994 31.8347 2.81836 22.1475 2.81836C12.4604 2.81836 4.57935 10.6994 4.57935 20.3866C4.57935 30.0737 12.4604 37.9547 22.1475 37.9547C23.4724 37.9547 24.7952 37.8058 26.0792 37.5119C26.4341 37.4307 26.656 37.0772 26.5748 36.7223C26.4936 36.3673 26.1397 36.1456 25.7852 36.2267C24.5974 36.4985 23.3736 36.6364 22.1475 36.6364C13.1873 36.6364 5.89762 29.3467 5.89762 20.3866C5.89762 11.4264 13.1873 4.13672 22.1475 4.13672C31.1076 4.13672 38.3973 11.4264 38.3973 20.3866C38.3973 21.2944 38.3214 22.2057 38.1719 23.0954C38.1116 23.4545 38.3538 23.7944 38.7128 23.8548Z" fill="black"/>
<path d="M34.8293 21.0454H36.2384C36.6024 21.0454 36.8976 20.7503 36.8976 20.3862C36.8976 20.0222 36.6024 19.7271 36.2384 19.7271H34.8293C34.4653 19.7271 34.1702 20.0222 34.1702 20.3862C34.1702 20.7503 34.4653 21.0454 34.8293 21.0454Z" fill="black"/>
<path d="M10.125 20.3862C10.125 20.0222 9.82983 19.7271 9.46579 19.7271H8.05664C7.6926 19.7271 7.39746 20.0222 7.39746 20.3862C7.39746 20.7503 7.6926 21.0454 8.05664 21.0454H9.4657C9.82983 21.0454 10.125 20.7503 10.125 20.3862Z" fill="black"/>
<path d="M22.1477 32.4092C21.7837 32.4092 21.4885 32.7042 21.4885 33.0684V34.4774C21.4885 34.8415 21.7837 35.1366 22.1477 35.1366C22.5117 35.1366 22.8069 34.8415 22.8069 34.4774V33.0684C22.8069 32.7043 22.5117 32.4092 22.1477 32.4092Z" fill="black"/>
<path d="M22.8069 7.70447V6.29541C22.8069 5.93137 22.5117 5.63623 22.1477 5.63623C21.7837 5.63623 21.4885 5.93137 21.4885 6.29541V7.70447C21.4885 8.0686 21.7837 8.36365 22.1477 8.36365C22.5117 8.36365 22.8069 8.0686 22.8069 7.70447Z" fill="black"/>
<path d="M28.488 10.0628C28.7158 10.0628 28.9374 9.94458 29.0595 9.73312L29.764 8.51284C29.946 8.19758 29.838 7.79443 29.5227 7.61241C29.2074 7.4303 28.8043 7.53831 28.6223 7.85367L27.9178 9.07394C27.7357 9.3892 27.8438 9.79236 28.159 9.97438C28.2628 10.0343 28.3762 10.0628 28.488 10.0628Z" fill="black"/>
<path d="M16.1363 30.7984C15.821 30.6163 15.4178 30.7244 15.2358 31.0397L14.5313 32.26C14.3493 32.5752 14.4573 32.9784 14.7726 33.1604C14.8764 33.2203 14.9897 33.2488 15.1015 33.2488C15.3293 33.2488 15.5509 33.1306 15.673 32.9191L16.3775 31.6989C16.5595 31.3835 16.4515 30.9804 16.1363 30.7984Z" fill="black"/>
<path d="M11.4945 13.4747L10.2743 12.7701C9.95891 12.588 9.55584 12.6961 9.37382 13.0113C9.1918 13.3266 9.29982 13.7297 9.61508 13.9118L10.8354 14.6164C10.9392 14.6763 11.0525 14.7048 11.1643 14.7048C11.3921 14.7048 11.6137 14.5866 11.7358 14.3751C11.9178 14.0598 11.8098 13.6566 11.4945 13.4747Z" fill="black"/>
<path d="M16.3775 9.0739L15.673 7.85363C15.491 7.53827 15.0878 7.43034 14.7726 7.61237C14.4573 7.79439 14.3493 8.19754 14.5313 8.51281L15.2358 9.73308C15.3579 9.94454 15.5795 10.0628 15.8073 10.0628C15.9191 10.0628 16.0325 10.0343 16.1363 9.97434C16.4515 9.79241 16.5595 9.38925 16.3775 9.0739Z" fill="black"/>
<path d="M9.94529 28.091C10.0571 28.091 10.1705 28.0625 10.2743 28.0025L11.4945 27.298C11.8098 27.116 11.9178 26.7128 11.7358 26.3976C11.5538 26.0822 11.1506 25.9743 10.8354 26.1563L9.61508 26.8608C9.29982 27.0429 9.1918 27.446 9.37382 27.7613C9.4959 27.9727 9.71747 28.091 9.94529 28.091Z" fill="black"/>
<path d="M33.4601 14.6163L34.6803 13.9117C34.9956 13.7297 35.1036 13.3265 34.9216 13.0113C34.7396 12.696 34.3364 12.5881 34.0211 12.77L32.8009 13.4746C32.4856 13.6567 32.3776 14.0598 32.5596 14.3751C32.6817 14.5865 32.9033 14.7048 33.1311 14.7048C33.2429 14.7048 33.3563 14.6762 33.4601 14.6163Z" fill="black"/>
<path d="M22.8068 22.3461C23.4177 22.1401 23.9015 21.6562 24.1075 21.0453H32.0112C32.3752 21.0453 32.6704 20.7502 32.6704 20.3861C32.6704 20.0221 32.3752 19.7269 32.0112 19.7269H24.1075C23.8317 18.9088 23.0576 18.3179 22.1476 18.3179C21.0071 18.3179 20.0793 19.2457 20.0793 20.3861C20.0793 21.2961 20.6703 22.0701 21.4884 22.346V30.2497C21.4884 30.6138 21.7835 30.9089 22.1476 30.9089C22.5116 30.9089 22.8068 30.6138 22.8068 30.2497V22.3461ZM22.1476 19.6362C22.5611 19.6362 22.8976 19.9727 22.8976 20.3861C22.8976 20.7996 22.5611 21.136 22.1476 21.136C21.7341 21.136 21.3977 20.7996 21.3977 20.3861C21.3977 19.9727 21.7341 19.6362 22.1476 19.6362Z" fill="black"/>
<path d="M43.1764 35.6069C43.0679 35.3753 42.8352 35.2274 42.5794 35.2274H39.7159V26.0229C39.7159 25.6589 39.4207 25.3638 39.0567 25.3638H32.0113C31.6472 25.3638 31.3521 25.6589 31.3521 26.0229V35.2274H28.4885C28.2328 35.2274 28 35.3753 27.8916 35.6069C27.7831 35.8386 27.8184 36.112 27.9821 36.3084L35.0275 44.763C35.1528 44.9133 35.3383 45.0002 35.5339 45.0002C35.7296 45.0002 35.9151 44.9133 36.0404 44.763L43.0858 36.3084C43.2496 36.112 43.2849 35.8386 43.1764 35.6069ZM35.534 43.3114L29.896 36.5457H32.0114C32.3754 36.5457 32.6705 36.2506 32.6705 35.8866V26.6821H38.3976V35.8866C38.3976 36.2506 38.6927 36.5457 39.0568 36.5457H41.1721L35.534 43.3114Z" fill="black"/>
<path d="M27.3845 38.7265C25.6895 39.2095 23.9276 39.4544 22.1476 39.4544C17.0544 39.4544 12.266 37.4709 8.66451 33.8694C5.06302 30.268 3.07959 25.4796 3.07959 20.3864C3.07959 15.2932 5.06302 10.5048 8.66451 6.90328C12.2659 3.30179 17.0544 1.31836 22.1476 1.31836C27.2409 1.31836 32.0293 3.30179 35.6308 6.90328C39.2323 10.5048 41.2156 15.2931 41.2156 20.3864C41.2156 21.7644 41.0679 23.1394 40.7768 24.4731C40.6992 24.8288 40.9245 25.18 41.2802 25.2577C41.6356 25.3353 41.9871 25.11 42.0648 24.7543C42.3761 23.3285 42.5339 21.8589 42.5339 20.3864C42.5339 14.941 40.4133 9.82151 36.5628 5.97102C32.7124 2.12054 27.593 0 22.1476 0C16.7023 0 11.5827 2.12054 7.73226 5.97102C3.88177 9.82151 1.76123 14.941 1.76123 20.3864C1.76123 25.8318 3.88177 30.9513 7.73226 34.8018C11.5827 38.6523 16.7022 40.7728 22.1475 40.7728C24.0497 40.7728 25.9332 40.511 27.7457 39.9945C28.0958 39.8946 28.2987 39.5299 28.199 39.1798C28.0993 38.8296 27.7346 38.6266 27.3845 38.7265Z" fill="black"/>
</svg>
