<svg width="120" height="24" viewBox="0 0 120 24" fill="none" xmlns="http://www.w3.org/2000/svg">
<path d="M108.02 2.91016C104.71 2.91016 102.02 5.60016 102.02 8.91016V11.8002C102.02 12.4102 101.76 13.3402 101.45 13.8602L100.3 15.7702C99.5901 16.9502 100.08 18.2602 101.38 18.7002C105.69 20.1402 110.34 20.1402 114.65 18.7002C115.86 18.3002 116.39 16.8702 115.73 15.7702L114.58 13.8602C114.28 13.3402 114.02 12.4102 114.02 11.8002V8.91016C114.02 5.61016 111.32 2.91016 108.02 2.91016Z" stroke="#787486" stroke-width="1.5" stroke-miterlimit="10" stroke-linecap="round"/>
<path d="M109.87 3.19994C109.56 3.10994 109.24 3.03994 108.91 2.99994C107.95 2.87994 107.03 2.94994 106.17 3.19994C106.46 2.45994 107.18 1.93994 108.02 1.93994C108.86 1.93994 109.58 2.45994 109.87 3.19994Z" stroke="#787486" stroke-width="1.5" stroke-miterlimit="10" stroke-linecap="round" stroke-linejoin="round"/>
<path d="M111.02 19.0601C111.02 20.7101 109.67 22.0601 108.02 22.0601C107.2 22.0601 106.44 21.7201 105.9 21.1801C105.36 20.6401 105.02 19.8801 105.02 19.0601" stroke="#787486" stroke-width="1.5" stroke-miterlimit="10"/>
<circle cx="114" cy="4" r="3" fill="#D8727D"/>
<path d="M65 18.4302H61L56.55 21.3902C55.89 21.8302 55 21.3602 55 20.5602V18.4302C52 18.4302 50 16.4302 50 13.4302V7.43018C50 4.43018 52 2.43018 55 2.43018H65C68 2.43018 70 4.43018 70 7.43018V13.4302C70 16.4302 68 18.4302 65 18.4302Z" stroke="#787486" stroke-width="1.5" stroke-miterlimit="10" stroke-linecap="round" stroke-linejoin="round"/>
<path d="M59.9998 11.3599V11.1499C59.9998 10.4699 60.4198 10.1099 60.8398 9.81989C61.2498 9.53989 61.6598 9.1799 61.6598 8.5199C61.6598 7.5999 60.9198 6.85986 59.9998 6.85986C59.0798 6.85986 58.3398 7.5999 58.3398 8.5199" stroke="#787486" stroke-width="1.5" stroke-linecap="round" stroke-linejoin="round"/>
<path d="M59.9955 13.75H60.0045" stroke="#787486" stroke-width="1.5" stroke-linecap="round" stroke-linejoin="round"/>
<path d="M8 2V5" stroke="#787486" stroke-width="1.5" stroke-miterlimit="10" stroke-linecap="round" stroke-linejoin="round"/>
<path d="M16 2V5" stroke="#787486" stroke-width="1.5" stroke-miterlimit="10" stroke-linecap="round" stroke-linejoin="round"/>
<path d="M3.5 9.08984H20.5" stroke="#787486" stroke-width="1.5" stroke-miterlimit="10" stroke-linecap="round" stroke-linejoin="round"/>
<path d="M21 8.5V17C21 20 19.5 22 16 22H8C4.5 22 3 20 3 17V8.5C3 5.5 4.5 3.5 8 3.5H16C19.5 3.5 21 5.5 21 8.5Z" stroke="#787486" stroke-width="1.5" stroke-miterlimit="10" stroke-linecap="round" stroke-linejoin="round"/>
<path d="M11.9955 13.7002H12.0045" stroke="#787486" stroke-width="2" stroke-linecap="round" stroke-linejoin="round"/>
<path d="M8.29431 13.7002H8.30329" stroke="#787486" stroke-width="2" stroke-linecap="round" stroke-linejoin="round"/>
<path d="M8.29431 16.7002H8.30329" stroke="#787486" stroke-width="2" stroke-linecap="round" stroke-linejoin="round"/>
</svg>
