<svg width="23" height="23" viewBox="0 0 23 23" fill="none" xmlns="http://www.w3.org/2000/svg">
<path d="M15.5345 22.1817H14.6799L14.1963 13.1635C14.189 13.0144 14.0508 12.898 13.909 12.9053C13.7599 12.9126 13.6436 13.0435 13.6508 13.1926L14.1345 22.1817H12.2072L12.8872 9.54532C12.9781 9.5635 13.0726 9.57441 13.1708 9.57441C13.269 9.57441 13.3636 9.5635 13.4545 9.54532L13.589 12.0217C13.5963 12.1671 13.7163 12.2799 13.8617 12.2799H13.8763C14.0254 12.2726 14.1417 12.1417 14.1345 11.9926L14.0036 9.57804L14.2254 9.98532C14.2545 10.0399 14.3017 10.0835 14.3599 10.1053L19.5708 12.2399C19.6399 12.269 19.709 12.2799 19.7745 12.2799C19.9526 12.2799 20.1199 12.189 20.2181 12.0217C20.3526 11.7926 20.3017 11.5162 20.0945 11.3526L15.709 7.82532C15.6617 7.78532 15.5999 7.7635 15.5381 7.7635H14.4654C14.3745 7.49441 14.2036 7.26168 13.9781 7.09804L14.4617 6.27986C14.4945 6.22532 14.5054 6.1635 14.4981 6.10168L13.6872 0.530769C13.6508 0.268951 13.4363 0.0834961 13.1708 0.0834961C12.9054 0.0834961 12.6945 0.265314 12.6545 0.530769L11.8436 6.10168C11.8363 6.1635 11.8472 6.22532 11.8799 6.27986L12.3636 7.09804C12.1381 7.26168 11.9672 7.49441 11.8763 7.7635H10.8036C10.7417 7.7635 10.6799 7.78532 10.6326 7.82532L6.24355 11.3526C6.03628 11.5199 5.98537 11.7962 6.12355 12.0217C6.22174 12.189 6.38901 12.2799 6.56719 12.2799C6.63628 12.2799 6.70537 12.2653 6.77083 12.2399L11.9817 10.1053C12.0399 10.0835 12.0872 10.0399 12.1163 9.98532L12.3417 9.57804L11.6617 22.1817H10.8036C10.6545 22.1817 10.5308 22.3053 10.5308 22.4544C10.5308 22.6035 10.6545 22.7271 10.8036 22.7271H15.5345C15.6836 22.7271 15.8072 22.6035 15.8072 22.4544C15.8072 22.3053 15.6872 22.1817 15.5345 22.1817ZM12.7526 8.91259C12.6908 8.87622 12.6363 8.83622 12.5854 8.78895C12.5817 8.78532 12.5817 8.78532 12.5781 8.78168C12.4326 8.63259 12.3417 8.42895 12.3417 8.2035C12.3417 8.14895 12.349 8.09441 12.3599 8.03986C12.4363 7.66168 12.7708 7.37804 13.1708 7.37804C13.5708 7.37804 13.9054 7.66168 13.9817 8.03986C13.9926 8.09441 13.9999 8.14895 13.9999 8.2035C13.9999 8.42895 13.909 8.63259 13.7636 8.78168C13.7599 8.78532 13.7599 8.78532 13.7563 8.78895C13.6072 8.93804 13.3999 9.03259 13.1708 9.03259C13.0181 9.02895 12.8763 8.98532 12.7526 8.91259ZM19.6217 11.6726L14.6581 9.63986L14.2981 8.98532C14.4326 8.79259 14.5126 8.5635 14.5308 8.31623H15.4436L19.6217 11.6726ZM12.3999 6.0835L13.1708 0.774405L13.9417 6.0835L13.4763 6.86531C13.3781 6.8435 13.2763 6.82895 13.1672 6.82895C13.0581 6.82895 12.9599 6.8435 12.8581 6.86531L12.3999 6.0835ZM11.6836 9.63622L6.71628 11.6726L10.8981 8.30895H11.8108C11.829 8.55622 11.909 8.78532 12.0436 8.97804L11.6836 9.63622Z" fill="#7C8DB5"/>
<path d="M6.44001 13.9962C6.39274 13.9562 6.33092 13.9343 6.2691 13.9343H5.64728C5.5891 13.7962 5.49819 13.6762 5.38547 13.578L5.65456 13.1198C5.68729 13.0652 5.69819 13.0034 5.69092 12.9416L5.16728 9.34161C5.13456 9.12707 4.95638 8.9707 4.73819 8.9707C4.52001 8.9707 4.34183 9.12707 4.3091 9.34161L3.78547 12.9416C3.77819 13.0034 3.7891 13.0652 3.82183 13.1198L4.09092 13.578C3.97819 13.6762 3.88728 13.7962 3.8291 13.9343H3.20728C3.14547 13.9343 3.08365 13.9562 3.03638 13.9962L0.207284 16.2762C0.0363754 16.4107 -0.00362469 16.6471 0.105466 16.8325C0.185466 16.9707 0.327284 17.0471 0.476375 17.0471C0.530921 17.0471 0.589103 17.0362 0.643648 17.0143L4.00728 15.6362C4.03274 15.6252 4.05819 15.6107 4.08001 15.5889L3.98183 17.1671C3.97092 17.3162 4.08729 17.4471 4.23638 17.4543C4.38183 17.4652 4.51638 17.3489 4.52365 17.1998L4.64001 15.2943C4.65819 15.298 4.67638 15.2943 4.69456 15.2943C4.7091 15.2943 4.72001 15.298 4.73456 15.298C4.7491 15.298 4.76365 15.2943 4.77456 15.2943C4.79274 15.2943 4.81092 15.298 4.8291 15.2943L5.25092 22.1816H4.21456L4.4691 18.0071C4.48001 17.858 4.36365 17.7271 4.21456 17.7198C4.06183 17.7089 3.93456 17.8252 3.92728 17.9743L3.6691 22.1816H3.20365C3.05456 22.1816 2.93092 22.3052 2.93092 22.4543C2.93092 22.6034 3.05456 22.7271 3.20365 22.7271H6.26183C6.41092 22.7271 6.53456 22.6034 6.53456 22.4543C6.53456 22.3052 6.41092 22.1816 6.26183 22.1816H5.80729L5.40365 15.5925C5.42547 15.6107 5.45092 15.6252 5.47638 15.6362L8.84365 17.0143C8.89819 17.0362 8.95274 17.0471 9.01092 17.0471C9.16001 17.0471 9.30183 16.9707 9.38183 16.8325C9.49092 16.6471 9.45092 16.4107 9.28001 16.2762L6.44001 13.9962ZM4.88365 14.7234C4.84001 14.738 4.79274 14.7525 4.74183 14.7525C4.69092 14.7525 4.64365 14.738 4.60001 14.7234C4.58183 14.7162 4.56365 14.7089 4.54547 14.7016C4.40365 14.6289 4.30183 14.4871 4.30183 14.3162C4.30183 14.0762 4.49819 13.8798 4.73819 13.8798C4.97819 13.8798 5.17456 14.0762 5.17456 14.3162C5.17456 14.4871 5.07274 14.6325 4.93092 14.7016C4.91638 14.7125 4.90183 14.7198 4.88365 14.7234ZM4.34183 12.9307L4.73819 10.1925L5.13456 12.9307L4.88728 13.3489C4.84001 13.3416 4.7891 13.3343 4.73819 13.3343C4.68728 13.3343 4.63638 13.3416 4.5891 13.3489L4.34183 12.9307ZM1.1491 16.218L3.30547 14.4834H3.77456C3.79638 14.6071 3.84001 14.7198 3.90183 14.8216L3.71274 15.1671L1.1491 16.218ZM5.77092 15.1671L5.58183 14.8216C5.64365 14.7198 5.68728 14.6071 5.7091 14.4834H6.17819L8.33456 16.218L5.77092 15.1671Z" fill="#7C8DB5"/>
<path d="M6.05095 5.15277C6.1964 4.8655 6.27277 4.5455 6.27277 4.2255C6.27277 3.09459 5.35277 2.17822 4.2255 2.17822C3.09459 2.17822 2.17822 3.09822 2.17822 4.2255C2.17822 5.3564 3.09822 6.27277 4.2255 6.27277C4.65822 6.27277 5.06913 6.13822 5.41822 5.88731C5.54186 5.80004 5.56731 5.62913 5.48004 5.5055C5.39277 5.38186 5.22186 5.3564 5.09822 5.44368C4.84004 5.62913 4.53822 5.72731 4.22186 5.72731C3.39277 5.72731 2.72004 5.05459 2.72004 4.2255C2.72004 3.3964 3.39277 2.72368 4.22186 2.72368C5.05095 2.72368 5.72368 3.3964 5.72368 4.2255C5.72368 4.4655 5.66913 4.69459 5.56004 4.9055C5.49095 5.04004 5.5455 5.20368 5.68004 5.27277C5.81822 5.34186 5.98186 5.28731 6.05095 5.15277Z" fill="#7C8DB5"/>
<path d="M4.22905 1.70182C4.37814 1.70182 4.49814 1.58182 4.49814 1.43273V0.269091C4.49814 0.12 4.37814 0 4.22905 0C4.07996 0 3.95996 0.12 3.95996 0.269091V1.43273C3.95996 1.58182 4.07996 1.70182 4.22905 1.70182Z" fill="#7C8DB5"/>
<path d="M2.9091 1.74563C2.95273 1.85108 3.05092 1.9129 3.16001 1.9129C3.19273 1.9129 3.2291 1.90563 3.26182 1.89108C3.40001 1.8329 3.46546 1.67654 3.40728 1.53836L3.15273 0.927448C3.09455 0.789266 2.93819 0.723812 2.80001 0.781994C2.66182 0.840175 2.59637 0.996539 2.65455 1.13472L2.9091 1.74563Z" fill="#7C8DB5"/>
<path d="M0.927204 3.14932L1.54175 3.40386C1.57448 3.41841 1.61084 3.42568 1.64357 3.42568C1.74902 3.42568 1.85084 3.36386 1.89448 3.25841C1.95266 3.12023 1.8872 2.96386 1.74902 2.90568L1.13448 2.65113C0.996295 2.59295 0.839931 2.65841 0.781749 2.79659C0.723568 2.93477 0.789022 3.09113 0.927204 3.14932Z" fill="#7C8DB5"/>
<path d="M1.89081 5.18917C1.83263 5.05099 1.67627 4.98553 1.53809 5.04371L0.923542 5.29826C0.78536 5.35644 0.719906 5.5128 0.778087 5.65099C0.821724 5.75644 0.919905 5.81826 1.02536 5.81826C1.05809 5.81826 1.09445 5.81099 1.12718 5.79644L1.74172 5.54189C1.88354 5.48371 1.949 5.32735 1.89081 5.18917Z" fill="#7C8DB5"/>
<path d="M2.90177 6.70539L2.64723 7.31994C2.58905 7.45812 2.6545 7.61448 2.79268 7.67266C2.82905 7.68357 2.86177 7.69085 2.89814 7.69085C3.00359 7.69085 3.10541 7.62903 3.14541 7.52357L3.39996 6.90903C3.45814 6.77085 3.39268 6.61448 3.2545 6.5563C3.11632 6.50175 2.95996 6.56721 2.90177 6.70539Z" fill="#7C8DB5"/>
<path d="M5.1855 6.55977C5.04732 6.61795 4.98187 6.77431 5.04005 6.9125L5.2946 7.52704C5.33823 7.6325 5.43641 7.69431 5.5455 7.69431C5.57823 7.69431 5.6146 7.68704 5.64732 7.6725C5.7855 7.61431 5.85096 7.45795 5.79278 7.31977L5.53823 6.70522C5.48369 6.57068 5.32369 6.50522 5.1855 6.55977Z" fill="#7C8DB5"/>
<path d="M7.4182 5.82168C7.52366 5.82168 7.62547 5.75986 7.66547 5.6544C7.72365 5.51622 7.6582 5.35986 7.52002 5.30168L6.90547 5.04713C6.76729 4.98895 6.61093 5.0544 6.55275 5.19259C6.49456 5.33077 6.56002 5.48713 6.6982 5.54531L7.31275 5.79986C7.34911 5.81804 7.38547 5.82168 7.4182 5.82168Z" fill="#7C8DB5"/>
<path d="M6.56007 3.26524C6.60371 3.3707 6.70189 3.43252 6.81098 3.43252C6.84371 3.43252 6.88007 3.42524 6.9128 3.4107L7.52734 3.15615C7.66552 3.09797 7.73098 2.94161 7.6728 2.80342C7.61462 2.66524 7.45825 2.59979 7.32007 2.65797L6.70552 2.91252C6.56734 2.96706 6.50189 3.12706 6.56007 3.26524Z" fill="#7C8DB5"/>
<path d="M5.19277 1.89472C5.22913 1.90927 5.26186 1.91654 5.29822 1.91654C5.40368 1.91654 5.50549 1.85472 5.54549 1.74927L5.80004 1.13472C5.85822 0.996539 5.79277 0.840175 5.65459 0.781994C5.5164 0.723812 5.36004 0.789266 5.30186 0.927448L5.04731 1.54199C4.99277 1.68018 5.05459 1.84018 5.19277 1.89472Z" fill="#7C8DB5"/>
<path d="M2.06177 2.43995C2.11268 2.49086 2.18177 2.51632 2.25086 2.51632C2.31995 2.51632 2.38904 2.49086 2.43995 2.43632C2.54541 2.33086 2.54541 2.15995 2.43995 2.0545L1.61814 1.23632C1.51268 1.13086 1.34177 1.13086 1.23632 1.23632C1.13086 1.34177 1.13086 1.51268 1.23632 1.61814L2.06177 2.43995Z" fill="#7C8DB5"/>
<path d="M0.269091 4.49082H1.43273C1.58182 4.49082 1.70182 4.37082 1.70182 4.22173C1.70182 4.07264 1.58182 3.95264 1.43273 3.95264H0.269091C0.12 3.95264 0 4.07264 0 4.22173C0 4.37082 0.12 4.49082 0.269091 4.49082Z" fill="#7C8DB5"/>
<path d="M1.42538 7.29095C1.49447 7.29095 1.56356 7.2655 1.61447 7.21095L2.43629 6.38913C2.54175 6.28368 2.54175 6.11277 2.43629 6.00731C2.33084 5.90186 2.15993 5.90186 2.05447 6.00731L1.23266 6.82913C1.1272 6.93459 1.1272 7.1055 1.23266 7.21095C1.2872 7.2655 1.35629 7.29095 1.42538 7.29095Z" fill="#7C8DB5"/>
<path d="M3.95264 7.02202V8.18566C3.95264 8.33475 4.07264 8.45475 4.22173 8.45475C4.37082 8.45475 4.49082 8.33475 4.49082 8.18566V7.02202C4.49082 6.87293 4.37082 6.75293 4.22173 6.75293C4.07264 6.75293 3.95264 6.87293 3.95264 7.02202Z" fill="#7C8DB5"/>
<path d="M6.82911 7.21827C6.88002 7.26918 6.94911 7.29827 7.0182 7.29827C7.08729 7.29827 7.15638 7.27282 7.20729 7.21827C7.31274 7.11282 7.31274 6.94191 7.20729 6.83646L6.38547 6.01464C6.28002 5.90918 6.10911 5.90918 6.00365 6.01464C5.8982 6.12009 5.8982 6.291 6.00365 6.39646L6.82911 7.21827Z" fill="#7C8DB5"/>
<path d="M6.74902 4.22905C6.74902 4.37814 6.86902 4.49814 7.01811 4.49814H8.18175C8.33084 4.49814 8.45084 4.37814 8.45084 4.22905C8.45084 4.07996 8.33084 3.95996 8.18175 3.95996H7.01811C6.86902 3.95996 6.74902 4.07996 6.74902 4.22905Z" fill="#7C8DB5"/>
<path d="M6.2037 2.52386C6.27279 2.52386 6.34188 2.49841 6.39279 2.44386L7.21461 1.62204C7.32007 1.51659 7.32007 1.34568 7.21461 1.24022C7.10916 1.13477 6.93825 1.13477 6.83279 1.24022L6.01098 2.06204C5.90552 2.1675 5.90552 2.33841 6.01098 2.44386C6.06552 2.49841 6.13461 2.52386 6.2037 2.52386Z" fill="#7C8DB5"/>
<path d="M22.811 20.72L22.0946 15.7818C22.051 15.4727 21.7819 15.2437 21.4728 15.2437H16.4801C16.171 15.2437 15.9019 15.4764 15.8583 15.7818L15.1419 20.72C15.1164 20.9018 15.171 21.0837 15.2873 21.2218C15.4037 21.36 15.5819 21.44 15.7637 21.44H17.3273H17.9455V22.1818H17.0837C16.9346 22.1818 16.811 22.3055 16.811 22.4546C16.811 22.6037 16.9346 22.7273 17.0837 22.7273H20.8619C21.011 22.7273 21.1346 22.6037 21.1346 22.4546C21.1346 22.3055 21.011 22.1818 20.8619 22.1818H20.0037V21.44H20.6219H21.0364C21.1855 21.44 21.3092 21.3164 21.3092 21.1673C21.3092 21.0182 21.1855 20.8946 21.0364 20.8946H20.8983V20.0691H22.1673L22.2728 20.8C22.2764 20.8327 22.2619 20.8546 22.2546 20.8655C22.2437 20.8764 22.2255 20.8946 22.1892 20.8946H21.8801C21.731 20.8946 21.6073 21.0182 21.6073 21.1673C21.6073 21.3164 21.731 21.44 21.8801 21.44H22.1855C22.3673 21.44 22.5419 21.36 22.6619 21.2218C22.7819 21.0837 22.8364 20.8982 22.811 20.72ZM17.6001 20.8946V20.0691H18.7019V20.8946H17.6001ZM17.6001 19.52V18.6109H18.7019V19.52H17.6001ZM18.7019 16.6146H17.6001V15.7855H18.7019V16.6146ZM19.2473 15.7855H20.3528V16.6146H19.2473V15.7855ZM18.7019 17.16V18.0691H17.6001V17.16H18.7019ZM17.0546 18.0655H16.0728L16.2037 17.1564H17.051V18.0655H17.0546ZM15.9964 18.6109H17.0546V19.52H15.8655L15.9964 18.6109ZM19.2473 18.6109H20.3528V19.52H19.2473V18.6109ZM19.2473 18.0655V17.1564H20.3528V18.0655H19.2473ZM20.8983 17.16H21.7455L21.8764 18.0691H20.8983V17.16ZM21.5528 15.8582L21.6619 16.6146H20.8983V15.7855H21.4728C21.5128 15.7855 21.5492 15.8182 21.5528 15.8582ZM16.4801 15.7855H17.0546V16.6146H16.2837L16.3928 15.8582C16.4001 15.8182 16.4364 15.7855 16.4801 15.7855ZM15.6983 20.8655C15.6873 20.8546 15.6728 20.8327 15.6801 20.7964L15.7855 20.0655H17.0546V20.8909H15.7637C15.731 20.8946 15.7092 20.8764 15.6983 20.8655ZM18.491 22.1818V21.44H19.4583V22.1818H18.491ZM20.3528 20.8946H19.2473V20.0691H20.3528V20.8946ZM20.8983 19.52V18.6109H21.9528L22.0837 19.52H20.8983Z" fill="#7C8DB5"/>
<path d="M17.2728 2.45826H21.5383C21.6874 2.45826 21.811 2.33462 21.811 2.18553C21.811 2.03644 21.6874 1.91281 21.5383 1.91281H17.2728C16.9201 1.91281 16.6292 1.62553 16.6292 1.26917C16.6292 0.916442 16.9165 0.625533 17.2728 0.625533C17.4219 0.625533 17.5456 0.501896 17.5456 0.352805C17.5456 0.203714 17.4219 0.0800781 17.2728 0.0800781C16.6183 0.0800781 16.0837 0.610987 16.0837 1.26917C16.0837 1.92735 16.6183 2.45826 17.2728 2.45826Z" fill="#7C8DB5"/>
<path d="M17.4473 4.45472C17.4473 5.10926 17.9782 5.64381 18.6327 5.64381C18.7818 5.64381 18.9054 5.52017 18.9054 5.37108C18.9054 5.22199 18.7818 5.09835 18.6327 5.09835C18.28 5.09835 17.9927 4.81108 17.9927 4.45472C17.9927 4.10199 18.28 3.81108 18.6327 3.81108H22.1709C22.32 3.81108 22.4436 3.68744 22.4436 3.53835C22.4436 3.38926 22.32 3.26562 22.1709 3.26562H18.6327C17.9782 3.26562 17.4473 3.80017 17.4473 4.45472Z" fill="#7C8DB5"/>
</svg>
