<svg width="6" height="6" viewBox="0 0 6 6" fill="none" xmlns="http://www.w3.org/2000/svg">
<g clip-path="url(#clip0_463_2732)">
<path d="M3.40085 4.22736C3.33951 4.23308 3.27793 4.21924 3.22494 4.18781C3.18622 4.14806 3.16765 4.09287 3.17449 4.03781C3.17592 3.99196 3.18139 3.94633 3.19085 3.90145C3.2 3.84996 3.21182 3.79898 3.2263 3.74872L3.38721 3.19508C3.4038 3.14043 3.41477 3.08423 3.41994 3.02735C3.41994 2.96599 3.42812 2.92371 3.42812 2.89917C3.43154 2.7898 3.38484 2.68484 3.3013 2.61417C3.19853 2.53528 3.07056 2.4965 2.9413 2.50508C2.84866 2.50647 2.75674 2.52164 2.66856 2.55008C2.5722 2.58008 2.47083 2.61598 2.36447 2.65781L2.31812 2.83781C2.34947 2.8269 2.38767 2.81463 2.43129 2.80099C2.47292 2.78866 2.51607 2.78223 2.55947 2.7819C2.62037 2.7753 2.68165 2.79025 2.73265 2.82417C2.7673 2.8655 2.78355 2.91919 2.77765 2.97281C2.7775 3.01866 2.77247 3.06438 2.76265 3.10917C2.7531 3.1569 2.74083 3.20735 2.72583 3.26053L2.56356 3.81689C2.55049 3.8686 2.54002 3.92094 2.53221 3.97371C2.52583 4.01888 2.52264 4.06444 2.52265 4.11007C2.52199 4.22019 2.57234 4.32441 2.65901 4.39233C2.76336 4.47246 2.89315 4.51217 3.02446 4.50416C3.11692 4.50605 3.20907 4.49269 3.29719 4.4646C3.37447 4.43824 3.47765 4.40051 3.60674 4.35142L3.65038 4.1796C3.61542 4.19411 3.5794 4.20596 3.54265 4.21505C3.49618 4.22567 3.44846 4.2298 3.40085 4.22736Z" fill="#E26800"/>
<path d="M3.57139 1.60239C3.49717 1.53424 3.39939 1.49757 3.29866 1.50013C3.19798 1.49785 3.10029 1.53448 3.02593 1.60239C2.88961 1.71993 2.87439 1.92573 2.99194 2.06205C3.00242 2.0742 3.01377 2.08556 3.02593 2.09604C3.18122 2.23494 3.41609 2.23494 3.57137 2.09604C3.70769 1.97734 3.72197 1.77062 3.60327 1.6343C3.59341 1.62295 3.58274 1.61229 3.57139 1.60239Z" fill="#E26800"/>
<path d="M3 0C1.34314 0 0 1.34314 0 3C0 4.65686 1.34314 6 3 6C4.65686 6 6 4.65686 6 3C6 1.34314 4.65686 0 3 0ZM3 5.72727C1.49377 5.72727 0.27273 4.50623 0.27273 3C0.27273 1.49377 1.49377 0.27273 3 0.27273C4.50623 0.27273 5.72727 1.49377 5.72727 3C5.72727 4.50623 4.50623 5.72727 3 5.72727Z" fill="#E26800"/>
</g>
<defs>
<clipPath id="clip0_463_2732">
<rect width="6" height="6" fill="white"/>
</clipPath>
</defs>
</svg>
