<svg width="271" height="132" viewBox="0 0 271 132" fill="none" xmlns="http://www.w3.org/2000/svg">
<path d="M0.169909 127.999L10.9729 128.77" stroke="#060606" stroke-opacity="0.3" stroke-miterlimit="10"/>
<path d="M0.815397 121.155L11.5669 122.477" stroke="#060606" stroke-opacity="0.3" stroke-miterlimit="10"/>
<path d="M1.81243 114.354L12.4766 116.216" stroke="#060606" stroke-opacity="0.3" stroke-miterlimit="10"/>
<path d="M3.1428 107.61L13.7014 110.021" stroke="#060606" stroke-opacity="0.3" stroke-miterlimit="10"/>
<path d="M4.82466 100.95L15.251 103.883" stroke="#060606" stroke-opacity="0.3" stroke-miterlimit="10"/>
<path d="M6.83981 94.3758L17.1067 97.8398" stroke="#060606" stroke-opacity="0.3" stroke-miterlimit="10"/>
<path d="M9.19419 87.9137L19.2566 91.8989" stroke="#060606" stroke-opacity="0.3" stroke-miterlimit="10"/>
<path d="M11.8668 81.5813L21.7249 86.0786" stroke="#060606" stroke-opacity="0.3" stroke-miterlimit="10"/>
<path d="M14.86 75.3964L24.4688 80.3872" stroke="#060606" stroke-opacity="0.3" stroke-miterlimit="10"/>
<path d="M18.1674 69.3701L27.5095 74.8442" stroke="#060606" stroke-opacity="0.3" stroke-miterlimit="10"/>
<path d="M21.772 63.5173L30.8291 69.4575" stroke="#060606" stroke-opacity="0.3" stroke-miterlimit="10"/>
<path d="M25.6701 57.8579L34.4153 64.2549" stroke="#060606" stroke-opacity="0.3" stroke-miterlimit="10"/>
<path d="M29.8553 52.409L38.2617 59.2354" stroke="#060606" stroke-opacity="0.3" stroke-miterlimit="10"/>
<path d="M34.3185 47.1715L42.3591 54.418" stroke="#060606" stroke-opacity="0.3" stroke-miterlimit="10"/>
<path d="M39.0324 42.1699L46.6985 49.8184" stroke="#060606" stroke-opacity="0.3" stroke-miterlimit="10"/>
<path d="M43.9968 37.4163L51.2615 45.4482" stroke="#060606" stroke-opacity="0.3" stroke-miterlimit="10"/>
<path d="M49.1994 32.9272L56.0449 41.3154" stroke="#060606" stroke-opacity="0.3" stroke-miterlimit="10"/>
<path d="M54.6251 28.7014L61.0337 37.4277" stroke="#060606" stroke-opacity="0.3" stroke-miterlimit="10"/>
<path d="M72.0882 17.7615L77.0959 27.3662" stroke="#060606" stroke-opacity="0.3" stroke-miterlimit="10"/>
<path d="M78.2586 14.7261L82.7673 24.5688" stroke="#060606" stroke-opacity="0.3" stroke-miterlimit="10"/>
<path d="M84.5697 12.0092L88.5706 22.0718" stroke="#060606" stroke-opacity="0.3" stroke-miterlimit="10"/>
<path d="M91.0153 9.60987L94.4995 19.8652" stroke="#060606" stroke-opacity="0.3" stroke-miterlimit="10"/>
<path d="M97.5703 7.55297L100.529 17.9648" stroke="#060606" stroke-opacity="0.3" stroke-miterlimit="10"/>
<path d="M104.223 5.82378L106.648 16.374" stroke="#060606" stroke-opacity="0.3" stroke-miterlimit="10"/>
<path d="M110.955 4.43673L112.837 15.0981" stroke="#060606" stroke-opacity="0.3" stroke-miterlimit="10"/>
<path d="M117.754 3.39613L119.084 14.1416" stroke="#060606" stroke-opacity="0.3" stroke-miterlimit="10"/>
<path d="M124.592 2.70531L125.381 13.5078" stroke="#060606" stroke-opacity="0.3" stroke-miterlimit="10"/>
<path d="M131.453 2.35783L131.692 13.1812" stroke="#060606" stroke-opacity="0.3" stroke-miterlimit="10"/>
<path d="M138.332 2.36359L138.01 13.1897" stroke="#060606" stroke-opacity="0.3" stroke-miterlimit="10"/>
<path d="M145.194 2.72122L144.323 13.514" stroke="#060606" stroke-opacity="0.3" stroke-miterlimit="10"/>
<path d="M152.029 3.43107L150.617 14.1637" stroke="#060606" stroke-opacity="0.3" stroke-miterlimit="10"/>
<path d="M158.821 4.48125L156.868 15.1356" stroke="#060606" stroke-opacity="0.3" stroke-miterlimit="10"/>
<path d="M165.557 5.87616L163.055 16.4161" stroke="#060606" stroke-opacity="0.3" stroke-miterlimit="10"/>
<path d="M172.204 7.62059L169.171 18.0102" stroke="#060606" stroke-opacity="0.3" stroke-miterlimit="10"/>
<path d="M178.761 9.68805L175.198 19.9182" stroke="#060606" stroke-opacity="0.3" stroke-miterlimit="10"/>
<path d="M185.197 12.0992L181.121 22.1341" stroke="#060606" stroke-opacity="0.3" stroke-miterlimit="10"/>
<path d="M191.509 14.8314L186.922 24.644" stroke="#060606" stroke-opacity="0.3" stroke-miterlimit="10"/>
<path d="M197.664 17.8802L192.593 27.4437" stroke="#060606" stroke-opacity="0.3" stroke-miterlimit="10"/>
<path d="M203.664 21.2334L198.108 30.5295" stroke="#060606" stroke-opacity="0.3" stroke-miterlimit="10"/>
<path d="M220.524 33.084L213.615 41.4258" stroke="#060606" stroke-opacity="0.3" stroke-miterlimit="10"/>
<path d="M225.717 37.5821L218.397 45.5583" stroke="#060606" stroke-opacity="0.3" stroke-miterlimit="10"/>
<path d="M230.671 42.3493L222.958 49.942" stroke="#060606" stroke-opacity="0.3" stroke-miterlimit="10"/>
<path d="M235.379 47.3572L227.283 54.5485" stroke="#060606" stroke-opacity="0.3" stroke-miterlimit="10"/>
<path d="M239.833 52.5971L231.381 59.3691" stroke="#060606" stroke-opacity="0.3" stroke-miterlimit="10"/>
<path d="M244.005 58.0583L235.224 64.3844" stroke="#060606" stroke-opacity="0.3" stroke-miterlimit="10"/>
<path d="M247.893 63.7253L238.801 69.5967" stroke="#060606" stroke-opacity="0.3" stroke-miterlimit="10"/>
<path d="M251.492 69.5781L242.108 74.9859" stroke="#060606" stroke-opacity="0.3" stroke-miterlimit="10"/>
<path d="M254.791 75.6153L245.142 80.5332" stroke="#060606" stroke-opacity="0.3" stroke-miterlimit="10"/>
<path d="M257.771 81.8045L247.884 86.2331" stroke="#060606" stroke-opacity="0.3" stroke-miterlimit="10"/>
<path d="M260.433 88.1416L250.335 92.0534" stroke="#060606" stroke-opacity="0.3" stroke-miterlimit="10"/>
<path d="M262.769 94.6123L252.488 97.9985" stroke="#060606" stroke-opacity="0.3" stroke-miterlimit="10"/>
<path d="M264.779 101.187L254.332 104.048" stroke="#060606" stroke-opacity="0.3" stroke-miterlimit="10"/>
<path d="M266.448 107.847L255.872 110.184" stroke="#060606" stroke-opacity="0.3" stroke-miterlimit="10"/>
<path d="M267.768 114.595L257.089 116.388" stroke="#060606" stroke-opacity="0.3" stroke-miterlimit="10"/>
<path d="M268.748 121.402L257.994 122.644" stroke="#060606" stroke-opacity="0.3" stroke-miterlimit="10"/>
<path d="M269.385 128.242L258.574 128.941" stroke="#060606" stroke-opacity="0.3" stroke-miterlimit="10"/>
</svg>
