<svg width="68" height="54" viewBox="0 0 68 54" fill="none" xmlns="http://www.w3.org/2000/svg">
<mask id="mask0_1101_3487" style="mask-type:luminance" maskUnits="userSpaceOnUse" x="0" y="0" width="68" height="54">
<path d="M4.57764e-05 54L67.0435 54L67.0435 7.62939e-06L4.10487e-05 1.3482e-05L4.57764e-05 54Z" fill="white"/>
</mask>
<g mask="url(#mask0_1101_3487)">
<path d="M45.1948 14.1165C45.5484 14.1165 45.902 14.1292 46.2556 14.1483L58.0949 32.157C58.0949 32.1634 58.1013 32.1634 58.1013 32.1697L62.8158 39.3351L65.9921 44.1628C66.6202 45.1209 66.9776 46.2306 67.0262 47.3747C67.0749 48.5188 66.8132 49.6548 66.2686 50.6626C65.724 51.6704 64.9169 52.5126 63.9326 53.1001C62.9482 53.6877 61.8232 53.9988 60.6764 54.0005L47.2387 54.0005C48.498 51.4351 49.1539 48.6163 49.1561 45.7593C49.1583 42.9022 48.5068 40.0825 47.2515 37.5151C47.2069 37.4268 47.1623 37.3322 47.11 37.2439C47.0782 37.1867 47.0463 37.1366 47.0089 37.0794L44.8702 33.8251L44.8574 33.8124L38.3394 23.9111C38.3331 23.9048 38.3267 23.8921 38.3203 23.8857L36.1944 20.6512C35.8165 20.0672 35.2573 19.6231 34.6025 19.3869C33.9477 19.1505 33.2334 19.1353 32.569 19.3433L32.5685 19.3456L32.5671 19.3475L32.5651 19.3487L32.5626 19.3489C32.3159 19.4244 32.0797 19.5307 31.8596 19.6653C33.6073 17.9102 35.6846 16.5167 37.9725 15.5646C40.2605 14.6126 42.714 14.1207 45.1927 14.1172L45.1948 14.1165Z" fill="url(#paint0_linear_1101_3487)"/>
<path d="M47.2518 37.5146C48.5099 40.0771 49.1616 42.8939 49.1565 45.7478C49.1577 46.7212 49.0815 47.6932 48.9287 48.6546C48.9276 48.674 48.9234 48.6931 48.916 48.7111C48.6288 50.5487 48.0633 52.3321 47.2391 54L46.9414 54C46.7131 54.0003 46.485 53.9876 46.2582 53.9619L46.2327 53.9619C44.4681 53.787 42.8315 52.9633 41.6411 51.6508C40.4506 50.3384 39.7913 48.6308 39.7911 46.8601L39.7911 42.0387L44.3281 42.0387C45.1132 42.0395 45.8712 41.7522 46.458 41.2313C47.0448 40.7105 47.4195 39.9925 47.5107 39.2138C47.5835 38.6344 47.4939 38.0462 47.2518 37.5146Z" fill="url(#paint1_linear_1101_3487)"/>
<path d="M38.8357 2.8573L46.2583 14.1484C45.9047 14.1293 45.5511 14.1166 45.1974 14.1166C42.7188 14.1201 40.2652 14.612 37.9773 15.564C35.6893 16.5161 33.6121 17.9096 31.8644 19.6647C31.4509 19.9107 31.1001 20.2491 30.8397 20.6534L30.3523 21.3921C29.739 22.1781 29.1909 23.0129 28.7136 23.8879C28.7038 23.902 28.6953 23.9168 28.6882 23.9324L20.0442 37.0816C19.725 37.5644 19.5429 38.1246 19.5173 38.7025C19.4918 39.2805 19.6237 39.8546 19.8991 40.3636C20.1744 40.8726 20.583 41.2974 21.081 41.5929C21.5792 41.8884 22.1482 42.0434 22.7275 42.0414L27.2645 42.0414L27.2645 46.86C27.2643 48.7536 26.5109 50.5695 25.1701 51.9085C23.8291 53.2474 22.0106 53.9997 20.1142 53.9999L6.37668 53.9999C5.71958 54.0035 5.06608 53.9034 4.44024 53.7033C3.6356 53.4557 2.89186 53.0424 2.25704 52.49C2.18632 52.4328 2.12408 52.3763 2.05477 52.3191C2.03624 52.3064 2.01912 52.2917 2.00378 52.2753C0.913696 51.2512 0.221164 49.8753 0.0486636 48.3907C-0.123902 46.9061 0.23474 45.4084 1.06102 44.1622L26.075 6.09675L28.2072 2.85589C28.7872 1.97777 29.5763 1.25707 30.5039 0.758478C31.4315 0.259813 32.4685 -0.00107073 33.5219 -0.000929677C34.5754 -0.000788625 35.6123 0.260373 36.5397 0.759251C37.4671 1.25813 38.2561 1.97897 38.8357 2.8573Z" fill="url(#paint2_linear_1101_3487)"/>
<path d="M30.3501 21.389L28.7113 23.8848C29.1887 23.0097 29.7367 22.175 30.3501 21.389Z" fill="url(#paint3_linear_1101_3487)"/>
<g style="mix-blend-mode:screen" opacity="0.25">
<path d="M33.5139 1.25835C34.3607 1.25094 35.1957 1.4573 35.9413 1.85836C36.6868 2.25935 37.3188 2.84199 37.7786 3.55217L43.1572 11.7345C38.2214 8.89122 29.9635 8.76481 17.3654 21.6421L29.2613 3.54581C29.7193 2.83718 30.3493 2.25589 31.0929 1.85589C31.8365 1.45595 32.6693 1.25037 33.5139 1.25835Z" fill="white"/>
</g>
<g style="mix-blend-mode:multiply" opacity="0.3">
<path d="M22.1934 41.7441L22.1226 41.7378L22.1792 41.7378C22.187 41.7441 22.187 41.7441 22.1934 41.7441Z" fill="black"/>
</g>
<g style="mix-blend-mode:multiply" opacity="0.3">
<path d="M20.3844 37.3062L20.4155 37.2433L20.4028 37.2807C20.3964 37.2871 20.3894 37.2998 20.3844 37.3062Z" fill="black"/>
</g>
<g style="mix-blend-mode:multiply" opacity="0.3">
<path d="M45.1948 14.1165C44.4543 14.2429 43.7138 14.3446 42.9861 14.5021C42.2583 14.6596 41.5313 14.8121 40.8226 15.0332C40.1012 15.2224 39.4046 15.4943 38.7087 15.7345C38.0191 16.0064 37.336 16.2775 36.6775 16.6123C36.0148 16.933 35.3724 17.2939 34.7537 17.6928C34.135 18.0826 33.5431 18.5134 32.9821 18.9824C32.8406 19.1024 32.7098 19.2225 32.5712 19.3426L32.5708 19.3449L32.5693 19.3469L32.5672 19.348L32.5649 19.3482C32.3181 19.4237 32.0819 19.53 31.8618 19.6646C31.4482 19.9106 31.0974 20.2491 30.837 20.6533L30.3497 21.392L28.711 23.8878C28.7012 23.9019 28.6927 23.9168 28.6856 23.9323L20.0416 37.0815C19.7224 37.5643 19.5403 38.1245 19.5147 38.7024C19.4892 39.2804 19.6211 39.8545 19.8965 40.3635C20.1718 40.8724 20.5803 41.2973 21.0784 41.5928C21.5765 41.8883 22.1456 42.0433 22.7249 42.0413L27.2619 42.0413L27.2619 46.8599C27.1798 45.3062 27.1417 43.7638 27.0907 42.2157C25.4329 42.2786 23.7816 42.304 22.1238 42.3358L22.0919 42.3358L22.0544 42.3294C21.778 42.2574 21.5088 42.16 21.2503 42.0385C20.9939 41.9201 20.7501 41.7763 20.5225 41.6091C20.2896 41.4345 20.0763 41.2354 19.886 41.0152C19.7969 40.9015 19.7149 40.775 19.6328 40.655C19.5528 40.5289 19.4851 40.3956 19.4305 40.2567C19.3656 40.1216 19.3167 39.9794 19.2848 39.8329C19.2409 39.6911 19.2131 39.5447 19.2021 39.3965C19.1847 39.2519 19.1764 39.1064 19.1773 38.9608L19.2021 38.525C19.2398 38.2434 19.2969 37.9647 19.3733 37.691L19.6646 36.9071L19.671 36.8887L19.6958 36.8506C21.3033 34.3357 22.942 31.8364 24.5758 29.3377L27.0511 25.5948L29.5378 21.873C29.9678 21.2416 30.3476 20.654 30.8158 19.9902C31.3263 19.4053 31.895 18.8738 32.5133 18.404C33.118 17.9385 33.7521 17.5123 34.4114 17.1278C35.0674 16.7445 35.7457 16.4007 36.4426 16.0982C37.1322 15.7818 37.8416 15.5297 38.5566 15.2768C38.7843 15.2133 39.0184 15.1441 39.2462 15.0869C39.7462 14.9414 40.2363 14.8093 40.7455 14.714C41.4733 14.5374 42.2201 14.4315 42.9606 14.3164C43.7011 14.2012 44.448 14.1864 45.1948 14.1165Z" fill="black"/>
</g>
<g style="mix-blend-mode:screen" opacity="0.35">
<path d="M26.0727 6.09788C25.1364 7.70313 24.1554 9.27589 23.1935 10.8691C22.219 12.4864 21.2005 14.0726 20.2005 15.6771L17.182 20.4667L14.1132 25.2309C12.0632 28.3971 9.99188 31.5516 7.89935 34.6943L4.74156 39.3949C3.70403 40.9557 2.61558 42.4974 1.55896 44.0518C1.35668 44.4819 1.14161 44.9112 0.944993 45.3413L0.71733 46.0235C0.631824 46.2459 0.570434 46.4767 0.534082 46.7121L0.413852 47.4183C0.394756 47.6521 0.407556 47.8859 0.394826 48.1246C0.382165 48.3614 0.401193 48.5989 0.451337 48.8308C0.469938 49.0676 0.517461 49.3012 0.592785 49.5264C0.655517 49.7567 0.73374 49.9825 0.826883 50.2023C0.934385 50.4141 1.02994 50.638 1.15583 50.8379C1.28172 51.0377 1.41538 51.2418 1.56108 51.4375C1.72586 51.6211 1.87715 51.8104 2.04193 51.9876C2.73758 52.6894 3.54879 53.2665 4.44021 53.6938C3.97066 53.5239 3.51916 53.3079 3.0922 53.0491C2.87267 52.9263 2.66148 52.7892 2.45991 52.6388C2.31846 52.5371 2.1877 52.4269 2.05473 52.3097C2.0362 52.2969 2.01909 52.2823 2.00374 52.2659C0.913664 51.2418 0.22113 49.8658 0.0486331 48.3812C-0.123936 46.8966 0.234706 45.3989 1.06098 44.1528L26.0727 6.09788Z" fill="white"/>
</g>
<g style="mix-blend-mode:screen" opacity="0.35">
<path d="M39.7914 42.999C39.7914 42.999 39.9689 43.9029 40.0955 45.2589C40.1329 45.5943 40.1662 45.9651 40.1902 46.3521C40.2143 46.7391 40.2404 47.1608 40.2914 47.5464C40.3168 47.7427 40.336 47.9447 40.3622 48.153C40.4194 48.3486 40.464 48.545 40.5079 48.7469L40.5785 49.0506L40.6924 49.3331C40.7582 49.5295 40.8364 49.7215 40.9265 49.908L41.2172 50.4518C41.3183 50.6283 41.4513 50.7865 41.5652 50.9511C41.6877 51.1117 41.8187 51.2656 41.9576 51.4122C42.0864 51.5656 42.2284 51.7074 42.382 51.836C42.6699 52.091 42.9722 52.3294 43.2873 52.55C43.6034 52.7463 43.9012 52.9356 44.1918 53.0874C44.4825 53.2392 44.7619 53.3776 45.0087 53.4793C45.2612 53.593 45.4833 53.6813 45.6665 53.7505C46.0399 53.8918 46.2612 53.9624 46.2612 53.9624L46.2358 53.9624C44.4711 53.7875 42.8346 52.9638 41.6441 51.6514C40.4537 50.3389 39.7943 48.6314 39.7942 46.8606L39.7914 42.999Z" fill="white"/>
</g>
<g style="mix-blend-mode:multiply" opacity="0.3">
<path d="M38.3419 23.9101C38.7472 24.4158 39.1397 24.9342 39.5252 25.4518C39.9177 25.9829 40.3229 26.5076 40.7084 27.038C41.4864 28.1058 42.2403 29.18 42.9992 30.2605C43.746 31.3474 44.4992 32.4215 45.2206 33.5211C45.9611 34.6144 46.6825 35.7104 47.3968 36.8192L47.4096 36.8446L47.4159 36.8573C47.6281 37.3185 47.8905 37.7669 48.068 38.2472C48.268 38.7195 48.4413 39.2026 48.5871 39.6942C48.7447 40.1816 48.8776 40.6766 48.9853 41.1773C49.0737 41.6759 49.1755 42.1752 49.2321 42.6809C49.3029 43.1865 49.3269 43.6978 49.3524 44.2035C49.3757 44.7087 49.3736 45.2148 49.346 45.7197C49.3063 46.7087 49.1665 47.6911 48.9287 48.652C48.9276 48.6714 48.9233 48.6905 48.916 48.7085C48.9662 48.2099 48.9726 47.7106 48.9867 47.2113C49.0009 46.712 48.974 46.219 48.9429 45.7197C48.9117 45.2204 48.8601 44.7346 48.8014 44.248C48.7307 43.7536 48.6557 43.2684 48.561 42.7882C48.4782 42.3016 48.3488 41.8341 48.2321 41.3539C48.08 40.8927 47.9662 40.4125 47.7886 39.9577C47.7066 39.7048 47.6118 39.4584 47.5107 39.2119C47.5834 38.6322 47.4936 38.0437 47.2511 37.512C47.2066 37.4237 47.162 37.3291 47.1097 37.2408C47.0779 37.1836 47.046 37.1335 47.0085 37.0763L44.8698 33.822L44.8571 33.8093L38.3419 23.9101Z" fill="black"/>
</g>
<g style="mix-blend-mode:screen" opacity="0.35">
<path d="M58.1037 32.1692L62.8182 39.3346L65.9945 44.1623C66.6227 45.1204 66.98 46.2301 67.0287 47.3742C67.0774 48.5183 66.8156 49.6543 66.271 50.6621C65.7265 51.6699 64.9194 52.5121 63.935 53.0996C62.9507 53.6872 61.8256 53.9983 60.6788 54L52.8581 54C52.6678 53.9936 52.4783 53.9746 52.2923 53.9619C53.8044 53.8418 55.3101 53.7917 56.8229 53.7034C58.3223 53.6398 59.8096 53.5833 61.309 53.5452C61.5122 53.5037 61.7129 53.4509 61.9102 53.387C62.1223 53.3164 62.3281 53.2415 62.5304 53.1596C62.9361 52.9989 63.3277 52.8044 63.7009 52.5784C63.8848 52.4647 64.0545 52.3319 64.2327 52.2118C64.4032 52.0791 64.5552 51.9294 64.72 51.7952C64.8777 51.6497 65.0029 51.4788 65.15 51.3276C65.287 51.1664 65.4119 50.9953 65.5235 50.8156C65.6463 50.6462 65.7502 50.4639 65.8332 50.2718C65.9332 50.0869 66.0138 49.8921 66.0737 49.6906L66.2576 49.084L66.3524 48.4526L66.3969 48.1362L66.3905 47.8078L66.3969 47.163C66.3906 46.942 66.346 46.7273 66.3205 46.5063L66.2498 45.9413C64.8325 43.6974 63.4489 41.4375 62.099 39.1615L61.0735 37.4242C60.7319 36.843 60.3903 36.2681 60.0614 35.6806C59.4072 34.5132 58.7367 33.3507 58.1037 32.1692Z" fill="white"/>
</g>
</g>
<defs>
<linearGradient id="paint0_linear_1101_3487" x1="646.532" y1="-266.547" x2="606.576" y2="-266.547" gradientUnits="userSpaceOnUse">
<stop stop-color="#C33764"/>
<stop offset="1" stop-color="#1D2671"/>
</linearGradient>
<linearGradient id="paint1_linear_1101_3487" x1="642.06" y1="-256.14" x2="632.753" y2="-262.927" gradientUnits="userSpaceOnUse">
<stop stop-color="#E2316A"/>
<stop offset="1" stop-color="#1D2671"/>
</linearGradient>
<linearGradient id="paint2_linear_1101_3487" x1="597.535" y1="-256.236" x2="663.898" y2="-227.04" gradientUnits="userSpaceOnUse">
<stop stop-color="#08ADF8"/>
<stop offset="1" stop-color="#4700FC"/>
</linearGradient>
<linearGradient id="paint3_linear_1101_3487" x1="616.517" y1="-246.665" x2="614.019" y2="-246.665" gradientUnits="userSpaceOnUse">
<stop stop-color="#FCC400"/>
<stop offset="0.162" stop-color="#FBC000"/>
<stop offset="0.307" stop-color="#F8B500"/>
<stop offset="0.446" stop-color="#F3A300"/>
<stop offset="0.581" stop-color="#EB8900"/>
<stop offset="0.712" stop-color="#E26800"/>
<stop offset="0.842" stop-color="#D73F00"/>
<stop offset="0.967" stop-color="#CA1000"/>
<stop offset="1" stop-color="#C70300"/>
</linearGradient>
</defs>
</svg>
