<svg width="95" height="77" viewBox="0 0 95 77" fill="none" xmlns="http://www.w3.org/2000/svg">
<mask id="mask0_463_1773" style="mask-type:luminance" maskUnits="userSpaceOnUse" x="0" y="0" width="95" height="77">
<path d="M-7.62939e-05 76.463L94.7949 76.463L94.7949 1.52588e-05L-8.29786e-05 2.3546e-05L-7.62939e-05 76.463Z" fill="white"/>
</mask>
<g mask="url(#mask0_463_1773)">
<path d="M63.9029 19.989C64.4029 19.989 64.9029 20.007 65.4029 20.034L82.1429 45.534C82.1429 45.543 82.1519 45.543 82.1519 45.552L88.8179 55.698L93.3089 62.534C94.1971 63.8906 94.7024 65.4619 94.7712 67.082C94.84 68.702 94.4699 70.3106 93.6999 71.7376C92.93 73.1647 91.7888 74.3572 90.397 75.1891C89.0051 76.0211 87.4144 76.4615 85.7929 76.464L66.7929 76.464C68.5735 72.8314 69.5008 68.8401 69.5039 64.7946C69.507 60.749 68.5859 56.7563 66.8109 53.121C66.7479 52.996 66.6849 52.862 66.6109 52.737C66.5659 52.656 66.5209 52.585 66.4679 52.504L63.4439 47.896L63.4259 47.878L54.2099 33.858C54.2009 33.849 54.1919 33.831 54.1829 33.822L51.1769 29.242C50.6426 28.4151 49.852 27.7862 48.9261 27.4517C48.0003 27.1171 46.9903 27.0955 46.0509 27.39L46.0502 27.3933L46.0482 27.396L46.0453 27.3977L46.0419 27.398C45.693 27.5048 45.359 27.6554 45.0479 27.846C47.5189 25.3608 50.4561 23.3876 53.6911 22.0395C56.9261 20.6914 60.3953 19.9949 63.8999 19.99L63.9029 19.989Z" fill="url(#paint0_linear_463_1773)"/>
<path d="M66.8109 53.12C68.5897 56.7484 69.5111 60.737 69.5039 64.778C69.5056 66.1563 69.3979 67.5327 69.1819 68.894C69.1803 68.9215 69.1743 68.9485 69.1639 68.974C68.7578 71.5761 67.9583 74.1013 66.7929 76.463L66.3719 76.463C66.0492 76.4635 65.7266 76.4454 65.4059 76.409L65.3699 76.409C62.8748 76.1614 60.5608 74.9951 58.8776 73.1366C57.1944 71.2782 56.2621 68.8604 56.2619 66.353L56.2619 59.526L62.6769 59.526C63.787 59.5271 64.8588 59.1203 65.6885 58.3828C66.5182 57.6453 67.0479 56.6286 67.1769 55.526C67.2799 54.7056 67.1532 53.8727 66.8109 53.12Z" fill="url(#paint1_linear_463_1773)"/>
<path d="M54.9112 4.04601L65.4062 20.034C64.9062 20.007 64.4062 19.989 63.9062 19.989C60.4016 19.9939 56.9324 20.6904 53.6974 22.0385C50.4624 23.3866 47.5253 25.3598 45.0542 27.845C44.4695 28.1933 43.9735 28.6725 43.6053 29.245L42.9162 30.291C42.049 31.4039 41.274 32.5859 40.5992 33.825C40.5853 33.8449 40.5733 33.8659 40.5632 33.888L28.3413 52.507C27.8899 53.1906 27.6325 53.9838 27.5963 54.8022C27.5602 55.6206 27.7467 56.4335 28.1361 57.1542C28.5254 57.8749 29.103 58.4765 29.8072 58.8949C30.5115 59.3133 31.3162 59.5328 32.1353 59.53L38.5502 59.53L38.5502 66.353C38.5499 69.0343 37.4848 71.6056 35.5888 73.5016C33.6929 75.3975 31.1216 76.4627 28.4403 76.463L9.01625 76.463C8.08715 76.468 7.16315 76.3263 6.27825 76.043C5.14055 75.6924 4.08895 75.1071 3.19135 74.325C3.09135 74.244 3.00335 74.164 2.90535 74.083C2.87915 74.065 2.85495 74.0442 2.83325 74.021C1.29195 72.5709 0.312751 70.6226 0.0688546 68.5204C-0.175149 66.4183 0.331954 64.2975 1.50025 62.533L36.8683 8.63301L39.8832 4.04402C40.7032 2.80062 41.819 1.78012 43.1305 1.07411C44.4421 0.368013 45.9083 -0.00138685 47.3978 -0.00118861C48.8873 -0.000990377 50.3534 0.368814 51.6647 1.07521C52.976 1.78161 54.0916 2.80232 54.9112 4.04601Z" fill="url(#paint2_linear_463_1773)"/>
<path d="M42.9131 30.287L40.596 33.821C41.2709 32.5819 42.0458 31.4 42.9131 30.287Z" fill="url(#paint3_linear_463_1773)"/>
<g style="mix-blend-mode:screen" opacity="0.25">
<path d="M47.3865 1.78202C48.5838 1.77152 49.7644 2.06372 50.8186 2.63162C51.8728 3.19942 52.7664 4.02442 53.4165 5.03002L61.0215 16.616C54.0425 12.59 42.3665 12.411 24.5535 30.645L41.3735 5.02102C42.0211 4.01762 42.912 3.19452 43.9634 2.62812C45.0148 2.06182 46.1923 1.77072 47.3865 1.78202Z" fill="white"/>
</g>
<g style="mix-blend-mode:multiply" opacity="0.3">
<path d="M31.3799 59.109L31.2799 59.1L31.3599 59.1C31.3709 59.109 31.3709 59.109 31.3799 59.109Z" fill="black"/>
</g>
<g style="mix-blend-mode:multiply" opacity="0.3">
<path d="M28.8222 52.825L28.8662 52.736L28.8482 52.7889C28.8392 52.7979 28.8292 52.816 28.8222 52.825Z" fill="black"/>
</g>
<g style="mix-blend-mode:multiply" opacity="0.3">
<path d="M63.9023 19.989C62.8553 20.168 61.8083 20.312 60.7793 20.535C59.7503 20.758 58.7223 20.974 57.7203 21.287C56.7003 21.555 55.7153 21.94 54.7313 22.28C53.7563 22.665 52.7904 23.049 51.8594 23.523C50.9223 23.9771 50.014 24.4881 49.1393 25.053C48.2644 25.6049 47.4275 26.2149 46.6343 26.879C46.4343 27.049 46.2493 27.219 46.0533 27.389L46.0527 27.3923L46.0506 27.3951L46.0477 27.3967L46.0444 27.397C45.6955 27.5039 45.3615 27.6544 45.0503 27.845C44.4655 28.1933 43.9695 28.6726 43.6013 29.245L42.9123 30.291L40.5953 33.825C40.5814 33.8449 40.5694 33.866 40.5593 33.888L28.3373 52.507C27.8859 53.1906 27.6285 53.9839 27.5923 54.8022C27.5562 55.6206 27.7427 56.4335 28.1321 57.1542C28.5214 57.8749 29.099 58.4765 29.8033 58.8949C30.5075 59.3133 31.3122 59.5328 32.1313 59.53L38.5463 59.53L38.5463 66.353C38.4303 64.153 38.3763 61.969 38.3043 59.777C35.9603 59.866 33.6254 59.902 31.2814 59.947L31.2363 59.947L31.1833 59.938C30.7924 59.836 30.4118 59.6981 30.0463 59.526C29.6838 59.3584 29.339 59.1547 29.0173 58.918C28.688 58.6708 28.3863 58.3888 28.1173 58.077C27.9913 57.916 27.8753 57.737 27.7593 57.567C27.6462 57.3885 27.5505 57.1997 27.4733 57.003C27.3815 56.8117 27.3123 56.6104 27.2673 56.403C27.2051 56.2021 27.1658 55.9948 27.1503 55.785C27.1257 55.5803 27.114 55.3742 27.1153 55.168L27.1503 54.551C27.2036 54.1522 27.2844 53.7576 27.3923 53.37L27.8043 52.26L27.8133 52.234L27.8483 52.18C30.1213 48.619 32.4383 45.08 34.7483 41.542L38.2483 36.242L41.7643 30.972C42.3723 30.078 42.9093 29.246 43.5713 28.306C44.2931 27.4779 45.0972 26.7253 45.9714 26.06C46.8265 25.4009 47.723 24.7974 48.6553 24.253C49.5828 23.7102 50.5418 23.2234 51.5273 22.795C52.5023 22.347 53.5053 21.99 54.5163 21.632C54.8383 21.542 55.1693 21.444 55.4913 21.363C56.1983 21.157 56.8913 20.97 57.6113 20.835C58.6403 20.585 59.6963 20.435 60.7433 20.272C61.7903 20.109 62.8463 20.088 63.9023 19.989Z" fill="black"/>
</g>
<g style="mix-blend-mode:screen" opacity="0.35">
<path d="M36.8652 8.63501C35.5412 10.908 34.1542 13.135 32.7942 15.391C31.4162 17.681 29.9762 19.927 28.5622 22.199L24.2942 28.981L19.9552 35.727C17.0566 40.2103 14.1279 44.677 11.1692 49.127L6.70433 55.783C5.23733 57.993 3.69833 60.176 2.20433 62.377C1.91833 62.986 1.61423 63.594 1.33623 64.203L1.01433 65.169C0.893432 65.4839 0.806628 65.8107 0.755229 66.144L0.585231 67.144C0.558231 67.475 0.576331 67.806 0.55833 68.144C0.540431 68.4794 0.567333 68.8157 0.638233 69.144C0.664531 69.4793 0.731731 69.8101 0.83823 70.129C0.926929 70.4551 1.03753 70.7748 1.16923 71.086C1.32123 71.386 1.45633 71.703 1.63433 71.986C1.81234 72.269 2.00133 72.558 2.20733 72.835C2.44033 73.095 2.65423 73.363 2.88723 73.614C3.87083 74.6077 5.01783 75.425 6.27823 76.03C5.61433 75.7893 4.97593 75.4835 4.37223 75.117C4.06184 74.9432 3.76323 74.7491 3.47823 74.536C3.27823 74.392 3.09333 74.236 2.90533 74.07C2.87913 74.052 2.85493 74.0312 2.83323 74.008C1.29193 72.5579 0.312736 70.6096 0.0688356 68.5075C-0.175164 66.4053 0.331931 64.2845 1.50023 62.52L36.8652 8.63501Z" fill="white"/>
</g>
<g style="mix-blend-mode:screen" opacity="0.35">
<path d="M56.2623 60.886C56.2623 60.886 56.5132 62.166 56.6922 64.086C56.7452 64.561 56.7922 65.086 56.8262 65.634C56.8602 66.182 56.8972 66.779 56.9692 67.325C57.0052 67.603 57.0323 67.889 57.0693 68.184C57.1503 68.461 57.2133 68.739 57.2753 69.025L57.3752 69.455L57.5362 69.855C57.6293 70.1331 57.7398 70.405 57.8672 70.669L58.2782 71.439C58.4212 71.689 58.6093 71.913 58.7703 72.146C58.9435 72.3734 59.1287 72.5914 59.3252 72.799C59.5073 73.0162 59.708 73.217 59.9252 73.399C60.3323 73.7601 60.7597 74.0977 61.2052 74.41C61.6522 74.688 62.0732 74.956 62.4842 75.171C62.8952 75.386 63.2902 75.582 63.6392 75.726C63.9962 75.887 64.3103 76.012 64.5693 76.11C65.0973 76.31 65.4102 76.41 65.4102 76.41L65.3743 76.41C62.8791 76.1624 60.5651 74.9961 58.8819 73.1377C57.1987 71.2792 56.2664 68.8614 56.2662 66.354L56.2623 60.886Z" fill="white"/>
</g>
<g style="mix-blend-mode:multiply" opacity="0.3">
<path d="M54.213 33.8569C54.786 34.5729 55.341 35.3069 55.886 36.0399C56.441 36.7919 57.014 37.5349 57.559 38.2859C58.659 39.7979 59.725 41.3189 60.798 42.8489C61.854 44.3879 62.919 45.9089 63.939 47.4659C64.986 49.0139 66.006 50.5659 67.016 52.1359L67.034 52.1719L67.043 52.1899C67.343 52.8429 67.714 53.4779 67.965 54.1579C68.2478 54.8267 68.4928 55.5108 68.699 56.2069C68.9218 56.897 69.1097 57.5979 69.262 58.3069C69.387 59.0129 69.531 59.7199 69.611 60.4359C69.711 61.1519 69.745 61.8759 69.781 62.5919C69.814 63.3073 69.811 64.0239 69.772 64.7389C69.7158 66.1393 69.5182 67.5304 69.182 68.8909C69.1804 68.9184 69.1743 68.9454 69.164 68.9709C69.235 68.2649 69.244 67.558 69.264 66.851C69.284 66.1439 69.246 65.4459 69.202 64.7389C69.158 64.0319 69.085 63.3439 69.002 62.6549C68.902 61.9549 68.796 61.2679 68.662 60.5879C68.545 59.8989 68.362 59.2369 68.197 58.5569C67.982 57.9039 67.821 57.2239 67.57 56.5799C67.454 56.2219 67.32 55.8729 67.177 55.5239C67.2798 54.7031 67.1528 53.8698 66.81 53.1169C66.747 52.9919 66.684 52.8579 66.61 52.7329C66.565 52.6519 66.52 52.5809 66.467 52.4999L63.443 47.8919L63.425 47.8739L54.213 33.8569Z" fill="black"/>
</g>
<g style="mix-blend-mode:screen" opacity="0.35">
<path d="M82.1548 45.551L88.8208 55.697L93.3118 62.533C94.2001 63.8896 94.7053 65.4609 94.7741 67.081C94.8429 68.7011 94.4728 70.3096 93.7029 71.7366C92.9329 73.1637 91.7917 74.3562 90.3999 75.1881C89.0081 76.0201 87.4173 76.4606 85.7958 76.463L74.7378 76.463C74.4688 76.454 74.2008 76.427 73.9378 76.409C76.0758 76.239 78.2048 76.168 80.3438 76.043C82.4638 75.953 84.5668 75.873 86.6868 75.819C86.9741 75.7603 87.2579 75.6855 87.5368 75.595C87.8368 75.495 88.1278 75.389 88.4138 75.273C88.9875 75.0454 89.5412 74.7701 90.0689 74.45C90.3289 74.289 90.5688 74.101 90.8208 73.931C91.0618 73.743 91.2768 73.531 91.5098 73.341C91.7328 73.135 91.9098 72.893 92.1178 72.679C92.3115 72.4507 92.488 72.2084 92.6459 71.954C92.8195 71.7141 92.9664 71.4559 93.0838 71.184C93.2251 70.9221 93.3391 70.6463 93.4238 70.361L93.6838 69.502L93.8178 68.608L93.8808 68.16L93.8718 67.695L93.8808 66.782C93.8718 66.469 93.8088 66.165 93.7728 65.852L93.6728 65.052C91.6688 61.8747 89.7125 58.6747 87.8038 55.452L86.3538 52.992C85.8708 52.169 85.3878 51.355 84.9228 50.523C83.9978 48.87 83.0498 47.224 82.1548 45.551Z" fill="white"/>
</g>
</g>
<defs>
<linearGradient id="paint0_linear_463_1773" x1="914.154" y1="-377.426" x2="857.659" y2="-377.426" gradientUnits="userSpaceOnUse">
<stop stop-color="#C33764"/>
<stop offset="1" stop-color="#1D2671"/>
</linearGradient>
<linearGradient id="paint1_linear_463_1773" x1="907.831" y1="-362.689" x2="894.658" y2="-372.281" gradientUnits="userSpaceOnUse">
<stop stop-color="#E2316A"/>
<stop offset="1" stop-color="#1D2671"/>
</linearGradient>
<linearGradient id="paint2_linear_463_1773" x1="844.876" y1="-362.825" x2="938.752" y2="-321.584" gradientUnits="userSpaceOnUse">
<stop stop-color="#08ADF8"/>
<stop offset="1" stop-color="#4700FC"/>
</linearGradient>
<linearGradient id="paint3_linear_463_1773" x1="871.716" y1="-349.272" x2="868.183" y2="-349.272" gradientUnits="userSpaceOnUse">
<stop stop-color="#FCC400"/>
<stop offset="0.162" stop-color="#FBC000"/>
<stop offset="0.307" stop-color="#F8B500"/>
<stop offset="0.446" stop-color="#F3A300"/>
<stop offset="0.581" stop-color="#EB8900"/>
<stop offset="0.712" stop-color="#E26800"/>
<stop offset="0.842" stop-color="#D73F00"/>
<stop offset="0.967" stop-color="#CA1000"/>
<stop offset="1" stop-color="#C70300"/>
</linearGradient>
</defs>
</svg>
