<svg width="45" height="45" viewBox="0 0 45 45" fill="none" xmlns="http://www.w3.org/2000/svg">
<path d="M43.2605 34.369L43.9272 33.1308L34.183 27.8839L33.4407 29.1829L32.3964 28.4868C32.7838 28.1643 33.0812 27.7472 33.2597 27.2758C33.4382 26.8044 33.4917 26.2949 33.415 25.7967C33.3382 25.2986 33.134 24.8287 32.8219 24.4329C32.5099 24.037 32.1008 23.7286 31.6343 23.5377L40.7022 16.9112C41.2501 16.5109 41.6207 15.9131 41.7358 15.2444C41.8508 14.5757 41.7013 13.8885 41.3188 13.3281C40.9362 12.7676 40.3507 12.3779 39.6861 12.2414C39.0214 12.1049 38.3297 12.2323 37.7573 12.5966L33.6894 15.1853C32.6039 15.8762 31.4242 16.4065 30.187 16.7599L24.428 18.4053C23.7671 18.5945 23.1227 18.837 22.5012 19.1307C21.8791 18.8368 21.234 18.5943 20.5724 18.4053L14.8132 16.7599C13.576 16.4065 12.3964 15.8762 11.3109 15.1853L7.24294 12.5966C6.67049 12.2323 5.9788 12.1049 5.31414 12.2414C4.64948 12.3779 4.06398 12.7676 3.68147 13.3281C3.29895 13.8885 3.14942 14.5757 3.2645 15.2444C3.37957 15.9131 3.75023 16.5109 4.29809 16.9112L13.3659 23.5377C12.8993 23.7284 12.4899 24.0367 12.1777 24.4326C11.8656 24.8284 11.6612 25.2983 11.5844 25.7966C11.5077 26.2949 11.5613 26.8045 11.7399 27.2759C11.9185 27.7473 12.2162 28.1645 12.6038 28.4868L11.5596 29.1829L10.8173 27.8839L1.073 33.1308L1.73974 34.369L6.10729 32.0172L10.9755 41.1452L8.06013 43.0005L8.8151 44.1868L17.1151 38.9051L16.1383 37.1956L17.9307 36.0007C18.7562 35.4491 19.727 35.1552 20.7199 35.1561C21.3218 35.1561 21.9207 35.0715 22.499 34.9049C23.0781 35.0716 23.6777 35.1562 24.2803 35.1561C25.2732 35.1552 26.2441 35.4491 27.0697 36.0007L28.862 37.1956L27.8851 38.9051L36.1851 44.1868L36.9401 43.0005L34.0247 41.1452L38.8929 32.0172L43.2605 34.369ZM32.0272 26.4637C31.9976 26.6699 31.9254 26.8676 31.8152 27.0443C31.705 27.221 31.5592 27.3728 31.387 27.49L31.1479 27.6544L30.2849 27.079C30.1664 27.0003 30.0747 26.8873 30.022 26.7551C29.8161 26.2414 29.5768 25.7417 29.3055 25.2593L29.6383 25.0173C29.8795 24.8419 30.1672 24.7416 30.4652 24.729C30.7632 24.7164 31.0583 24.7921 31.3134 24.9466C31.5686 25.1011 31.7724 25.3275 31.8994 25.5974C32.0264 25.8673 32.0708 26.1687 32.0272 26.4637ZM24.8142 19.7575L30.5734 18.1121C31.9408 17.7214 33.2446 17.1353 34.4443 16.3717L38.5123 13.7829C38.7767 13.6147 39.0961 13.5559 39.4031 13.6189C39.7101 13.682 39.9805 13.862 40.1572 14.1208C40.3339 14.3797 40.403 14.6971 40.3498 15.006C40.2967 15.3148 40.1255 15.5909 39.8725 15.7758L28.539 24.058C27.7913 23.02 26.8905 22.1015 25.8673 21.3338L24.6867 20.4484C24.48 20.2934 24.2692 20.1453 24.0544 20.0043C24.3049 19.913 24.5581 19.8307 24.8142 19.7575ZM12.1654 40.388L7.34544 31.3505L10.2767 29.7722L15.2289 38.4385L12.1654 40.388ZM17.1506 34.8307L15.4389 35.9717L12.2589 30.4068L13.8401 29.3526L20.2603 33.7664C19.1488 33.8449 18.077 34.2117 17.1506 34.8307ZM27.8498 34.8307C26.7933 34.1248 25.5509 33.7486 24.2803 33.7499C23.2629 33.7512 22.2692 33.4426 21.4315 32.8651L13.6132 27.49C13.4479 27.3764 13.3069 27.2311 13.1982 27.0625C13.0896 26.8939 13.0155 26.7054 12.9803 26.5079C12.9451 26.3105 12.9495 26.108 12.9931 25.9123C13.0368 25.7165 13.1189 25.5314 13.2347 25.3677C13.3505 25.2039 13.4977 25.0648 13.6677 24.9584C13.8377 24.852 14.0272 24.7804 14.2251 24.7478C14.423 24.7152 14.6254 24.7222 14.8205 24.7685C15.0157 24.8148 15.1997 24.8993 15.3619 25.0173L21.3835 29.3966L21.797 28.828L22.2118 28.2603L22.2105 28.2594L22.2096 28.2587L5.12781 15.7758C4.87478 15.5909 4.70359 15.3148 4.65045 15.006C4.5973 14.6971 4.66636 14.3797 4.84303 14.1209C5.0197 13.862 5.29012 13.682 5.5971 13.6189C5.90409 13.5559 6.22356 13.6147 6.48797 13.7829L10.5559 16.3717C11.7556 17.1353 13.0594 17.7215 14.4269 18.1121L20.186 19.7575C21.506 20.1336 22.7455 20.7492 23.8429 21.5734L25.0235 22.4589C26.6731 23.6959 27.9507 25.3629 28.7163 27.2773C28.8743 27.6738 29.1493 28.0128 29.5048 28.2491L32.7413 30.4068L29.5613 35.9717L27.8498 34.8307ZM32.8348 40.388L29.7713 38.4385L34.7235 29.7722L37.6548 31.3505L32.8348 40.388Z" fill="black"/>
<path d="M14.7107 14.3988C14.8927 14.7253 15.1591 14.9969 15.482 15.1851C15.8049 15.3733 16.1725 15.4714 16.5463 15.4689H28.4539C28.8272 15.4689 29.1938 15.3698 29.5163 15.1818C29.8387 14.9938 30.1056 14.7236 30.2895 14.3988C30.4734 14.074 30.5678 13.7062 30.5631 13.3329C30.5584 12.9597 30.4547 12.5943 30.2627 12.2743L24.3089 2.35119C24.1215 2.03885 23.8564 1.78044 23.5394 1.60096C23.2224 1.42149 22.8644 1.32716 22.5001 1.32715C22.1358 1.32714 21.7778 1.42146 21.4608 1.60091C21.1438 1.78037 20.8787 2.03885 20.6913 2.35119L14.7375 12.2743C14.543 12.5935 14.438 12.9591 14.4333 13.3329C14.4286 13.7066 14.5244 14.0748 14.7107 14.3988ZM15.9434 12.9978L21.8972 3.07466C21.9597 2.97057 22.0481 2.88444 22.1537 2.82463C22.2593 2.76483 22.3787 2.7334 22.5001 2.7334C22.6215 2.7334 22.7408 2.76483 22.8465 2.82463C22.9521 2.88444 23.0405 2.97057 23.103 3.07466L29.0568 12.9978C29.1208 13.1045 29.1553 13.2263 29.1569 13.3507C29.1585 13.4751 29.127 13.5977 29.0657 13.7059C29.0044 13.8142 28.9155 13.9043 28.808 13.9669C28.7005 14.0296 28.5783 14.0626 28.4539 14.0626H16.5463C16.4218 14.0626 16.2997 14.0296 16.1922 13.9669C16.0847 13.9043 15.9958 13.8142 15.9345 13.7059C15.8732 13.5977 15.8417 13.4751 15.8433 13.3507C15.8448 13.2263 15.8794 13.1045 15.9434 12.9978Z" fill="black"/>
<path d="M23.2031 4.92188H21.7969V9.84375H23.2031V4.92188Z" fill="black"/>
<path d="M23.2031 11.25H21.7969V12.6562H23.2031V11.25Z" fill="black"/>
<path d="M40.3162 29.0717C41.092 26.9677 41.4876 24.7426 41.4845 22.5001C41.4847 21.275 41.3673 20.0527 41.1338 18.8501L39.7535 19.1189C39.9698 20.233 40.0785 21.3653 40.0783 22.5001C40.0812 24.5764 39.7151 26.6367 38.9968 28.5848L40.3162 29.0717Z" fill="black"/>
<path d="M3.86635 18.8501C3.63288 20.0527 3.51544 21.275 3.51564 22.5001C3.51263 24.7426 3.90823 26.9677 4.68397 29.0717L6.00336 28.5848C5.28514 26.6367 4.91895 24.5764 4.92189 22.5001C4.92166 21.3653 5.03042 20.233 5.24668 19.1189L3.86635 18.8501Z" fill="black"/>
<path d="M17.7672 5.56649L17.3894 4.21191C13.4875 5.31343 10.0368 7.62656 7.5354 10.8173L8.6433 11.6833C10.9593 8.72874 14.1544 6.5867 17.7672 5.56649Z" fill="black"/>
<path d="M36.3568 11.6832L37.4648 10.8172C34.9894 7.66076 31.5847 5.36209 27.7317 4.24609L27.345 5.5981C30.9125 6.63172 34.065 8.76039 36.3568 11.6832Z" fill="black"/>
</svg>
