<svg width="22" height="22" viewBox="0 0 22 22" fill="none" xmlns="http://www.w3.org/2000/svg">
<path d="M13.8002 11.4333L11.3669 15.6333C11.3002 15.7333 11.3002 15.8666 11.3669 15.9666L13.8002 20.1666C13.8669 20.2666 13.9669 20.3333 14.0669 20.3333H18.9002C19.0002 20.3333 19.1336 20.2666 19.1669 20.1666L21.6002 15.9666C21.6669 15.8666 21.6669 15.7333 21.6002 15.6333L19.1669 11.4333C19.1002 11.3333 19.0002 11.2666 18.9002 11.2666H14.0669C13.9669 11.2666 13.8336 11.3333 13.8002 11.4333ZM18.7336 11.8999L20.9669 15.7666L18.7336 19.6666H14.2669L12.0336 15.7999L14.2669 11.9333H18.7336V11.8999Z" fill="white"/>
<path d="M16.5001 17.6667C17.5334 17.6667 18.4001 16.8334 18.4001 15.7667C18.4001 14.7334 17.5668 13.8667 16.5001 13.8667C15.4668 13.8667 14.6001 14.7 14.6001 15.7667C14.6001 16.8334 15.4668 17.6667 16.5001 17.6667ZM16.5001 14.5334C17.1668 14.5334 17.7334 15.1 17.7334 15.7667C17.7334 16.4334 17.1668 17 16.5001 17C15.8001 17 15.2668 16.4334 15.2668 15.7667C15.2668 15.1 15.8001 14.5334 16.5001 14.5334Z" fill="white"/>
<path d="M0.533496 10.6335L2.0335 11.1669C2.06683 11.3002 2.1335 11.4002 2.16683 11.5335L1.50016 12.9669C1.4335 13.1002 1.46683 13.2335 1.56683 13.3335L2.56683 14.3335C2.66683 14.4335 2.80016 14.4669 2.9335 14.4002L4.36683 13.7335C4.46683 13.8002 4.60016 13.8335 4.7335 13.8669L5.26683 15.3669C5.30016 15.5002 5.4335 15.5669 5.56683 15.5669H6.96683C7.10016 15.5669 7.2335 15.4669 7.26683 15.3669L7.80016 13.8669C7.9335 13.8335 8.0335 13.7669 8.16683 13.7335L9.60016 14.4002C9.7335 14.4669 9.86683 14.4335 9.96683 14.3335L10.9668 13.3335C11.0668 13.2335 11.1002 13.1002 11.0335 12.9669L10.3668 11.5335C10.4335 11.4335 10.4668 11.3002 10.5002 11.1669L12.0002 10.6335C12.1335 10.6002 12.2002 10.4669 12.2002 10.3335V8.93353C12.2002 8.8002 12.1002 8.66686 12.0002 8.63353L10.5002 8.10019C10.4668 7.96686 10.4002 7.86686 10.3668 7.73353L11.0335 6.3002C11.1002 6.16686 11.0668 6.03353 10.9668 5.93353L9.96683 4.93353C9.86683 4.83353 9.7335 4.8002 9.60016 4.86686L8.16683 5.53353C8.06683 5.46686 7.9335 5.43353 7.80016 5.4002L7.26683 3.9002C7.2335 3.76686 7.10016 3.7002 6.96683 3.7002H5.56683C5.4335 3.7002 5.30016 3.8002 5.26683 3.9002L4.7335 5.4002C4.60016 5.43353 4.50016 5.5002 4.36683 5.53353L2.9335 4.86686C2.80016 4.8002 2.66683 4.83353 2.56683 4.93353L1.56683 5.93353C1.46683 6.03353 1.4335 6.16686 1.50016 6.3002L2.16683 7.73353C2.10016 7.83353 2.06683 7.96686 2.0335 8.10019L0.533496 8.63353C0.433496 8.66686 0.333496 8.8002 0.333496 8.93353V10.3335C0.333496 10.4669 0.433496 10.6002 0.533496 10.6335ZM0.966829 9.16686L2.40016 8.66686C2.50016 8.63353 2.56683 8.56686 2.60016 8.46686C2.66683 8.26686 2.7335 8.1002 2.8335 7.9002C2.86683 7.8002 2.86683 7.7002 2.8335 7.60019L2.20016 6.23353L2.86683 5.56686L4.2335 6.2002C4.3335 6.23353 4.4335 6.23353 4.5335 6.2002C4.70016 6.1002 4.90016 6.03353 5.10016 5.96686C5.20016 5.93353 5.26683 5.86686 5.30016 5.76686L5.80016 4.33353H6.7335L7.2335 5.76686C7.26683 5.86686 7.3335 5.93353 7.4335 5.96686C7.6335 6.03353 7.80016 6.1002 8.00016 6.2002C8.10016 6.23353 8.20016 6.23353 8.30016 6.2002L9.66683 5.56686L10.3335 6.23353L9.70016 7.60019C9.66683 7.7002 9.66683 7.8002 9.70016 7.9002C9.80016 8.06686 9.86683 8.26686 9.9335 8.46686C9.96683 8.56686 10.0335 8.63353 10.1335 8.66686L11.5668 9.16686V10.1002L10.1335 10.6002C10.0335 10.6335 9.96683 10.7002 9.9335 10.8002C9.86683 11.0002 9.80016 11.1669 9.70016 11.3669C9.66683 11.4669 9.66683 11.5669 9.70016 11.6669L10.3335 13.0335L9.66683 13.7002L8.30016 13.0669C8.20016 13.0335 8.10016 13.0335 8.00016 13.0669C7.8335 13.1669 7.6335 13.2335 7.4335 13.3002C7.3335 13.3335 7.26683 13.4002 7.2335 13.5002L6.7335 14.9335H5.80016L5.30016 13.5002C5.26683 13.4002 5.20016 13.3335 5.10016 13.3002C4.90016 13.2335 4.7335 13.1669 4.5335 13.0669C4.4335 13.0335 4.3335 13.0335 4.2335 13.0669L2.86683 13.7002L2.20016 13.0335L2.8335 11.6669C2.86683 11.5669 2.86683 11.4669 2.8335 11.3669C2.7335 11.2002 2.66683 11.0002 2.60016 10.8335C2.56683 10.7335 2.50016 10.6669 2.40016 10.6335L0.966829 10.1335V9.16686Z" fill="white"/>
<path d="M6.2667 12.0334C7.5667 12.0334 8.6667 10.9667 8.6667 9.6334C8.6667 8.30006 7.60003 7.2334 6.2667 7.2334C4.93337 7.2334 3.8667 8.30006 3.8667 9.6334C3.8667 10.9667 4.93337 12.0334 6.2667 12.0334ZM6.2667 7.90007C7.23337 7.90007 8.00003 8.66673 8.00003 9.6334C8.00003 10.6001 7.23337 11.3667 6.2667 11.3667C5.30003 11.3667 4.53337 10.6001 4.53337 9.6334C4.53337 8.66673 5.30003 7.90007 6.2667 7.90007Z" fill="white"/>
<path d="M19.0336 9.9668C19.2003 9.9668 19.367 9.83346 19.367 9.63346V7.13346H19.967C20.1336 7.13346 20.3003 7.00013 20.3003 6.80013C20.3003 6.63346 20.167 6.4668 19.967 6.4668H18.1336C17.967 6.4668 17.8003 6.60013 17.8003 6.80013C17.8003 6.9668 17.9336 7.13346 18.1336 7.13346H18.7336V9.63346C18.7003 9.80013 18.8336 9.9668 19.0336 9.9668Z" fill="white"/>
<path d="M14.3666 8.80016C14.5333 8.80016 14.7 8.66683 14.7 8.46683V6.00016H15.3C15.4666 6.00016 15.6333 5.86683 15.6333 5.66683C15.6333 5.50016 15.5 5.3335 15.3 5.3335H13.4666C13.3 5.3335 13.1333 5.46683 13.1333 5.66683C13.1333 5.8335 13.2666 6.00016 13.4666 6.00016H14.0666V8.50016C14.0333 8.66683 14.1666 8.80016 14.3666 8.80016Z" fill="white"/>
<path d="M19.2004 2.06689H17.367C17.2004 2.06689 17.0337 2.20023 17.0337 2.40023C17.0337 2.60023 17.167 2.73356 17.367 2.73356H17.967V5.23356C17.967 5.40023 18.1004 5.56689 18.3004 5.56689C18.467 5.56689 18.6337 5.43356 18.6337 5.23356V2.70023H19.2337C19.4004 2.70023 19.567 2.56689 19.567 2.36689C19.567 2.16689 19.4004 2.06689 19.2004 2.06689Z" fill="white"/>
<path d="M16.3002 3.93338L14.1336 2.70004L14.4336 2.20004C14.5336 2.03338 14.4669 1.83338 14.3002 1.76671C14.1336 1.66671 13.9336 1.73338 13.8669 1.90004L12.9669 3.46671C12.8669 3.63338 12.9336 3.83338 13.1002 3.90004C13.2669 4.00004 13.4669 3.93338 13.5336 3.76671L13.8336 3.26671L16.0002 4.50004C16.1669 4.60004 16.3669 4.53338 16.4336 4.36671C16.5336 4.20004 16.4669 4.00004 16.3002 3.93338Z" fill="white"/>
</svg>
