<svg width="22" height="22" viewBox="0 0 22 22" fill="none" xmlns="http://www.w3.org/2000/svg">
<g clip-path="url(#clip0_463_2369)">
<path d="M2.84933 17.7649C2.61431 17.8765 2.41569 18.0524 2.27645 18.2722C2.13721 18.492 2.06303 18.7467 2.06249 19.0069V21.3127H2.74999V19.0069C2.74996 18.856 2.79955 18.7093 2.89111 18.5894C2.98267 18.4695 3.11113 18.3831 3.25668 18.3434L4.97543 17.8749C5.07739 17.8471 5.1844 17.8432 5.28812 17.8634C5.39185 17.8837 5.4895 17.9276 5.5735 17.9918C5.6575 18.0559 5.72557 18.1386 5.77244 18.2333C5.81931 18.328 5.84371 18.4323 5.84374 18.538V21.3127H6.53124V18.538C6.53123 18.3266 6.48247 18.118 6.38876 17.9285C6.29504 17.739 6.1589 17.5737 5.9909 17.4453C5.8229 17.317 5.62757 17.2292 5.42009 17.1886C5.21261 17.148 4.99858 17.1558 4.79461 17.2114L4.78121 17.2152C5.02231 16.9149 5.15451 16.5416 5.15624 16.1565C5.15744 15.8418 5.07222 15.5328 4.90988 15.2632C4.74753 14.9936 4.51429 14.7738 4.23558 14.6277C3.95687 14.4816 3.64339 14.4148 3.32932 14.4346C3.01525 14.4544 2.71265 14.56 2.4545 14.74C2.19636 14.92 1.99258 15.1674 1.86539 15.4552C1.7382 15.7431 1.69248 16.0603 1.73321 16.3724C1.77394 16.6844 1.89956 16.9793 2.09637 17.2248C2.29319 17.4704 2.55364 17.6572 2.84933 17.7649ZM3.43749 15.1252C3.64145 15.1252 3.84083 15.1857 4.01042 15.299C4.18001 15.4123 4.31219 15.5734 4.39024 15.7618C4.46829 15.9503 4.48871 16.1576 4.44892 16.3577C4.40913 16.5577 4.31091 16.7415 4.16669 16.8857C4.02247 17.0299 3.83872 17.1281 3.63868 17.1679C3.43863 17.2077 3.23128 17.1873 3.04285 17.1092C2.85441 17.0312 2.69335 16.899 2.58004 16.7294C2.46672 16.5598 2.40624 16.3604 2.40624 16.1565C2.40624 15.883 2.51489 15.6207 2.70828 15.4273C2.90168 15.2339 3.16398 15.1252 3.43749 15.1252Z" fill="white"/>
<path d="M5.5 18.9062H4.8125V21.3125H5.5V18.9062Z" fill="white"/>
<path d="M13.75 7.56241V8.93741H14.4375V7.56241C14.4375 7.47124 14.4737 7.38381 14.5382 7.31934C14.6026 7.25488 14.6901 7.21866 14.7812 7.21866H16.1562C16.2474 7.21866 16.3349 7.25488 16.3993 7.31934C16.4638 7.38381 16.5 7.47124 16.5 7.56241V8.93741H17.1875V7.56241C17.1867 7.30152 17.0869 7.05064 16.9082 6.86054C16.7296 6.67043 16.4853 6.55528 16.225 6.53838C16.3611 6.39114 16.4513 6.20741 16.4846 6.00968C16.5179 5.81195 16.4929 5.60881 16.4125 5.4251C16.3322 5.24139 16.2 5.0851 16.0322 4.97534C15.8644 4.86558 15.6682 4.80713 15.4677 4.80713C15.2672 4.80713 15.071 4.86558 14.9032 4.97534C14.7354 5.0851 14.6033 5.24139 14.5229 5.4251C14.4425 5.60881 14.4175 5.81195 14.4508 6.00968C14.4841 6.20741 14.5743 6.39114 14.7104 6.53838C14.4505 6.55578 14.2068 6.67115 14.0285 6.86121C13.8503 7.05126 13.7507 7.30185 13.75 7.56241ZM15.4688 5.49991C15.5367 5.49991 15.6032 5.52007 15.6597 5.55784C15.7163 5.59562 15.7603 5.6493 15.7863 5.71211C15.8124 5.77493 15.8192 5.84404 15.8059 5.91072C15.7926 5.97741 15.7599 6.03866 15.7118 6.08673C15.6637 6.1348 15.6025 6.16754 15.5358 6.18081C15.4691 6.19407 15.4 6.18726 15.3372 6.16125C15.2744 6.13523 15.2207 6.09117 15.1829 6.03464C15.1452 5.97811 15.125 5.91165 15.125 5.84366C15.125 5.75249 15.1612 5.66506 15.2257 5.60059C15.2901 5.53613 15.3776 5.49991 15.4688 5.49991Z" fill="white"/>
<path d="M9.62501 9.96866V12.0312C9.62465 12.0953 9.64227 12.1583 9.67587 12.213C9.70947 12.2677 9.75769 12.3119 9.8151 12.3405L10.3352 12.6004L10.6583 15.5082C10.668 15.592 10.7082 15.6693 10.7712 15.7254C10.8342 15.7815 10.9156 15.8125 11 15.8124H11.6875C11.7721 15.8124 11.8538 15.7812 11.9168 15.7248C11.9799 15.6683 12.0199 15.5906 12.0292 15.5065L12.3523 12.5987L12.8724 12.3388C12.9296 12.3103 12.9776 12.2664 13.0112 12.212C13.0448 12.1577 13.0625 12.095 13.0625 12.0312V9.96866C13.0617 9.70777 12.9619 9.45689 12.7832 9.26679C12.6046 9.07668 12.3604 8.96153 12.1 8.94463C12.2361 8.79739 12.3263 8.61366 12.3596 8.41593C12.393 8.2182 12.3679 8.01506 12.2875 7.83135C12.2072 7.64764 12.075 7.49135 11.9072 7.38159C11.7394 7.27183 11.5432 7.21338 11.3427 7.21338C11.1422 7.21338 10.946 7.27183 10.7782 7.38159C10.6104 7.49135 10.4783 7.64764 10.3979 7.83135C10.3176 8.01506 10.2925 8.2182 10.3258 8.41593C10.3591 8.61366 10.4493 8.79739 10.5854 8.94463C10.3255 8.96203 10.0818 9.0774 9.90351 9.26746C9.72526 9.45751 9.62573 9.7081 9.62501 9.96866ZM11.3438 7.90616C11.4117 7.90616 11.4782 7.92632 11.5347 7.96409C11.5913 8.00187 11.6353 8.05555 11.6613 8.11836C11.6874 8.18118 11.6942 8.25029 11.6809 8.31697C11.6676 8.38366 11.6349 8.44491 11.5868 8.49298C11.5387 8.54105 11.4775 8.57379 11.4108 8.58706C11.3441 8.60032 11.275 8.59351 11.2122 8.5675C11.1494 8.54148 11.0957 8.49742 11.0579 8.44089C11.0202 8.38436 11 8.3179 11 8.24991C11 8.15874 11.0362 8.07131 11.1007 8.00684C11.1652 7.94238 11.2526 7.90616 11.3438 7.90616ZM10.3125 9.96866C10.3125 9.87749 10.3487 9.79006 10.4132 9.72559C10.4777 9.66113 10.5651 9.62491 10.6563 9.62491H12.0313C12.1224 9.62491 12.2099 9.66113 12.2743 9.72559C12.3388 9.79006 12.375 9.87749 12.375 9.96866V11.8187L11.8776 12.0673C11.8262 12.0929 11.7821 12.1311 11.7492 12.1782C11.7164 12.2254 11.6959 12.28 11.6896 12.3371L11.3781 15.1249H11.3094L11 12.3371C10.9937 12.28 10.9732 12.2254 10.9404 12.1782C10.9075 12.1311 10.8634 12.0929 10.812 12.0673L10.3125 11.8187V9.96866Z" fill="white"/>
<path d="M13.75 14.4374C13.7497 14.5016 13.7673 14.5646 13.8009 14.6192C13.8345 14.6739 13.8827 14.7181 13.9401 14.7468L14.4602 15.0067L14.7833 17.9144C14.793 17.9982 14.8332 18.0756 14.8962 18.1316C14.9592 18.1877 15.0406 18.2187 15.125 18.2187H15.8125C15.8971 18.2187 15.9788 18.1875 16.0418 18.131C16.1049 18.0746 16.1449 17.9968 16.1542 17.9127L16.4773 15.0049L16.9974 14.7451C17.0546 14.7165 17.1026 14.6726 17.1362 14.6183C17.1698 14.5639 17.1875 14.5013 17.1875 14.4374V12.3749C17.1867 12.114 17.0869 11.8631 16.9082 11.673C16.7296 11.4829 16.4854 11.3678 16.225 11.3509C16.3611 11.2036 16.4513 11.0199 16.4846 10.8222C16.518 10.6245 16.4929 10.4213 16.4125 10.2376C16.3322 10.0539 16.2 9.8976 16.0322 9.78784C15.8644 9.67808 15.6682 9.61963 15.4677 9.61963C15.2672 9.61963 15.071 9.67808 14.9032 9.78784C14.7354 9.8976 14.6033 10.0539 14.5229 10.2376C14.4426 10.4213 14.4175 10.6245 14.4508 10.8222C14.4841 11.0199 14.5743 11.2036 14.7104 11.3509C14.4505 11.3683 14.2068 11.4837 14.0285 11.6737C13.8503 11.8638 13.7507 12.1143 13.75 12.3749V14.4374ZM15.4688 10.3124C15.5367 10.3124 15.6032 10.3326 15.6597 10.3703C15.7163 10.4081 15.7603 10.4618 15.7863 10.5246C15.8124 10.5874 15.8192 10.6565 15.8059 10.7232C15.7926 10.7899 15.7599 10.8512 15.7118 10.8992C15.6637 10.9473 15.6025 10.98 15.5358 10.9933C15.4691 11.0066 15.4 10.9998 15.3372 10.9737C15.2744 10.9477 15.2207 10.9037 15.1829 10.8471C15.1452 10.7906 15.125 10.7241 15.125 10.6562C15.125 10.565 15.1612 10.4776 15.2257 10.4131C15.2902 10.3486 15.3776 10.3124 15.4688 10.3124ZM14.4375 12.3749C14.4375 12.2837 14.4737 12.1963 14.5382 12.1318C14.6027 12.0674 14.6901 12.0312 14.7813 12.0312H16.1563C16.2474 12.0312 16.3349 12.0674 16.3993 12.1318C16.4638 12.1963 16.5 12.2837 16.5 12.3749V14.225L16.0026 14.4735C15.9512 14.4992 15.9071 14.5373 15.8742 14.5845C15.8414 14.6316 15.8209 14.6862 15.8146 14.7433L15.5031 17.5312H15.4344L15.125 14.7433C15.1187 14.6862 15.0982 14.6316 15.0654 14.5845C15.0325 14.5373 14.9884 14.4992 14.937 14.4735L14.4375 14.225V12.3749Z" fill="white"/>
<path d="M20.35 8.94463C20.4861 8.79739 20.5763 8.61366 20.6096 8.41593C20.643 8.2182 20.6179 8.01506 20.5375 7.83135C20.4572 7.64764 20.325 7.49135 20.1572 7.38159C19.9894 7.27183 19.7932 7.21338 19.5927 7.21338C19.3922 7.21338 19.196 7.27183 19.0282 7.38159C18.8604 7.49135 18.7283 7.64764 18.6479 7.83135C18.5676 8.01506 18.5425 8.2182 18.5758 8.41593C18.6091 8.61366 18.6993 8.79739 18.8354 8.94463C18.5755 8.96203 18.3318 9.0774 18.1535 9.26746C17.9753 9.45751 17.8757 9.7081 17.875 9.96866V12.0312C17.8747 12.0953 17.8923 12.1583 17.9259 12.213C17.9595 12.2677 18.0077 12.3119 18.0651 12.3405L18.5852 12.6004L18.9083 15.5082C18.918 15.592 18.9582 15.6693 19.0212 15.7254C19.0842 15.7815 19.1656 15.8125 19.25 15.8124H19.9375C20.0221 15.8124 20.1038 15.7812 20.1668 15.7248C20.2299 15.6683 20.2699 15.5906 20.2792 15.5065L20.6023 12.5987L21.1224 12.3388C21.1796 12.3103 21.2276 12.2664 21.2612 12.212C21.2948 12.1577 21.3125 12.095 21.3125 12.0312V9.96866C21.3117 9.70777 21.2119 9.45689 21.0332 9.26679C20.8546 9.07668 20.6104 8.96153 20.35 8.94463ZM19.5938 7.90616C19.6617 7.90616 19.7282 7.92632 19.7847 7.96409C19.8413 8.00187 19.8853 8.05555 19.9113 8.11836C19.9374 8.18118 19.9442 8.25029 19.9309 8.31697C19.9176 8.38366 19.8849 8.44491 19.8368 8.49298C19.7887 8.54105 19.7275 8.57379 19.6608 8.58706C19.5941 8.60032 19.525 8.59351 19.4622 8.5675C19.3994 8.54148 19.3457 8.49742 19.3079 8.44089C19.2702 8.38436 19.25 8.3179 19.25 8.24991C19.25 8.15874 19.2862 8.07131 19.3507 8.00684C19.4152 7.94238 19.5026 7.90616 19.5938 7.90616ZM20.625 11.8187L20.1276 12.0673C20.0762 12.0929 20.0321 12.1311 19.9992 12.1782C19.9664 12.2254 19.9459 12.28 19.9396 12.3371L19.6281 15.1249H19.5594L19.25 12.3371C19.2437 12.28 19.2232 12.2254 19.1904 12.1782C19.1575 12.1311 19.1134 12.0929 19.062 12.0673L18.5625 11.8187V9.96866C18.5625 9.87749 18.5987 9.79006 18.6632 9.72559C18.7277 9.66113 18.8151 9.62491 18.9063 9.62491H20.2813C20.3724 9.62491 20.4599 9.66113 20.5243 9.72559C20.5888 9.79006 20.625 9.87749 20.625 9.96866V11.8187Z" fill="white"/>
<path d="M2.67887 11.4443L2.11305 12.0098C2.06514 12.0577 2.02713 12.1145 2.0012 12.1771C1.97526 12.2397 1.96191 12.3068 1.96191 12.3745C1.96191 12.4423 1.97526 12.5093 2.0012 12.5719C2.02713 12.6345 2.06514 12.6914 2.11305 12.7392L2.43618 13.0624L1.99137 13.5072L2.47743 13.9932L3.04359 13.4271C3.0915 13.3792 3.12951 13.3223 3.15544 13.2598C3.18138 13.1972 3.19473 13.1301 3.19473 13.0624C3.19473 12.9946 3.18138 12.9275 3.15544 12.865C3.12951 12.8024 3.0915 12.7455 3.04359 12.6976L2.72046 12.3752L3.16493 11.9314L2.67887 11.4443Z" fill="white"/>
<path d="M4.39762 11.4443L3.8318 12.0098C3.78389 12.0577 3.74588 12.1145 3.71995 12.1771C3.69401 12.2397 3.68066 12.3068 3.68066 12.3745C3.68066 12.4423 3.69401 12.5093 3.71995 12.5719C3.74588 12.6345 3.78389 12.6914 3.8318 12.7392L4.15493 13.0624L3.71046 13.5072L4.19652 13.9932L4.76268 13.4271C4.81059 13.3792 4.8486 13.3223 4.87454 13.2598C4.90047 13.1972 4.91382 13.1301 4.91382 13.0624C4.91382 12.9946 4.90047 12.9275 4.87454 12.865C4.8486 12.8024 4.81059 12.7455 4.76268 12.6976L4.43921 12.3752L4.88368 11.9314L4.39762 11.4443Z" fill="white"/>
<path d="M4.8125 8.9375C5.62835 8.9375 6.42587 8.69557 7.10423 8.24231C7.78258 7.78905 8.31129 7.14482 8.6235 6.39107C8.93571 5.63733 9.0174 4.80793 8.85824 4.00775C8.69907 3.20758 8.30621 2.47258 7.72932 1.89569C7.15242 1.31879 6.41742 0.925927 5.61725 0.766763C4.81708 0.607599 3.98768 0.689287 3.23393 1.0015C2.48019 1.31371 1.83595 1.84242 1.38269 2.52077C0.929427 3.19913 0.6875 3.99665 0.6875 4.8125C0.688683 5.90616 1.12366 6.95468 1.89699 7.72801C2.67032 8.50134 3.71885 8.93632 4.8125 8.9375ZM8.25 4.8125C8.25048 5.4631 8.06619 6.10045 7.71858 6.6504C7.37096 7.20034 6.87432 7.64026 6.28645 7.91897C5.69857 8.19767 5.04363 8.3037 4.39785 8.22471C3.75207 8.14572 3.142 7.88496 2.63863 7.47278L7.47209 2.63794C7.97568 3.25068 8.25067 4.01938 8.25 4.8125ZM4.8125 1.375C5.60502 1.37436 6.37317 1.64896 6.98569 2.15188L2.15256 6.98672C1.7403 6.48338 1.47946 5.8733 1.4004 5.2275C1.32134 4.58169 1.42731 3.92671 1.70599 3.33878C1.98466 2.75086 2.42458 2.25417 2.97453 1.90651C3.52449 1.55886 4.16187 1.37454 4.8125 1.375Z" fill="white"/>
<path d="M8.25 19.25H7.5625V19.9375H8.25V19.25Z" fill="white"/>
<path d="M9.625 18.5625H8.9375V19.25H9.625V18.5625Z" fill="white"/>
<path d="M11 17.875H10.3125V18.5625H11V17.875Z" fill="white"/>
<path d="M12.375 17.1875H11.6875V17.875H12.375V17.1875Z" fill="white"/>
</g>
<defs>
<clipPath id="clip0_463_2369">
<rect width="22" height="22" fill="white"/>
</clipPath>
</defs>
</svg>
